<?xml version="1.0" encoding="UTF-8" standalone="no"?>
<!DOCTYPE svg  PUBLIC '-//W3C//DTD SVG 1.1//EN'  'http://www.w3.org/Graphics/SVG/1.1/DTD/svg11.dtd'>
<svg xmlns="http://www.w3.org/2000/svg">
<defs>
<font id="KobzarKS-Regular" horiz-adv-x="574">
<font-face underline-position="-50" font-weight="400" descent="-200" panose-1="3 2 5 0 4 4 0 0 0 0" units-per-em="1000" unicode-range="U+0020-2122" bbox="-658 -472 1139 959" x-height="364" underline-thickness="50" font-family="KobzarKS" ascent="800" cap-height="744"/>
<missing-glyph horiz-adv-x="1000"/>
<glyph glyph-name=".notdef" horiz-adv-x="1000"/>
<glyph glyph-name=".null" horiz-adv-x="0"/>
<glyph glyph-name="nonmarkingreturn" horiz-adv-x="333"/>
<glyph glyph-name="space" horiz-adv-x="350" unicode=" "/>
<glyph glyph-name="exclam" horiz-adv-x="320" unicode="!" d="M107 85q15 -4 15 -18q0 -19 -21.5 -42.5t-38.5 -23.5q-15 0 -15 22q0 29 12.5 46.5t33.5 17.5q4 0 14 -2zM364 679q1 0 3.5 0.5t3.5 0.5q20 0 20 -22q0 -13 -19 -64q-7 -16 -24 -55.5t-20.5 -47.5t-15 -35t-16 -36t-15 -30.5t-19.5 -39t-21.5 -41t-29.5 -55.5 q-17 -30 -33 -30q-12 0 -12 16t14 40q26 45 40 77q18 42 33 74t26 59.5t38 103.5q1 3 5 16.5t7.5 22.5t9 20.5t12 18t13.5 7.5z"/>
<glyph glyph-name="quotedbl" horiz-adv-x="194" unicode='&quot;' d="M137 644q15 0 15 -18q0 -19 -11 -45q-6 -17 -20.5 -50.5t-19.5 -49.5q-13 -40 -30 -40t-17 19q0 8 3.5 20.5t7 22t8.5 21t6 13.5q4 10 18 52q1 3 5 15.5t6.5 19.5t10.5 13.5t18 6.5zM260 647q13 0 13 -14t-20 -54q-25 -48 -62 -114q-2 -3 -7.5 -13.5t-9 -16t-10 -11 t-12.5 -5.5q-17 0 -17 16q0 13 9.5 33.5t23 43t13.5 23.5q8 15 17 36.5t16.5 36t16.5 25.5q11 14 29 14z"/>
<glyph glyph-name="numbersign" horiz-adv-x="564" unicode="#" d="M368 396q0 14 -40 14q-55 0 -74 -12q-8 -5 -13.5 -13.5t-12.5 -27.5t-9 -23q-26 -55 -26 -65q0 -17 39 -17q54 0 73 12q7 4 15.5 18.5t14 26.5t13.5 32t9 23q11 22 11 32zM558 673q0 -16 -22 -57q-31 -59 -50 -94q-21 -38 -21 -48q0 -15 27 -15q4 0 12 0.5t11 0.5 q26 0 26 -17q0 -15 -20 -20t-47 -6t-35 -5q-10 -5 -19.5 -21.5t-21.5 -44.5t-15 -34q-13 -26 -13 -34q0 -16 32 -16q11 0 36.5 2.5t37.5 2.5q36 0 36 -20q0 -13 -11.5 -16.5t-41.5 -4.5h-10q-90 -3 -107 -14q-5 -4 -10 -12t-7.5 -14t-8 -19t-7.5 -17q-53 -115 -59 -130 q-1 -2 -3 -8.5t-3 -9.5t-3 -8.5t-3.5 -8.5t-4 -7.5t-5.5 -6.5t-6.5 -3.5t-7.5 -1.5q-14 0 -14 18q0 5 9 38q13 35 48 120q1 3 7.5 14.5t11 22t4.5 18.5q0 5 -1 7q-3 9 -32 9q-57 0 -79 -13q-8 -5 -16.5 -19t-14.5 -27.5t-15 -36.5t-13 -33q-2 -3 -7.5 -18t-11 -28.5t-13 -28 t-16 -23t-16.5 -8.5q-17 0 -17 20q0 29 30 84q3 9 11 25.5t13 28.5q20 33 20 49q0 14 -22 14q-6 0 -21 -1.5t-21 -1.5q-21 0 -21 14q0 18 22 24t51 8t38 8q8 5 13.5 15.5t12.5 29t8 21.5q2 3 8 13.5t10 18t7.5 17t3.5 15.5q0 16 -23 16q-9 0 -33 -3t-35 -3q-27 0 -27 14 q0 8 4 13.5t13 8.5t14.5 4t18 1.5t14.5 0.5q70 7 78 12q9 6 18.5 24t20 47t12.5 33q1 2 8.5 20t14 31t17.5 25.5t21 12.5q17 0 17 -18q0 -15 -29 -73q-2 -6 -12 -24t-17 -33.5t-7 -24.5q0 -4 1 -6q6 -10 38 -10q56 0 73 10q5 2 9.5 5.5t8.5 10.5l6 10.5t7 14.5t6 13 q29 56 59 118q1 2 4.5 10t5.5 11.5l6 10.5t7.5 10.5t8.5 7.5t11 6t12 2q16 0 16 -15z"/>
<glyph glyph-name="dollar" horiz-adv-x="389" unicode="$" d="M210 239q-10 0 -41 -88q-15 -43 -26 -82q0 -1 0.5 -2t2.5 -1.5l4 -1t4.5 -0.5t4.5 1q28 8 47 37.5t19 76.5q0 60 -15 60zM297 595q-9 0 -20 -7q-71 -46 -71 -131q0 -49 12 -49q5 0 23 39.5t38 87t22 51.5q4 9 -4 9zM383 765h-1q-3 0 -14.5 -6.5t-15.5 -6.5q-7 0 -7 10 q0 11 15 28t35.5 35.5t26.5 26.5q4 5 13 22.5t18.5 27.5t22.5 10q14 0 14 -16q0 -11 -21 -61q-8 -19 -30.5 -56.5t-37.5 -67.5t-15 -46q0 -10 20 -19t39.5 -26.5t19.5 -47.5q0 -39 -28.5 -70t-63.5 -31q-13 0 -25 8.5t-12 22.5q0 8 5.5 16.5t17.5 8.5q4 0 8.5 -3.5 t16.5 -3.5q14 0 25.5 18.5t11.5 37.5q0 14 -13 26t-31 12q-4 0 -7.5 -1t-7 -3.5t-6 -5t-5.5 -7t-5 -8t-4.5 -9.5t-4 -9.5t-4.5 -11t-4 -10.5q-12 -29 -32.5 -75.5t-29.5 -68.5q-3 -6 -9 -18.5t-9.5 -20.5t-6.5 -18.5t-3 -19.5q0 -16 9.5 -46t10.5 -35q10 -47 10 -82 q0 -109 -94 -141q-5 -2 -20 -2.5t-24 -6.5q-11 -8 -19.5 -53t-8.5 -78q0 -9 11 -14t11 -14q0 -23 -32 -23q-33 0 -33 52q0 34 10 69.5t10 50.5q0 13 -10 22t-25 17t-20 13q-32 32 -32 95q0 36 28 87t70 86q7 7 15 7q13 0 13 -13q0 -5 -5 -12q-4 -6 -19.5 -27t-19.5 -27 t-14 -23t-13 -26t-6.5 -23.5t-3.5 -28.5q0 -22 13 -51.5t40 -29.5h3q2 0 23.5 57.5t42.5 121t21 76.5q0 20 -10.5 62t-10.5 64q0 63 30 111.5t81 73.5q6 3 25 8t27 10q14 9 34 49t26 61z"/>
<glyph glyph-name="percent" horiz-adv-x="556" unicode="%" d="M349 197q-17 -20 -27.5 -51.5t-10.5 -57.5q0 -47 31 -47q39 0 76.5 44.5t37.5 100.5q0 17 -9.5 25t-20.5 8q-13 -1 -27 -22.5t-29 -21.5q-17 0 -21 22zM388 252q17 7 36 7q70 0 70 -68q0 -76 -56.5 -139t-100.5 -63q-34 0 -54 24.5t-20 65.5q0 66 38 122t73 56q7 0 14 -5 zM508 650q17 0 17 -22q0 -33 -18.5 -64.5t-51.5 -67t-42 -49.5q-79 -115 -121.5 -174t-116.5 -150t-143 -160q-36 -36 -52 -36q-9 0 -9 14q0 17 31 48q76 76 216 260q6 9 41 52t51 67q15 21 15 26q0 3 -4 3q-5 0 -7 -2q-28 -26 -77.5 -49t-85.5 -23q-30 0 -50.5 23t-20.5 61 q0 58 35.5 114.5t74.5 83.5q29 20 61 20q24 0 41.5 -15t17.5 -46q0 -24 -16 -60.5t-37 -36.5q-20 0 -20 21q0 19 15.5 44t15.5 34q0 18 -20 18q-33 0 -75 -58.5t-42 -107.5q0 -50 42 -50q51 0 128.5 61t120.5 117q5 6 20.5 35.5t32 49t33.5 19.5z"/>
<glyph glyph-name="ampersand" horiz-adv-x="637" unicode="&amp;" d="M176 271q-164 -71 -164 -181q0 -89 89 -89q31 0 85 23.5t54 41.5q0 12 -16 57q-8 22 -15.5 61t-13 64t-9.5 25q-3 0 -5.5 -1t-4.5 -1zM351 573q-44 0 -77 -50q-31 -60 -31 -115q0 -24 10 -24q7 0 15 5t13.5 10.5t14.5 15.5t12 13q21 19 32 30t24 36t13 52t-26 27z M366 618q64 0 64 -67q0 -39 -19 -74t-46 -59t-54 -44t-46.5 -37.5t-20.5 -31.5q0 -9 3.5 -30t3.5 -24q7 -54 20.5 -102t29.5 -48q14 0 74 60q47 46 121 152q3 4 10.5 15.5t12.5 19.5t13 17t15.5 13.5t15.5 4.5q22 0 22 -20q0 -17 -21 -49q-42 -60 -87 -107.5t-117 -113.5 q-2 -2 -9.5 -8.5t-11.5 -10t-8 -9.5t-4 -11q0 -20 20.5 -31t41.5 -11q30 0 58.5 15t46 33.5t35 33.5t27.5 15q14 0 14 -17q0 -20 -48 -61q-70 -64 -146 -64q-44 0 -62 10q-7 3 -23 19t-29 16q-14 0 -43 -17t-31 -18q-62 -25 -107 -25q-61 0 -92.5 39.5t-31.5 97.5 q0 30 10.5 57t22.5 44.5t36.5 38t37 29t40.5 25.5q4 3 25.5 14t32.5 18t22 22.5t11 32.5q0 6 -1 19t-1 18q0 85 43.5 146t129.5 65z"/>
<glyph glyph-name="quotesingle" horiz-adv-x="124" unicode="&apos;" d="M185 649q14 0 14 -15q0 -17 -18 -53q-12 -26 -30 -58.5t-23 -42.5q-2 -3 -5.5 -11t-6.5 -13.5t-7 -11.5t-9 -9t-10 -3q-17 0 -17 16q0 11 7.5 28.5t18.5 36.5t12 21q7 14 15.5 36.5t15.5 37t15 26.5q11 15 28 15z"/>
<glyph glyph-name="parenleft" horiz-adv-x="273" unicode="(" d="M424 744q15 0 15 -16q0 -11 -14.5 -28t-35 -36t-24.5 -25q-257 -317 -258 -687q0 -16 1.5 -48t1.5 -45q0 -18 -4 -25t-15 -7q-17 0 -25 55.5t-8 101.5q0 174 74 352t188 313q25 28 59.5 61.5t44.5 33.5z"/>
<glyph glyph-name="parenright" horiz-adv-x="273" unicode=")" d="M228 744q27 0 27 -137v-49q-1 -161 -73 -332.5t-185 -303.5l-9 -12q-10 -11 -15 -16t-15.5 -17t-17.5 -18.5t-16.5 -14.5t-16.5 -11.5t-13 -3.5q-13 0 -13 13q0 8 15.5 26t36.5 38.5t25 26.5q251 310 252 686q0 15 -1.5 47.5t-1.5 45.5q0 32 21 32z"/>
<glyph glyph-name="asterisk" horiz-adv-x="438" unicode="*" d="M491 619q0 -6 -3 -10t-9 -7t-11 -5t-14.5 -4.5t-14.5 -4.5q-80 -29 -117 -37l-22 -1q-21 -2 -36.5 -6.5t-15.5 -12.5q0 -9 9 -25.5t21.5 -35.5t13.5 -20t11.5 -16t18.5 -29.5t8 -24.5q0 -14 -16 -14q-20 0 -50 52q0 1 -5 12t-10.5 23.5t-12 26t-12.5 22.5t-9 9 q-6 0 -14 -14t-18.5 -39.5t-12.5 -29.5t-8 -25t-13.5 -33t-19.5 -12q-19 0 -19 20q0 10 4.5 24t11.5 29.5t7 16.5q2 3 10 18.5t13.5 27t11 24t5.5 18.5q-1 4 -5 7.5t-10.5 6.5t-13 5.5t-14.5 5t-11 3.5q-46 18 -66 18q-30 -5 -35 -5q-22 0 -22 17q0 15 18.5 22t40.5 7 q19 0 62 -12q35 -14 42 -14q11 0 11 11q0 6 -4 13.5t-11 16.5t-8 11q-21 33 -21 45q0 7 6 12t14 5q4 0 7.5 -1.5t7 -4t6 -5t6 -7.5t5 -7.5t4.5 -8t4 -6.5q3 -5 9 -19t12 -22t13 -8q14 0 38 50q2 5 6 25.5t11.5 33t22.5 12.5q16 0 16 -22q0 -31 -15 -61q-2 -4 -10 -19 t-13 -26t-5 -19q0 -12 18 -12q10 0 45 10q22 5 36.5 10t34 13t32.5 13q19 7 34 7q20 0 20 -18z"/>
<glyph glyph-name="plus" horiz-adv-x="500" unicode="+" d="M225 263q-6 14 -73 14q-17 0 -23 -2q-10 -4 -10 -13q0 -16 36 -49q24 -24 36 -24h2q11 2 22 30q0 1 3.5 8.5t6 14.5t2.5 13q0 4 -2 8zM315 485h3q18 0 18 -26q0 -19 -11 -58q-1 -2 -4.5 -11.5t-6.5 -18t-6 -20t-3 -18.5q0 -5 2 -9q4 -9 22 -9q12 0 42 6t43 6q27 0 27 -21 q0 -20 -33.5 -26t-73.5 -7t-49 -10q-7 -8 -12 -18t-11 -28.5t-9 -25.5q-1 -3 -6 -17.5t-8.5 -22t-10.5 -15.5t-15 -9h-2q-16 0 -44 28q-14 14 -44 51.5t-50 56.5q-25 25 -25 41q0 18 35 18h2q11 -1 26.5 -2.5t23.5 -1.5q6 0 31.5 -3.5t39.5 -3.5q22 0 33 5q3 1 6 6t5.5 14 t5 17t5 20t4.5 19q20 76 40 89q5 3 10 4z"/>
<glyph glyph-name="comma" horiz-adv-x="182" unicode="," d="M24 7q-10 6 -10 19q1 20 14 32t28 12q26 0 26 -28q0 -14 -7 -31q-30 -74 -95 -144t-131 -114q-7 -4 -14 -4q-11 0 -11 9q0 8 12 18q131 106 188 231z"/>
<glyph glyph-name="hyphen" horiz-adv-x="464" unicode="-" d="M377 204q0 -9 -11 -17t-29 -9q-27 -1 -110.5 -5t-138.5 -6h-3q-14 0 -14 13q0 8 5.5 15.5t13.5 8.5q225 19 254 19q33 0 33 -19z"/>
<glyph glyph-name="period" horiz-adv-x="176" unicode="." d="M57 78q13 0 23.5 -10t10.5 -26t-16.5 -31t-31.5 -15q-23 0 -23 46q0 16 11 26t26 10z"/>
<glyph glyph-name="slash" horiz-adv-x="314" unicode="/" d="M398 587q0 -5 -3 -11q-19 -31 -60 -89t-59 -86q-23 -37 -72.5 -115.5t-79 -125.5t-72.5 -111t-79 -113q-16 -24 -29 -24q-8 0 -13.5 6t-5.5 14t13 23q34 44 70.5 99.5t61 96t63 107t59.5 100.5q89 148 163 240q9 10 20 10q9 0 16 -6t7 -15z"/>
<glyph glyph-name="zero" horiz-adv-x="471" unicode="0" d="M401 605q26 0 36.5 -36t10.5 -78q0 -142 -76 -284q-52 -98 -119 -159.5t-133 -61.5q-92 0 -92 134q0 191 145 382q27 36 73.5 82t68.5 46q21 0 21 -11q0 -16 -42 -51q-66 -60 -112 -132q-96 -154 -96 -315q0 -45 16 -64.5t40 -19.5q80 0 182 173q23 40 49 115t26 140 q0 19 -8.5 55.5t-8.5 56.5q0 28 19 28z"/>
<glyph glyph-name="one" horiz-adv-x="337" unicode="1" d="M407 647q0 -20 -37 -88q-46 -92 -135 -263t-133 -259q-1 -1 -6.5 -14t-9.5 -19t-10.5 -15.5t-14 -14t-15.5 -4.5q-21 0 -21 20q0 15 15 45q32 64 112.5 206t114.5 212q12 24 12 33q0 2 -3 2q-5 0 -16.5 -7.5t-22 -16t-19.5 -16.5l-10 -9q-36 -26 -88 -72q-24 -21 -41 -21 q-7 0 -13 5.5t-6 12.5q0 15 26 36q13 10 65.5 47t72.5 55q29 27 67 67.5t51 53.5q1 1 10.5 13.5t19 19.5t19.5 7q16 0 16 -16z"/>
<glyph glyph-name="two" horiz-adv-x="383" unicode="2" d="M306 425q13 23 30.5 75.5t17.5 77.5q0 44 -32 44q-30 0 -61.5 -21.5t-52.5 -46.5q-64 -78 -64 -128q0 -27 13.5 -41.5t34.5 -14.5q23 0 50 31t43 31q10 0 21 -7zM337 669q68 0 68 -92q0 -46 -19.5 -95.5t-40 -80t-55.5 -77.5q-29 -39 -142 -158q-33 -33 -33 -37 q0 -2 4 -2q3 0 24.5 4t35.5 4q55 0 55 -75q0 -25 -12 -46.5t-28 -21.5q-22 0 -22 29q0 6 4 20.5t4 20.5q0 30 -27 30q-10 0 -22.5 -4.5t-27 -11.5t-17.5 -8q-24 -11 -44.5 -22.5t-47.5 -28.5t-44 -27q-41 -26 -53 -26q-16 0 -16 17q0 7 5 14t10.5 11t14.5 10.5t11 7.5 q162 122 274 252q31 35 31 48q0 8 -17 8q-6 0 -20 -1.5t-20 -1.5q-31 0 -54.5 26t-23.5 58q0 50 40.5 111t98.5 103t106 42z"/>
<glyph glyph-name="three" horiz-adv-x="391" unicode="3" d="M414 585q0 -10 -10.5 -22.5t-28 -27.5t-18.5 -16q-17 -17 -48.5 -49t-58.5 -58.5t-51 -50.5q-1 -1 -8 -7.5t-12 -11.5t-10 -11.5t-5 -9.5q0 -4 13 -4q10 0 28 4t20 4q46 0 72 -23t26 -68q0 -69 -56 -149t-110 -104q-23 -11 -53 -11q-42 0 -76 23t-34 56q0 10 7 18.5 t21 8.5q11 0 19.5 -9.5t13.5 -21.5t17 -21.5t31 -9.5q59 0 111.5 78.5t52.5 143.5q0 43 -58 43q-33 0 -76.5 -16t-60.5 -16q-20 0 -20 16q0 6 4 14t11.5 16.5t13.5 14.5t13.5 13t8.5 8q102 106 148 152q31 27 31 34q0 8 -20 8q-8 0 -26 -2t-21 -2q-64 4 -102 40 q-10 9 -21 29t-11 36q0 10 9 18.5t19 8.5q14 0 23 -14.5t14 -31.5t27 -31.5t60 -14.5q25 0 47.5 6.5t48.5 16.5t44 15q14 3 22 3q19 0 19 -15z"/>
<glyph glyph-name="four" horiz-adv-x="464" unicode="4" d="M473 587q20 0 20 -21q0 -10 -4 -23.5t-8 -22.5l-4 -9q-52 -124 -110 -206q-14 -22 -40.5 -61.5t-46 -72t-35.5 -65.5q-26 -64 -26 -80q0 -8 13 -9t13 -8q0 -11 -11.5 -20t-31.5 -10q-17 0 -26.5 15.5t-9.5 33.5q0 28 16.5 67.5t35 68.5t48 73.5t37.5 57.5q22 29 22 36 q0 1 -2 1h-2q-11 -4 -71 -37.5t-102 -33.5q-25 0 -39.5 15.5t-14.5 42.5q0 21 7 46.5t21 56t25 51t29.5 54t23.5 42.5q0 2 5 11.5t5 13.5q0 6 -8 6q-23 -2 -50.5 -30.5t-53 -55.5t-44.5 -27q-13 0 -13 16q0 21 44 64.5t94 70.5q50 25 71 25q28 0 28 -24t-27 -72 q-69 -123 -86 -165q-18 -54 -18 -67q0 -25 25 -25q16 0 31 5t35.5 16t28.5 15q59 37 99.5 85.5t76.5 116.5q1 2 6 14.5t10 18t14 6.5z"/>
<glyph glyph-name="five" horiz-adv-x="372" unicode="5" d="M546 720q0 -47 -74 -97t-154 -50q-12 0 -34.5 7.5t-30.5 7.5q-16 0 -49 -79q-35 -75 -48 -101q-14 -28 -14 -29q0 -5 7 -5q4 0 22 5q27 10 48 10q37 0 61 -25.5t24 -77.5q0 -100 -79 -198t-176 -98q-33 0 -54 27t-21 67q0 21 6 42q10 33 34 33q10 0 17 -6.5t7 -18.5 q0 -10 -7.5 -29.5t-7.5 -31.5q0 -39 47 -39q57 0 117 82t60 167q0 57 -57 57q-17 0 -45 -11t-38 -11q-20 0 -20 31q0 10 4.5 22.5t14 31.5t9.5 20q9 19 36.5 76t42.5 93q2 6 7 19t8 18.5t9.5 10.5t16.5 5q5 0 28 -14.5t58 -14.5q61 0 125 50q8 6 22 25t28 32t31 13 q19 0 19 -16z"/>
<glyph glyph-name="six" horiz-adv-x="397" unicode="6" d="M370 672q10 0 10 -14q0 -8 -8 -20t-17.5 -22t-20.5 -20.5t-12 -11.5q-272 -297 -272 -461q0 -45 17.5 -68.5t45.5 -23.5q59 0 118.5 65t59.5 137q0 47 -36 47q-21 0 -45 -24.5t-41 -24.5t-17 18q0 17 23 39t40 29q24 9 43 9q38 0 61.5 -24.5t23.5 -65.5 q0 -68 -41.5 -128.5t-94.5 -92t-96 -31.5q-61 0 -90.5 36.5t-29.5 97.5q0 54 28.5 121t79.5 138.5t92.5 122t96.5 110.5q1 2 9.5 11.5t13 14l13 13t15 12.5t15 7.5t16.5 3.5z"/>
<glyph glyph-name="seven" horiz-adv-x="427" unicode="7" d="M476 641q29 0 29 -33q0 -10 -17 -18t-23 -16q-15 -20 -56 -89t-51 -84q-31 -49 -31 -67q0 -8 15 -20t15 -18q0 -9 -8 -14.5t-18 -5.5q-6 0 -17 2t-15 2h-2q-10 -2 -19.5 -14.5t-20 -33t-13.5 -25.5q-40 -67 -93 -162q-2 -3 -7.5 -14t-9.5 -18.5t-10 -16.5t-13 -13.5 t-14 -4.5q-21 0 -21 19q0 7 3.5 17t7.5 17t8.5 14.5t4.5 8.5q52 96 145 257q2 4 2 7q0 6 -10.5 18.5t-10.5 20.5q0 7 4.5 14.5t11.5 7.5q9 0 19 -3.5t13 -3.5q11 0 28 28q60 100 71 116q1 1 7 9.5t10.5 15.5t9 16t4.5 15q0 10 -45 10q-13 0 -33 -1t-23 -1q-107 0 -118 -10 q-5 -4 -14.5 -24.5t-20 -46t-15.5 -34.5l-9 -17q-9 -18 -16.5 -30.5t-19.5 -24.5t-22 -12q-8 0 -13.5 6t-5.5 14q0 11 14 35q2 4 14.5 26t19.5 34t16.5 30.5t14 32.5t5.5 24v9.5t0.5 12l1.5 10.5t3 10.5t5.5 7.5t8.5 6t12 2q8 0 22 -8t25 -10q24 -4 59 -4q19 0 57 2 q13 1 53 1.5t56 2.5q7 2 19 9t21 7z"/>
<glyph glyph-name="eight" horiz-adv-x="399" unicode="8" d="M205 205q-30 0 -124 -94q-39 -39 -40 -61q0 -14 23 -14q40 0 92 26q27 15 49 44t23 54q0 45 -23 45zM305 612q-53 0 -106.5 -62.5t-54.5 -140.5q0 -35 25 -78.5t43 -43.5q17 0 55 40.5t70.5 99t32.5 100.5q0 39 -16.5 62t-48.5 23zM307 657q54 0 84.5 -40t30.5 -97 q0 -61 -36 -115t-96 -113q-1 -1 -7.5 -6.5t-11 -9.5t-9.5 -9.5t-8 -11.5t-3 -11q0 -7 13.5 -32.5t13.5 -49.5q-1 -60 -68 -117.5t-150 -57.5q-34 0 -56.5 13.5t-22.5 37.5t16.5 49t34.5 40.5t50.5 40t45.5 36.5q33 27 33 37q0 6 -4.5 12t-12.5 14l-11 11q-42 53 -42 129 q1 93 65.5 171.5t150.5 78.5z"/>
<glyph glyph-name="nine" horiz-adv-x="412" unicode="9" d="M305 638q46 0 72.5 -35t26.5 -91q0 -71 -36.5 -159.5t-83.5 -156.5q-36 -52 -59.5 -82t-60.5 -68.5t-75.5 -57t-79.5 -18.5q-28 0 -50.5 11.5t-22.5 33.5q0 17 9.5 24.5t18.5 7.5t30.5 -14t47.5 -14q12 0 23.5 4.5t24.5 14.5t20.5 17t22.5 22.5t19 19.5 q72 73 134.5 192.5t62.5 225.5q0 35 -16.5 56t-49.5 21q-54 0 -97.5 -63t-43.5 -125q0 -32 11 -53t33 -21q20 0 38.5 16.5t26.5 16.5q7 0 11.5 -5t4.5 -11q0 -22 -33.5 -44.5t-56.5 -22.5q-41 0 -64 33.5t-23 74.5q0 89 63 169.5t152 80.5z"/>
<glyph glyph-name="colon" horiz-adv-x="306" unicode=":" d="M224 356q30 -7 30 -31q0 -1 -0.5 -3.5t-0.5 -3.5q-8 -42 -39 -42h-6q-22 5 -22 39q0 11 1 15q6 27 31 27q1 0 3 -0.5t3 -0.5zM113 45q0 -27 -14.5 -41t-29.5 -14q-28 0 -28 49q0 14 8.5 25.5t20.5 11.5t27.5 -9.5t15.5 -21.5z"/>
<glyph glyph-name="semicolon" horiz-adv-x="258" unicode=";" d="M-95 -187q-7 -3 -12 -3q-12 0 -12 10q0 11 13 21q113 91 146 182q-5 9 -5 20q0 18 15.5 31t31.5 13q22 0 22 -23q0 -14 -10 -35q-60 -120 -189 -216zM213 356q30 -7 30 -31q0 -1 -0.5 -3.5t-0.5 -3.5q-8 -42 -39 -42h-6q-22 5 -22 39q0 11 1 15q6 27 31 27q1 0 3 -0.5 t3 -0.5z"/>
<glyph glyph-name="less" horiz-adv-x="471" unicode="&lt;" d="M381 471q0 -7 -6 -15t-11.5 -12.5t-17 -13t-13.5 -9.5q-85 -66 -118 -86q-1 0 -18.5 -10t-26.5 -17.5t-10 -14.5v-1q0 -4 3 -9t8.5 -10.5t10 -9t11 -8.5t7.5 -6q28 -24 96 -68q34 -23 34 -39q0 -1 -0.5 -2.5t-0.5 -2.5q-4 -20 -24 -20q-13 0 -23 7q-43 27 -120 94 q-7 6 -18 16t-19.5 17.5t-15.5 11.5q-5 3 -14.5 7t-16.5 8t-11 9q-8 9 -8 20q0 14 16 25q2 2 7 2q4 0 12.5 -2.5t14.5 -2.5h6q14 2 66 32q22 12 58 38q15 10 49.5 41.5t58.5 44.5q11 6 18 6q16 0 16 -20z"/>
<glyph glyph-name="equal" horiz-adv-x="500" unicode="=" d="M397 235q0 -24 -70 -26h-8q-36 -2 -99.5 -5t-94.5 -5q-22 -2 -35 -2q-46 0 -47 20v2q0 9 7 14t20 7.5t24.5 3t28 1t22.5 0.5q72 3 128 6q2 0 26.5 2t40.5 2q57 0 57 -20zM423 377q0 -30 -68 -30h-32q-15 0 -61 -2t-69 -2q-8 0 -29 -1.5t-31 -1.5q-49 0 -50 21v2 q0 6 2.5 10t8.5 7t11.5 4.5t15 2t15.5 1t16.5 0.5h15.5q131 2 185 5q6 0 22.5 1.5t23.5 1.5q24 0 24 -19z"/>
<glyph glyph-name="greater" horiz-adv-x="471" unicode="&gt;" d="M373 314q0 -6 -2.5 -11.5t-8 -10.5t-10.5 -9t-13 -9t-12.5 -7.5t-12 -6t-8.5 -4.5q-79 -46 -152 -104q-38 -34 -61 -34q-17 0 -17 20q0 4 1 8t4 7.5t5 6.5t6.5 6.5t6.5 5.5t7 5.5t6 4.5q59 45 141 96q4 2 11.5 6t13.5 7t12.5 7t10 8t3.5 7q0 14 -42 43q-40 27 -90 70 q-33 26 -33 42q0 8 9 13t18 5q16 0 41 -28q30 -35 91 -80q9 -7 22 -20.5t20 -17.5q2 -1 11.5 -5t15.5 -8.5t6 -12.5z"/>
<glyph glyph-name="question" horiz-adv-x="373" unicode="?" d="M111 103q19 0 19 -36q0 -66 -39 -66q-41 0 -41 27q0 30 36 63q13 12 25 12zM405 734q33 0 33 -38q0 -13 -4 -30t-8 -28t-11 -28.5t-7 -18.5q-58 -149 -136 -285l-4 -6q-3 -6 -5 -9l-6 -9t-7.5 -9t-8.5 -5.5t-10 -2.5q-8 0 -17.5 7t-9.5 15q0 12 8.5 29t21.5 36l14 19 q97 178 128 250q14 35 14 45q0 12 -9 12q-14 0 -51 -37q-41 -41 -73.5 -91.5t-32.5 -83.5q0 -12 11.5 -20t11.5 -15q0 -10 -9.5 -18.5t-17.5 -8.5q-44 0 -44 56q0 30 27.5 79.5t66.5 95.5q3 3 17 20t19.5 23.5t19.5 20t24 19t25 11t30 5.5z"/>
<glyph glyph-name="at" horiz-adv-x="807" unicode="@" d="M423 337q-32 -5 -82 -44q-76 -60 -114 -138q-19 -41 -19 -68q0 -19 11 -26q8 -5 17 -5q28 0 63 29q60 51 94 108q5 8 16 34.5t16 35.5q1 2 10 17t13.5 25t4.5 18q0 15 -20 15q-6 0 -10 -1zM695 493q23 -52 23 -124q0 -86 -41 -170t-112 -136q-56 -41 -85 -49 q-17 -5 -35 -5q-43 0 -60 30q-1 3 -3.5 13t-5.5 18.5t-7 10.5h-3q-7 0 -17 -7.5t-21.5 -18t-14.5 -12.5q-40 -34 -80 -34q-34 0 -53 25.5t-19 62.5q0 86 108 196q90 90 170 90h6q11 -1 23 -8t19 -8h5q5 0 14.5 1.5t13.5 1.5q9 0 13 -5q3 -5 3 -12q0 -9 -6 -23.5t-11.5 -24.5 t-15 -25.5t-10.5 -16.5q-10 -18 -31 -48t-27 -42q-17 -40 -17 -84q0 -25 11 -32q5 -4 16 -4q22 0 46 12q66 27 124 126q54 93 54 180q0 92 -60.5 143t-161.5 51q-93 0 -190 -66q-156 -107 -212 -300q-19 -67 -19 -127q0 -73 31.5 -139t93.5 -98q50 -26 118 -26q48 0 96 14 q131 37 244 140q31 27 34 30q21 18 30 18q6 0 10.5 -4.5t4.5 -10.5q0 -22 -41 -55q-28 -28 -60 -50q-65 -48 -138 -80q-104 -47 -195 -47q-139 0 -213 88t-74 239q0 86 48 194q47 104 124 180.5t182 113.5q75 26 137 26q81 0 148 -30t89 -82z"/>
<glyph glyph-name="A" d="M600 531q7 0 14 -6t7 -16q0 -8 -4 -18t-10 -20t-11.5 -18t-12 -16.5t-7.5 -9.5q-34 -46 -64 -92q-37 -55 -59.5 -91t-46.5 -89t-24 -86q0 -31 18 -31q4 0 12 2.5t14 2.5q9 0 9 -12q0 -18 -17 -29q-15 -9 -30 -9q-22 0 -37 17.5t-15 45.5q0 31 7 56q4 13 4 21q0 9 -6 9 q-7 0 -14 -7q-167 -167 -267 -167q-40 0 -62 33.5t-22 84.5q0 75 44.5 176t125.5 196.5t172 140.5q48 24 92 24q80 0 80 -87q0 -48 -28.5 -98.5t-67.5 -89.5q-38 -38 -53 -38t-15 11q0 10 28 40.5t56.5 76t28.5 90.5q0 48 -28 48q-71 0 -138 -57t-119 -132 q-122 -176 -122 -306q0 -56 41 -56q35 0 86 29t91 65q182 163 287 354q13 24 30.5 41t32.5 17z" unicode="A"/>
<glyph glyph-name="B" horiz-adv-x="584" unicode="B" d="M452 345q53 -8 68.5 -21.5t15.5 -52.5q0 -59 -29 -118.5t-69.5 -100.5t-81 -67t-64.5 -26q-77 0 -77 62q0 20 12.5 41t31.5 21q23 0 23 -24q0 -6 -2 -17.5t-2 -16.5t1 -7q9 -3 18 -3q27 0 67 35q71 60 108 145q21 48 21 76q0 34 -35 34q-19 0 -59 -10q-1 0 -8.5 -3.5 t-15 -6t-17.5 -5t-17 -2.5q-21 0 -21 16q0 10 12 21t31 22t20 12q68 52 113 129q30 54 30 75q0 13 -11 13q-20 0 -42 -13t-45 -40.5t-37.5 -47.5t-37.5 -55q-5 -8 -8 -12q-3 -5 -12.5 -23.5t-18.5 -29.5t-18 -11q-17 0 -17 21q0 39 80 137q101 124 163 124q24 0 39 -18 t15 -44q0 -21 -3.5 -38t-18 -40t-22.5 -34t-37.5 -46t-42.5 -51zM404 727q23 0 23 -30t-30 -90q-25 -51 -51 -96t-67 -110t-51 -81q-124 -201 -182 -348q-16 -42 -37 -42q-12 0 -20 6.5t-8 15.5q0 20 22 64q18 36 39 75.5t37.5 68t42.5 72.5t38.5 65t43.5 71t41 66 q8 12 32 47.5t39 62t26 57.5q1 2 1 4q0 1 -1 1q-9 0 -43 -44q-100 -125 -211 -313q-1 -2 -6 -10.5t-7.5 -12t-7.5 -9.5t-9.5 -8.5t-9.5 -2.5q-18 0 -18 18q0 7 3.5 17t7 16.5t7.5 14.5l5 9q98 164 285 385q3 3 12 15.5t16.5 21t18 16.5t19.5 8z"/>
<glyph glyph-name="C" horiz-adv-x="354" unicode="C" d="M278 485q-25 -16 -49.5 -61t-32.5 -94q-1 -3 -1.5 -9t-1.5 -9t-2 -7.5t-2.5 -6.5t-3.5 -4.5t-5 -3.5t-7 -1q-13 0 -13 22q0 23 12 61.5t19 52.5q26 50 48 80t58 55q26 18 43 18q14 0 14 -13q0 -9 -18 -45.5t-18 -59.5q0 -12 5 -12q31 0 63 62.5t32 115.5q0 48 -48 48 q-49 0 -121 -61q-94 -78 -156 -200.5t-62 -233.5q0 -56 19.5 -92t58.5 -36q76 0 205 104q3 2 11.5 11t16 15t14.5 6q6 0 12 -7.5t6 -13.5q0 -17 -75 -75t-122 -77q-36 -15 -80 -15q-58 0 -88.5 48t-30.5 122q0 71 23 152t54 129q34 54 64 93t72.5 81.5t91.5 65t102 22.5 q79 0 79 -90q0 -71 -46 -143t-100 -72q-42 0 -42 56q0 8 2 22z"/>
<glyph glyph-name="D" horiz-adv-x="687" unicode="D" d="M218 141q-4 8 -14.5 31.5t-16.5 35t-16.5 27t-21.5 22.5t-23 7q-18 0 -38 -17q-35 -29 -68.5 -82t-33.5 -96q0 -54 42 -54q25 0 50.5 10t39.5 19.5t38 28.5q41 31 62 68zM647 599q-3 0 -42 -58q-17 -24 -57 -83.5t-63.5 -93t-63 -84.5t-78.5 -95q-46 -51 -46 -68 t27 -42.5t53 -25.5q54 0 112 63.5t99 140.5q82 158 82 276q0 70 -23 70zM560 656q-10 5 -28 5q-12 0 -25.5 -2.5t-29.5 -6.5t-21 -5q-65 -13 -124.5 -37t-119 -62.5t-96 -65t-98.5 -76.5q-2 -2 -10 -9t-13 -11t-12 -8t-13 -4q-7 0 -16 9t-9 20q0 7 3 13.5t10 12.5t12 10.5 t14 11t12 8.5q64 49 116 83.5t125 74t153 61t162 23.5q4 0 13 -0.5t14 -0.5q26 0 59 39t64 77.5t52 38.5q20 0 20 -22q0 -34 -28 -72q-3 -4 -21.5 -26.5t-31.5 -42t-13 -31.5q0 -10 8 -25l8 -15q17 -48 17 -104q0 -116 -86 -290q-48 -100 -118 -164q-21 -19 -34 -30 t-38.5 -22t-51.5 -11t-47.5 10t-33 21t-28.5 32q-22 26 -31 26q-6 -5 -24.5 -23.5t-27.5 -24.5q-90 -69 -165 -69q-88 0 -88 76q0 41 23 93t49 87q20 28 35.5 46.5t42 37.5t50.5 19q34 0 59 -36.5t39.5 -74t22.5 -39.5h2q7 0 15 7t19.5 22t12.5 17q168 198 298 409 q-3 3 -7 3q-16 0 -50 -45.5t-68 -91.5t-50 -46q-8 0 -12.5 5t-4.5 11q0 14 10 29t29 34.5t21 21.5q9 11 26 29.5t31 35t27 34.5z"/>
<glyph glyph-name="E" horiz-adv-x="423" unicode="E" d="M203 458q25 61 57 110q1 1 5.5 8t8 12t10 13.5t12 14.5t12 12t12.5 9t12 3q17 0 17 -16q0 -12 -10.5 -40t-10.5 -43q0 -24 15 -38t36 -14q35 0 57.5 35.5t22.5 74.5q0 38 -24 59t-65 21q-73 0 -128 -51t-55 -124q0 -31 16 -46zM215 339q-9 -20 -9.5 -60t-4 -66t-21.5 -26 q-14 2 -14 42q0 28 10 101q-53 -10 -103 -64t-50 -124q0 -48 32.5 -79.5t84.5 -31.5q60 0 132.5 42t137.5 107q7 7 15 7q7 0 12.5 -6.5t5.5 -14.5t-5 -13q-173 -173 -304 -173q-80 0 -121 43t-41 109q0 64 36.5 124.5t96.5 89.5q7 3 31.5 12.5t39.5 17.5t15 13 q0 6 -14.5 25.5t-19.5 30.5q-16 36 -16 74q0 83 70 142t162 59q58 0 96 -33t38 -88q0 -61 -39 -106.5t-90 -45.5q-88 0 -88 98l-1 2q-7 0 -30.5 -48t-23.5 -71q0 -15 30.5 -31t30.5 -30q0 -13 -17 -17.5t-38 -5.5t-26 -5z"/>
<glyph glyph-name="F" horiz-adv-x="339" unicode="F" d="M319 481q-46 -61 -124 -209q16 -4 49 -4h21q24 0 46 5q3 1 19.5 6t24.5 5q17 0 17 -19q0 -13 -13.5 -22t-34 -13t-33 -5t-20.5 -1q-13 0 -39 3t-38 3q-5 0 -9.5 -0.5t-8 -1t-7 -3t-6 -3.5t-6 -5.5t-5.5 -7t-6.5 -9t-7 -10t-8.5 -13t-9 -14.5q-60 -91 -80 -162 q-1 -4 -5 -19.5t-6 -20.5t-6.5 -13.5t-10.5 -11.5t-14 -3q-21 0 -21 25q0 18 11 51q22 64 72 146q3 6 12.5 19.5t16 25.5t11.5 27q1 2 -0.5 3t-4 1.5t-5.5 0.5t-6.5 -0.5t-5.5 -0.5q-6 0 -18 -1.5t-17 -1.5q-20 0 -20 18q0 15 22 20t52.5 4.5t39.5 2.5q28 35 74 118 q-5 -3 -31 -23.5t-52 -34.5t-49 -14q-30 0 -48 25.5t-18 66.5q0 57 29 98t80.5 62t109.5 30.5t128 9.5q250 0 285 42q3 3 8.5 15t12.5 19.5t17 7.5q13 0 21 -10t8 -21q0 -68 -160 -83q-41 -4 -99.5 -6.5t-100.5 -4t-91 -6t-82.5 -15t-62.5 -28t-43.5 -47.5t-14.5 -72 q0 -38 33 -38q5 0 10 1t10.5 3.5t10 5t10.5 7t10 7t10 8t9 8t9.5 8.5t7.5 7q7 7 24 31t33.5 41.5t31.5 17.5q8 0 12 -6q8 4 20.5 25t22.5 21q18 0 18 -16q0 -17 -22 -52z"/>
<glyph glyph-name="G" horiz-adv-x="417" unicode="G" d="M337 655q32 0 53 -23t21 -53q0 -66 -50 -122.5t-88 -56.5q-30 0 -30 14q0 10 11 19t29 19.5t26 18.5q20 20 37.5 52t17.5 56q0 31 -34 31q-57 0 -111.5 -47t-100.5 -123q-42 -72 -67 -151t-25 -137q0 -55 38 -55q39 0 97 54q122 111 194 232q22 36 48 36q16 0 16 -22 q0 -12 -5 -23.5t-15.5 -27.5t-13.5 -21q-15 -28 -53.5 -102t-60 -113t-58.5 -94t-74 -95q-102 -110 -184 -110q-33 0 -53.5 18t-20.5 50q0 6 2 20q5 30 31 30q18 0 18 -26v-19q0 -33 28 -33q50 0 117.5 68t115.5 143.5t63 120.5q2 6 0 6q-4 0 -40 -37t-85 -74.5t-84 -37.5 q-36 0 -55.5 30t-19.5 75q0 104 62 235.5t143 206.5q30 27 74 47.5t86 20.5z"/>
<glyph glyph-name="H" horiz-adv-x="634" unicode="H" d="M283 411q30 11 48 11t30.5 -9t12.5 -26q0 -13 -8 -48.5t-8 -50.5q0 -29 26 -29q23 0 48.5 18.5t40.5 36.5q14 15 48 86q30 64 77.5 137.5t71.5 73.5q22 0 22 -20q0 -8 -3.5 -20t-7.5 -21t-9.5 -19t-5.5 -11q-33 -75 -90 -149q-3 -4 -27.5 -35.5t-32.5 -43.5 q-9 -14 -18 -33.5t-21 -48t-17 -40.5q-2 -4 -10 -21.5t-12 -27.5t-8.5 -27.5t-4.5 -32.5q0 -22 16 -22q38 0 183 145q5 4 13 4q9 0 15.5 -5.5t6.5 -13.5t-42.5 -51t-100 -85t-88.5 -42q-24 0 -40 14t-16 41q0 29 10.5 61.5t26 69.5t21.5 56q-39 -18 -59 -18q-23 0 -42 16 t-19 41q0 14 6 42.5t6 41.5q0 20 -9 20q-4 0 -17 -6.5t-21 -6.5t-11 7q-10 -21 -21 -55t-17 -49q-16 -40 -22.5 -55.5t-24 -55.5t-30 -60t-31 -45.5t-37.5 -37t-38 -11.5q-44 0 -65 25.5t-21 64.5q0 37 18.5 72t44.5 35q9 0 15.5 -6t6.5 -15q0 -11 -16.5 -40t-16.5 -50 t9.5 -31t20.5 -10q36 0 79 94q24 51 55.5 132.5t44.5 111.5q3 7 16 37t22.5 53t9.5 29q0 5 -6 12t-15.5 15t-12.5 11q-9 10 -36 43.5t-45 46.5t-42 13q-20 0 -33.5 -11t-13.5 -32q0 -52 47 -52q6 0 18.5 3t19.5 3q28 0 28 -26q0 -15 -13 -27t-37 -12q-44 0 -76 26.5 t-32 81.5q0 43 31.5 73.5t70.5 30.5q34 0 56.5 -19.5t54.5 -65.5q1 -1 9 -13.5t13.5 -20t14.5 -15.5t17 -8q7 0 31 47t60.5 93.5t73.5 46.5q36 0 36 -46q0 -26 -29 -81q-33 -65 -82 -90q-7 -4 -21.5 -8.5t-20.5 -7.5q-5 -2 -13 -18.5t-21 -48t-15 -36.5zM359 572 q26 10 50 46.5t28 62.5q-18 -10 -42.5 -43.5t-35.5 -65.5z"/>
<glyph glyph-name="I" horiz-adv-x="468" unicode="I" d="M430 525q-11 -8 -45 -38.5t-60.5 -49t-43.5 -18.5q-13 0 -13 17q0 15 20.5 30.5t56.5 40.5t60 53q7 8 29.5 38.5t38 43.5t33.5 13q14 0 20 -8q9 -12 9 -27q0 -12 -6 -27.5t-13 -27t-19 -31t-18 -29.5q-132 -242 -206 -345q-4 -6 -20 -25.5t-27 -35.5t-11 -21q0 -8 14 -19 t26 -11q40 0 101 46.5t95 84.5q9 9 18 9q8 0 13.5 -6.5t5.5 -14.5q0 -9 -7 -16q-45 -45 -116 -95t-119 -50q-18 0 -41.5 21t-25.5 21q-7 0 -17 -5.5t-22 -14.5t-17 -12q-44 -26 -89 -26q-37 0 -60 21.5t-23 66.5q0 40 16 78t40 48q21 8 37 8q27 0 52.5 -17t48.5 -40.5 t33 -29.5q52 37 150 219q30 56 102 181zM137 88q-14 24 -44.5 51.5t-51.5 27.5q-18 0 -32.5 -30.5t-14.5 -62.5q0 -45 42 -45q24 0 55 17q13 7 29.5 21t16.5 21z"/>
<glyph glyph-name="J" horiz-adv-x="416" unicode="J" d="M430 514q18 3 50.5 37t32.5 47q0 4 -5 4q-13 0 -41.5 -33.5t-36.5 -54.5zM141 20q1 2 0 3t-4 0q-40 -11 -78 -26t-75.5 -47t-37.5 -69q0 -20 16 -30.5t34 -10.5q19 0 38 12.5t32.5 28.5t29.5 44.5t24 46t21 48.5zM402 182q7 4 14 4q18 0 18 -17q0 -10 -7 -17 q-73 -71 -210 -108q-10 -4 -13 -12q-24 -55 -45 -93q-41 -72 -81 -108t-95 -36q-37 0 -64.5 21t-27.5 57q0 128 265 194q5 1 7 6q72 200 131 307q32 58 32 75q0 5 -3 7q-29 12 -55.5 49t-47 67t-40.5 30q-25 0 -40.5 -23t-15.5 -50q0 -44 38 -44q4 0 14 2t14 2q20 0 20 -24 q0 -28 -50 -28q-31 0 -52.5 25t-21.5 65q0 50 27 87.5t65 37.5q34 0 56.5 -18.5t43.5 -54.5q15 -26 38.5 -53.5t38.5 -27.5q7 0 19 15t26.5 38.5t19.5 29.5q68 87 124 87q28 0 28 -27q0 -20 -15 -49.5t-27 -45.5t-36.5 -40t-41.5 -34q-10 -6 -29.5 -12.5t-27.5 -11.5 q-16 -9 -53 -80q-37 -74 -111 -269q0 -1 -1.5 -4t-2 -5.5t-0.5 -5.5q0 -6 8 -4q111 31 167 96z"/>
<glyph glyph-name="K" horiz-adv-x="629" unicode="K" d="M216 436q8 15 22.5 45t27 53.5t23.5 39.5q-8 -1 -23 -1q-35 0 -65 12t-45.5 26t-31 26t-26.5 12q-26 0 -42.5 -49.5t-16.5 -118.5q0 -52 21.5 -85.5t49.5 -33.5q26 0 57 39.5t38 43.5l1 1h3q2 0 2.5 -1t1 -3.5t3.5 -5.5zM520 554q-12 0 -24.5 -12t-28.5 -34.5t-18 -24.5 q-19 -24 -48 -64q-5 -7 -51.5 -67.5t-65.5 -93.5q62 38 102 38q44 0 44 -53q0 -37 -26.5 -119.5t-26.5 -100.5t13 -18q21 0 56.5 24t59.5 45.5t68 63.5q3 2 23 26t34 24q4 0 10.5 -5t6.5 -12q0 -5 -3 -11.5t-9.5 -13.5t-11.5 -12.5t-13.5 -13.5t-10.5 -10q-4 -4 -31.5 -32 t-38 -38t-36.5 -32.5t-42.5 -31.5t-40 -18t-43.5 -9q-45 0 -45 57q0 39 25.5 125.5t25.5 103.5q0 15 -9 15q-17 0 -34.5 -8t-28 -15.5t-28.5 -23.5t-23 -20q-4 -3 -19 -3q-11 0 -31 -28.5t-44.5 -72t-29.5 -50.5q-1 -1 -5.5 -8.5t-7 -11t-6.5 -8.5t-8.5 -7t-9.5 -2 q-18 0 -18 23q0 26 20.5 87.5t49.5 135.5t37 100q-55 -25 -74 -25q-56 0 -84.5 51t-28.5 126q0 25 5.5 56.5t16.5 66t33 58t50 23.5q23 0 48 -12t44.5 -27t52 -27t69.5 -12q15 0 28 16.5t28 33t37 16.5q33 0 33 -26q0 -13 -3.5 -23.5t-7.5 -16.5t-14 -13t-15 -9.5 t-18.5 -8.5t-17.5 -8q-8 -4 -16.5 -15t-13.5 -20.5t-13 -26.5t-11 -22q-4 -8 -34 -67t-41.5 -83t-30.5 -70t-29 -82q5 0 9.5 2.5t6 4t6.5 8.5t6 9q31 41 97.5 134t120 162t103.5 119q41 41 61 42q17 0 17 -20q0 -7 -3 -17t-6 -17.5t-7.5 -17t-5.5 -11.5q-8 -19 -22.5 -51 t-23 -56t-16.5 -56q-17 -69 -39 -69q-21 0 -21 25q0 14 18 68q5 13 24.5 51t22.5 53z"/>
<glyph glyph-name="L" horiz-adv-x="521" unicode="L" d="M114 104q-41 78 -60 78q-12 0 -26.5 -16t-23.5 -34q-18 -32 -18 -70q0 -37 30 -37q28 0 56 22t42 57zM563 707q-26 0 -56 -27t-45 -49t-36 -56q-3 -4 -17.5 -27.5t-21.5 -35t-17.5 -30.5t-15.5 -31.5t-5 -20.5q0 -6 6 -6q9 0 39 18q110 69 164 162q26 42 26 78 q0 25 -21 25zM183 105q20 -34 48.5 -55.5t57.5 -21.5q23 0 47 9.5t50 30.5t42.5 35.5t44.5 43t36 36.5q7 5 12 5q8 0 14.5 -6t6.5 -14t-8 -16q-77 -72 -94 -86q-96 -83 -155 -83q-51 0 -96 38q-3 3 -13.5 13t-18 15.5t-12.5 5.5q-13 0 -32 -22t-21 -23q-40 -27 -79 -27 q-30 0 -50 18t-20 58q0 59 36 112.5t79 53.5q19 0 38.5 -18.5t34 -36.5t19.5 -18q2 0 4 2q4 4 10 16.5t14.5 30.5t14.5 28q32 60 32 67q0 6 -13 0q-26 -14 -49 -14q-16 0 -16 17q0 8 7 15t15 11t18 8t11 5q5 3 16.5 7.5t17.5 7.5t13.5 8t12.5 11q17 19 66 121 q126 260 239 260q65 0 65 -63q0 -105 -130 -218q-56 -49 -148 -106q-43 -26 -50 -34q-5 -5 -19 -35q-41 -81 -82 -156q-17 -31 -16 -36z"/>
<glyph glyph-name="M" horiz-adv-x="945" unicode="M" d="M954 620q17 0 17 -24q0 -14 -12 -54q-8 -29 -17.5 -56.5t-22.5 -56.5t-22 -48.5t-26.5 -50.5t-25.5 -44.5t-29 -49t-27 -45.5l-13 -19q-12 -18 -23.5 -36.5t-24.5 -42.5t-21 -46.5t-8 -39.5q0 -22 16 -32q4 -3 4 -7q0 -6 -6 -10.5t-15 -4.5q-19 0 -33 15t-14 38t6 47 t21 53.5t25 46.5t35 55.5t33 52.5q7 11 22.5 36t23.5 38t20 35t22 44.5t20 49.5q2 6 0 6q-8 0 -47 -45q-44 -47 -91 -102.5t-76 -91t-87.5 -109.5t-84.5 -106q-2 -2 -14 -19.5t-23 -28t-21 -10.5q-19 0 -19 22q0 25 10 62q33 108 111.5 297.5t110.5 291.5q4 13 -2 13 q-5 0 -39 -30q-90 -84 -233.5 -274t-232.5 -279q-23 -23 -58 -43.5t-60 -20.5q-36 0 -53.5 24.5t-17.5 62.5q0 47 23.5 87t57.5 40q11 0 17.5 -6t6.5 -14q0 -18 -26.5 -55.5t-26.5 -57.5q0 -40 28 -40q30 0 90 67q4 3 5 5q76 81 201.5 241t188.5 229q114 123 184 160 q6 3 13 3q24 0 24 -25q0 -9 -4 -20.5t-10.5 -23.5t-8.5 -18q-20 -52 -63.5 -174t-70.5 -190q-48 -118 -59 -160q-1 -4 -1 -8q0 -3 1 -3q4 0 16.5 15.5t33 43.5t27.5 37q100 126 233 267q44 47 71 82q2 2 14 19.5t21 26t16 8.5z"/>
<glyph glyph-name="N" horiz-adv-x="623" unicode="N" d="M367 555q10 0 10 -13q0 -17 -24 -75q-28 -65 -63 -135.5t-82 -154.5t-94 -137.5t-81 -53.5q-27 0 -43 18.5t-16 45.5q0 19 12 45.5t29 26.5q10 0 10 -12q0 -8 -8 -23.5t-8 -24.5q0 -23 27 -23q30 0 98 104t117 198t79 159q24 55 37 55zM433 189q8 15 40.5 81t46 91 t42 71.5t56.5 83.5q33 44 61 75t69 67.5t86.5 56t93.5 19.5q36 0 59 -20.5t23 -59.5q0 -35 -11 -64t-32 -29q-20 0 -20 18q0 10 11 37.5t11 38.5q0 18 -16 27t-34 9q-49 0 -113 -41q-68 -44 -120 -109t-108 -159q-107 -180 -164 -334q-1 -2 -5 -16.5t-9 -27.5t-11.5 -27.5 t-15 -23.5t-16.5 -9q-19 0 -19 34q0 28 22 116q7 36 18 99t24 173.5t13 183.5q0 130 -40 130q-46 0 -88 -41.5t-64.5 -94.5t-22.5 -96q0 -7 1 -19t1 -18q0 -40 -26 -40q-23 0 -23 49q0 106 76.5 204t172.5 98q65 0 65 -167q0 -81 -17 -219t-17 -147z"/>
<glyph glyph-name="O" horiz-adv-x="447" unicode="O" d="M259 416q8 7 16 17.5t12.5 17t13.5 23t11 20.5q38 71 38 95q0 5 -9 5q-33 0 -58 -59.5t-25 -104.5q0 -10 1 -14zM355 692q-17 0 -61 -30q-39 -27 -85 -80q-81 -93 -126 -205t-45 -225q0 -114 48 -114q68 0 152 81.5t141 195t57 201.5q0 26 -8 49.5t-25 23.5 q-7 0 -14.5 -15t-15.5 -40t-9 -28q-45 -105 -86 -161q-1 -2 -9.5 -15t-14.5 -20.5t-15.5 -15t-18.5 -7.5q-21 0 -21 42q0 105 33 190t89 115q3 2 19.5 8t25 13t8.5 17q0 20 -19 20zM424 706q0 -7 -4 -22t-4 -26q0 -10 20.5 -27t25.5 -26q24 -45 24 -100q0 -78 -43 -173 t-105 -171.5t-136.5 -128.5t-133.5 -52q-32 0 -53 33t-27.5 69.5t-6.5 71.5q0 132 55.5 251.5t142.5 215.5q45 50 98.5 85.5t98.5 35.5q24 0 36 -7.5t12 -28.5z"/>
<glyph glyph-name="P" horiz-adv-x="434" unicode="P" d="M277 698q4 2 30 25t41 23q12 0 19 -7.5t9.5 -17t4.5 -10.5q8 -5 30.5 -10t23.5 -5q112 -40 112 -146q0 -93 -78 -184.5t-160 -91.5q-33 0 -52.5 19.5t-19.5 49.5q0 32 23.5 58.5t53.5 26.5q31 0 31 -18q0 -11 -10.5 -17.5t-22.5 -9.5t-22.5 -14t-10.5 -31q0 -23 29 -23 q43 0 114.5 72.5t71.5 155.5q0 53 -31.5 84.5t-77.5 31.5q-4 0 -9.5 -6t-11.5 -16t-11 -19.5t-10.5 -21.5t-7.5 -16q-20 -37 -76 -135.5t-83.5 -150t-59.5 -125t-44 -127.5q-1 -4 -3 -13.5t-3.5 -15t-4 -14t-5.5 -14t-6.5 -11t-9 -8t-11.5 -2.5q-22 0 -22 37q0 33 9 57 q22 67 58 143.5t59.5 119.5t78.5 135.5t68 115.5q39 65 39 86q0 5 -4 5q-11 0 -45.5 -51.5t-51.5 -51.5q-15 0 -15 12q0 8 17 30t17 29q0 1 -1 1q-8 0 -27 -19q-19 -17 -38 -41.5t-26 -41.5q-2 -5 -6.5 -18t-7.5 -20.5t-7.5 -17t-10 -14t-11.5 -4.5q-19 0 -19 22t16 54 q67 134 178 166z"/>
<glyph glyph-name="Q" horiz-adv-x="443" unicode="Q" d="M160 121q-53 83 -79 83q-7 0 -13 -3q-36 -19 -65.5 -57t-29.5 -72q0 -40 35 -40q36 0 79 26q46 25 73 63zM190 79q-9 0 -25.5 -11.5t-33.5 -26t-22 -17.5q-73 -44 -113 -44q-33 0 -54.5 19t-21.5 48q0 58 59.5 134.5t107.5 76.5q18 0 37 -14.5t31.5 -32.5t27 -32.5 t23.5 -14.5q22 0 69 66q79 111 104 164q36 76 36 156q0 108 -84 108q-73 0 -142 -67t-69 -136q0 -25 11.5 -42t34.5 -17t37 16t18.5 35t13.5 35t23 16q25 0 25 -28q0 -36 -37 -77.5t-82 -41.5q-44 0 -66 35.5t-22 85.5q0 92 83 161t174 69q59 0 96 -38t37 -117 q0 -59 -16.5 -115.5t-48.5 -107t-58 -83.5t-64 -75q-4 -5 -16.5 -16.5t-19.5 -20t-7 -15.5q0 -15 44 -61t109 -89t110 -43q13 0 35 11t35 11q14 0 14 -12q0 -21 -40 -41q-32 -16 -65 -16q-44 0 -93 28t-81.5 60t-68 70.5t-45.5 46.5z"/>
<glyph glyph-name="R" horiz-adv-x="649" unicode="R" d="M332 525q15 5 41.5 30t26.5 36q0 5 -8 5q-16 0 -36 -26t-24 -45zM243 341q54 0 111 26q211 95 211 233q0 51 -43.5 78.5t-94.5 27.5q-104 0 -197 -80t-93 -155q0 -18 5 -24.5t19 -6.5q2 0 7 0.5t8 0.5q21 0 21 -17q0 -13 -11.5 -24t-29.5 -11q-35 0 -51 20.5t-16 49.5 q0 63 48.5 130t129.5 113t165 46q86 0 136 -41.5t50 -108.5q0 -91 -75.5 -166t-172.5 -102q-43 -11 -43 -20q0 -2 5 -5q23 -10 40 -47t26 -74.5t29 -68t50 -30.5q15 0 32.5 6t30.5 13t30.5 20.5t26 20.5t24.5 22t18 17q4 4 11 4q8 0 13.5 -5.5t5.5 -13.5t-9 -17 q-3 -2 -23 -21t-35.5 -31.5t-39 -29t-48 -25t-48.5 -8.5q-51 0 -82 46q-14 20 -31 72t-33 89t-33 37q-3 0 -9.5 -1t-10.5 -1q-13 0 -19.5 5t-11 14t-7.5 12q-9 -16 -45 -93q-109 -221 -195 -221q-29 0 -48 22t-19 57q0 34 27.5 74t57.5 40q23 0 23 -23q0 -13 -16 -25.5 t-32.5 -30t-16.5 -42.5q0 -27 30 -27q17 0 36 20t29.5 36.5t28.5 49.5q24 42 59.5 118t65 137t63.5 122t68 95.5t64 34.5q42 0 42 -36q0 -24 -18.5 -53t-43.5 -45q-8 -5 -24 -14.5t-23.5 -14.5t-18.5 -13.5t-19 -17.5q-13 -15 -32 -53t-29 -66z"/>
<glyph glyph-name="S" horiz-adv-x="419" unicode="S" d="M88 231q-28 0 -48 -46t-20 -80t14.5 -56t45.5 -22q50 0 82 26q25 21 25 30q0 7 -32 19q-17 8 -31 31t-19 49q-11 49 -17 49zM259 81q-11 -5 -38 -31t-62 -46t-79 -20q-49 0 -76 35.5t-27 84.5q0 55 42 121t89 66q17 0 24.5 -15.5t10 -43t6.5 -37.5q22 -62 55 -62 q25 0 25 46q0 39 -31 123t-31 137q0 108 69.5 188t172.5 80q52 0 80 -31t28 -71q0 -70 -51.5 -133t-101.5 -63q-25 0 -40.5 16t-15.5 44q0 13 8 25.5t22 12.5q17 0 17.5 -27t15.5 -27q34 0 69.5 51t35.5 94q0 66 -69 66q-78 0 -133.5 -64.5t-55.5 -154.5q0 -16 2 -33 t4 -28.5t7 -29t7.5 -25l9 -27t8.5 -24.5q20 -63 20 -83q0 -23 -3.5 -41.5t-3.5 -22.5q0 -7 9 -7q20 0 62 17t70 44q2 2 8 2q8 0 16 -4.5t8 -11.5t-12 -18q-75 -61 -171 -72z"/>
<glyph glyph-name="T" horiz-adv-x="468" unicode="T" d="M137 88q-14 24 -44.5 51.5t-51.5 27.5q-18 0 -32.5 -30.5t-14.5 -62.5q0 -19 9.5 -33t29.5 -14q26 0 58 19q13 7 29.5 21t16.5 21zM415 391q-26 -37 -71 -115.5t-71 -115.5q-5 -7 -20.5 -24t-27.5 -31t-12 -19q0 -8 15 -23t27 -15q38 0 100.5 47t95.5 84q9 9 18 9 q8 0 13.5 -6.5t5.5 -14.5q0 -9 -7 -16q-45 -45 -116 -95t-119 -50q-18 0 -41.5 21t-25.5 21q-7 0 -17 -5.5t-22 -14.5t-17 -12q-44 -27 -93 -27q-54 0 -71 43q-8 21 -8 46q0 40 16 78t40 48q21 8 37 8q27 0 52.5 -17t48.5 -40.5t33 -29.5q34 24 86.5 105.5t57.5 109.5 q-78 -40 -167 -40q-53 0 -97 24.5t-44 74.5q0 35 25 65t56 46q28 13 61 23.5t79 19.5t72 13t87.5 12t76.5 10q127 18 188 40q48 17 98 41t50 39q0 8 -10 18t-10 16q0 10 8 17.5t19 7.5q19 0 36.5 -14t17.5 -35q0 -42 -48 -75.5t-126 -54t-148.5 -33.5t-146 -22.5 t-88.5 -12.5q-6 -1 -36 -6.5t-51.5 -9.5t-53 -13.5t-51.5 -19.5t-35 -26.5t-15 -35.5q0 -33 38 -48.5t84 -15.5q24 0 66.5 13.5t53.5 13.5q17 0 18 -15q9 14 26.5 47t29.5 48t30 26q20 12 37 12q15 0 24.5 -8.5t9.5 -23.5q0 -21 -17 -46t-38 -25q-3 0 -5 1q-5 2 -11 3z"/>
<glyph glyph-name="U" horiz-adv-x="674" unicode="U" d="M607 445q16 0 16 -17q0 -9 -5 -21.5t-10.5 -21.5t-13.5 -20.5t-8 -12.5q-61 -102 -92 -184q-25 -67 -25 -89q0 -29 16 -29q4 0 10.5 1.5t9.5 1.5q12 0 12 -13q0 -14 -20 -27.5t-41 -13.5q-44 0 -44 55q0 32 16 78.5t32 81t16 37.5q0 4 -3 4q-11 0 -52 -54 q-64 -74 -203 -199q-57 -54 -98 -54q-39 0 -39 49q0 47 41 143q62 145 162 302q1 1 14 21.5t26.5 42t25 45t11.5 33.5q0 8 -7 8t-14.5 -1t-15 -4t-12.5 -5.5t-12.5 -7.5l-10.5 -7t-11.5 -8t-9.5 -7q-60 -46 -113 -114t-53 -113q0 -17 7.5 -33t7.5 -23q0 -10 -10 -17.5 t-19 -7.5q-15 0 -25.5 17t-10.5 41q0 70 60.5 149t131.5 135q25 19 58 36.5t54 17.5q55 0 55 -48q0 -30 -41.5 -109.5t-92 -160.5t-92 -166.5t-41.5 -125.5q0 -13 8 -13q7 0 18.5 7t26 19t26.5 23t27.5 25.5t21.5 20.5q52 47 114 112q5 5 67.5 68t98.5 106q1 1 8 10t11.5 13 t11 11t13 10t11.5 3z"/>
<glyph glyph-name="V" horiz-adv-x="526" unicode="V" d="M919 822q41 0 41 -46q0 -28 -15 -49q-41 -56 -66 -56q-12 0 -12 9q0 8 14 26q19 23 19 42q0 10 -7 10q-13 0 -44 -27q-355 -314 -709 -740q-41 -50 -61 -50q-13 0 -13 17q0 9 18 67q90 263 140 420q13 40 18 56.5t12 53t10 76.5q0 6 -3 6q-12 0 -57 -56q-55 -69 -65 -134 q-3 -21 -5.5 -32t-10 -21.5t-19.5 -10.5q-24 0 -24 24q0 12 13 51q17 49 48.5 101t68.5 88l6.5 6.5t8.5 8l9 7.5t11 7.5t11.5 5.5t14 4.5t15.5 1.5q32 0 32 -58q0 -84 -49 -225q-12 -37 -41.5 -115t-48.5 -132.5t-19 -69.5q0 -6 3 -6q5 0 13 11q222 270 422 466 q149 147 182 176q3 3 20 18.5t28 24t27.5 20.5t32.5 18t31 6z"/>
<glyph glyph-name="W" horiz-adv-x="724" unicode="W" d="M1139 745q0 -9 -5.5 -17.5t-9.5 -11.5t-17 -10.5t-14 -8.5q-77 -49 -138 -96q-108 -83 -214.5 -189.5t-191.5 -218.5q-58 -77 -112 -174l-3 -7q-4 -7 -7.5 -12.5t-8.5 -12.5t-11 -11t-12 -4q-22 0 -22 31q0 10 6 37q61 287 65 303q2 8 7.5 28.5t9.5 36t4 17.5q0 4 -3 4 q-4 0 -11.5 -6t-23.5 -22l-18 -18q-17 -15 -79 -85q-69 -79 -187 -229q-2 -3 -20.5 -27t-29.5 -39q-1 -2 -10 -15t-14.5 -20.5t-15 -15t-16.5 -7.5q-18 0 -18 18q0 11 22 60q49 111 77 176.5t63 161t56 176.5q14 63 14 82q0 25 -12 25q-27 0 -70 -66t-43 -95 q-13 -46 -30 -46q-21 0 -21 30q0 27 10 50q28 62 77 119t99 57q46 0 46 -70q0 -19 -3.5 -43t-8.5 -44.5t-12.5 -46.5t-12 -40t-11.5 -33.5t-7 -20.5q-38 -113 -84 -219q-7 -15 -7 -19q0 -2 2 -2t11 12t20 28t15 20q9 11 55.5 68.5t74.5 87.5q16 18 54 53t44 41l15.5 15.5 t22 21t21.5 18t24.5 16t21.5 5.5q17 0 17 -22q0 -10 -4 -23.5t-11 -31.5l-7 -17q-17 -54 -43.5 -154.5t-38.5 -142.5l-2 -8q0 -2 2 -2q4 0 47 54q122 167 241 286q133 131 254 218q94 67 118 67t24 -20z"/>
<glyph glyph-name="X" horiz-adv-x="628" unicode="X" d="M851 897q0 -8 -2.5 -16t-5 -14t-8 -15t-8.5 -13t-10 -13t-9 -11q-181 -237 -330 -399q-2 -3 -10.5 -12t-13 -14t-10.5 -12.5t-8.5 -13.5t-2.5 -11q0 -12 12 -62q3 -13 11 -50.5t11.5 -51.5t11.5 -44t14.5 -47.5t16.5 -41t21 -43.5q19 -33 34 -51q5 -7 5 -13 q0 -12 -10 -19.5t-23 -7.5q-6 0 -11.5 2.5t-10.5 7.5t-9 9.5t-8.5 12.5t-7 13l-7 14t-6.5 12q-37 73 -70 208q-2 10 -7 42t-10 51t-12 19q-4 0 -17 -12.5t-29 -30t-21 -22.5q-205 -190 -390 -310q-32 -24 -56 -24q-9 0 -15.5 6.5t-6.5 16.5q0 24 58 52q44 21 95.5 56.5 t78.5 57.5t93.5 79l80.5 69q44 37 110 106q12 12 12 21q0 18 -13.5 86t-15.5 86q-2 15 -4 15q-4 0 -10 -29t-10.5 -70t-4.5 -70q0 -5 1 -16t1 -17q0 -31 -18 -31q-26 0 -26 52q0 44 14.5 114.5t29.5 116.5q1 2 3.5 12.5t5.5 16t10 11.5t17 6q18 0 22.5 -10.5t16.5 -76.5 q1 -4 2.5 -13.5t2.5 -13.5q1 -2 4 -35t8.5 -59.5t12.5 -26.5q8 0 53 51q57 63 116 131q28 33 80.5 96t59.5 71q28 33 82 101q19 27 28 27q12 0 12 -6z"/>
<glyph glyph-name="Y" horiz-adv-x="548" unicode="Y" d="M51 56q-16 0 -25.5 -19.5t-9.5 -43.5q0 -21 26 -21q18 0 23 6t5 27q0 51 -19 51zM606 594q22 0 22 -25q0 -15 -8 -36q-64 -161 -147 -276t-213 -217q-44 -35 -69 -53t-68.5 -38t-79.5 -20q-33 0 -53 17.5t-20 47.5q0 34 27.5 73t61.5 39q25 0 39 -15t16.5 -33.5 t6.5 -33.5t10 -15q10 0 24.5 7t32.5 21t30.5 24.5t30.5 27t22 19.5t12.5 10t13 10.5t8.5 9.5t4 12q0 8 -5.5 23t-6.5 23q-15 75 -15 177q0 103 13 213l7 56q0 6 -2 6q-5 0 -24 -58.5t-23 -79.5q-13 -72 -13 -127q0 -19 4 -59.5t4 -60.5q0 -37 -24 -37q-35 0 -35 138 q0 59 16.5 140.5t46 146.5t60.5 65q44 0 44 -38q0 -13 -5 -53.5t-7 -68.5q-7 -108 -7 -181q0 -109 14 -187q2 -5 4 -5q4 0 11.5 9t18 24t12.5 18q72 89 111 161.5t66 166.5q6 19 12 25.5t20 6.5z"/>
<glyph glyph-name="Z" horiz-adv-x="677" unicode="Z" d="M164 103q0 12 -44.5 40.5t-64.5 28.5q-37 0 -60 -31.5t-23 -75.5q0 -42 36 -42q12 0 24.5 4t33.5 15l21 10q77 35 77 51zM617 559q26 4 50.5 17.5t24.5 22.5q0 4 -7 4q-12 0 -32 -11.5t-36 -32.5zM384 322q17 9 51 54t58 83q3 5 13.5 19.5t17 25.5t6.5 15t-46 32 q-121 76 -181 76q-50 0 -93.5 -27.5t-43.5 -78.5q0 -19 12 -34t31 -15t38 13t27 13q13 0 13 -21q0 -22 -25 -39t-58 -17t-56 29.5t-23 66.5q0 67 51 117t122 50q73 0 206 -81q5 -3 15 -10t16 -11t14 -7.5t14 -3.5q3 0 20.5 19.5t47.5 39t65 19.5q20 0 30 -13t10 -32 q0 -39 -52 -68.5t-100 -29.5q-11 0 -58 -75q-12 -18 -37.5 -51t-33.5 -46q-1 -1 -1 -3q0 -5 15 -5q19 0 60 6.5t65 6.5t24 -16q0 -5 -3 -9.5t-9.5 -8t-12 -6t-15.5 -4.5l-15 -3l-15 -3t-11 -2q-21 -3 -64.5 -8t-54.5 -6q-5 0 -24.5 -21t-49 -53t-48.5 -49q-30 -28 -31 -39 q0 -3 2 -5q25 -32 71.5 -58.5t78.5 -26.5q33 0 75.5 22.5t71.5 47t62.5 55.5t35.5 33q9 8 19 8q7 0 12 -5.5t5 -12.5q0 -8 -14 -22q-175 -175 -275 -175q-68 0 -135 48q-4 3 -22.5 17t-28.5 20.5t-15 6.5q-9 0 -43 -22t-77.5 -43.5t-76.5 -21.5q-40 0 -63 22t-23 56 q0 62 40.5 117.5t87.5 55.5q32 0 69 -21t62.5 -42.5t31.5 -21.5q5 0 11 3.5t14 10.5t13.5 12t14.5 14.5t11 11.5q43 41 63 71q-4 2 -15 2q-10 0 -35 -3t-37 -3q-36 0 -36 24q0 30 45 30q4 0 12.5 -0.5t13.5 -0.5q65 0 93 7z"/>
<glyph glyph-name="bracketleft" horiz-adv-x="320" unicode="[" d="M478 715q0 -23 -40 -23q-11 0 -33.5 2t-32.5 2q-14 0 -22 -3q-10 -4 -17.5 -19t-15 -42t-9.5 -33q-182 -516 -214 -602q-2 -5 -13.5 -30t-20 -46t-8.5 -30q0 -6 4 -6q42 3 74 3q89 0 89 -26q0 -18 -18 -18q-5 0 -31 3.5t-47 3.5q-33 0 -61 -6q-37 -8 -50 -8q-32 0 -32 26 q0 10 12.5 20.5t15.5 15.5q5 8 10 27.5t8 26.5q30 77 64 170.5t56.5 159t62 180.5t57.5 168q2 5 7 22.5t9 29t11.5 25.5t18 21.5t24.5 7.5q6 0 29 0.5t37 0.5h3q73 0 73 -23z"/>
<glyph glyph-name="backslash" horiz-adv-x="352" unicode="\" d="M111 637q47 -189 98.5 -342t132.5 -352q2 -11 -4.5 -18.5t-15.5 -7.5q-10 0 -17 9q-65 160 -95.5 238.5t-72.5 206.5t-74 257q-1 10 7 16t18 6q16 0 23 -13z"/>
<glyph glyph-name="bracketright" horiz-adv-x="320" unicode="]" d="M349 670q0 -17 -20 -70q-98 -268 -242 -679q-3 -8 -8 -26t-9 -28t-11 -23t-17 -19.5t-23 -7.5q0 -2 -2 -2h-3q-11 0 -62.5 -5.5t-74.5 -5.5q-40 0 -40 15q0 20 33.5 27t77.5 8t55 5q10 4 17.5 19t15 42t9.5 33q182 516 214 602q24 62 24 98q0 14 -6 14q-8 1 -24 1 q-17 0 -48 -2t-42 -2q-35 0 -35 13q0 4 1 6q6 15 41 19.5t121 4.5q58 0 58 -37z"/>
<glyph glyph-name="asciicircum" horiz-adv-x="490" unicode="^" d="M289 544q-68 -92 -148 -142l-19 -13q-18 -13 -30.5 -19t-21.5 -6q-8 0 -13.5 6.5t-5.5 14.5q0 14 16 24q33 20 52.5 32.5t52 36.5t57 49.5t42.5 53.5q2 3 9.5 21t16 29t17.5 11q16 0 19 -20q0 -3 -1 -11.5t-1 -16.5q0 -56 25.5 -119.5t62.5 -83.5q15 -8 15 -22 q0 -11 -9.5 -19.5t-22.5 -8.5q-8 0 -15 3q-38 15 -68 73.5t-30 117.5v9z"/>
<glyph glyph-name="underscore" horiz-adv-x="394" unicode="_" d="M338 -73q0 -18 -30 -24q-110 -21 -359 -21h-67q-15 0 -15 14q0 8 7 14t19 6h26q141 0 385 28q2 0 4 0.5t4 0.5q26 0 26 -18z"/>
<glyph glyph-name="grave" horiz-adv-x="162" unicode="`" d="M82 595q9 -60 38 -116q3 -6 3 -11q0 -8 -5.5 -14.5t-13.5 -6.5t-16 8q-18 18 -37.5 59.5t-19.5 67.5q0 13 9.5 21t21.5 8q17 0 20 -16z"/>
<glyph glyph-name="a" horiz-adv-x="515" unicode="a" d="M11 147q-2 -1 -7 -1q-9 0 -16 5.5t-7 13.5q0 9 10 18q33 31 84 71q7 6 27 22t28.5 22.5t26 19.5t29 19t27.5 13.5t30 10.5t29 3q9 0 15 -6.5t6 -14.5q0 -17 -36 -43q-24 -18 -81.5 -47.5t-68.5 -39.5q-21 -19 -40.5 -60t-19.5 -72q0 -42 39 -42q46 0 109.5 62t83.5 110 q19 46 54 97t65 51q21 0 21 -23q0 -20 -45 -73t-62 -88q-28 -59 -28 -95q0 -38 32 -38q20 0 49 16q17 10 52.5 42.5t64.5 60t34 27.5q7 0 13 -6t6 -13q0 -15 -78 -85t-118 -84q-24 -8 -39 -8q-32 0 -45.5 19t-16.5 46t-4 30l-4 -3q-30 -35 -77 -66t-83 -31q-39 0 -58 23.5 t-19 60.5q0 34 17 73z"/>
<glyph glyph-name="b" horiz-adv-x="477" unicode="b" d="M537 690q0 5 -7 5q-19 0 -68.5 -29t-85.5 -56q-68 -52 -127.5 -117.5t-88.5 -120.5q-7 -14 -7 -21q0 -6 5 -6q7 0 19 8q163 97 262 196q28 28 63 73t35 68zM338 230q-2 -22 -2 -40v-10t0.5 -11.5t0.5 -11t1 -10.5t2 -9.5t3 -9t4 -6.5t5.5 -4.5t7.5 -1.5q36 0 104 66 q5 5 13 5q7 0 12.5 -4.5t5.5 -12.5q0 -12 -9 -20q-85 -76 -138 -76q-15 0 -25 7.5t-15.5 23.5t-7.5 26.5t-4 28.5q-2 6 -4 6q-4 0 -11.5 -10t-16.5 -24t-13 -19q-96 -118 -169 -118q-53 0 -53 91q0 29 6 71q1 11 -1 11q-1 0 -20 -17q-7 -5 -13 -5q-8 0 -14.5 6.5t-6.5 14.5 q0 7 7 13q21 16 41.5 38t24.5 33q63 185 226 335q60 56 140.5 106.5t133.5 50.5q34 0 34 -33q0 -32 -29 -85q-25 -44 -65.5 -86.5t-99.5 -85.5t-102 -70.5t-115 -70.5q-49 -29 -70 -83q-24 -62 -24 -134q0 -21 3 -39q1 -10 16 -10q68 0 183 187q16 81 56 81q18 0 18 -22 q0 -28 -20 -62z"/>
<glyph glyph-name="c" horiz-adv-x="324" unicode="c" d="M283 315q0 -34 -22.5 -66.5t-49.5 -32.5q-8 0 -15.5 5.5t-7.5 12.5q0 20 20 42.5t20 32.5q0 15 -14 15q-67 0 -126 -68.5t-59 -139.5q0 -64 65 -64q84 0 217 130q4 4 11 4q8 0 14 -5t6 -13t-6 -15q-37 -45 -107 -91q-92 -62 -153 -62q-49 0 -76 34.5t-27 87.5 q0 52 36 109.5t93.5 96.5t114.5 39q66 0 66 -52z"/>
<glyph glyph-name="d" horiz-adv-x="391" unicode="d" d="M294 629q-19 37 -58 60.5t-86 23.5q-126 0 -224 -126q-21 -33 -42 -33q-8 0 -14 5.5t-6 14.5q0 18 18 44t31 39q105 101 233 101q116 0 174 -78.5t58 -196.5q0 -102 -43.5 -215.5t-120 -194.5t-157.5 -81q-55 0 -55 66q0 47 22 89q2 4 2 5q0 2 -2 2q-1 0 -9 -3t-14 -3 q-7 0 -13.5 5t-6.5 13q0 13 17 25q121 95 156 118q1 1 12.5 7.5t18.5 10t18 7.5t18 4q18 0 18 -22q0 -13 -12.5 -25.5t-25 -19.5t-33.5 -16t-23 -10q-23 -12 -57.5 -79t-34.5 -105q0 -24 18 -24q37 0 81 38.5t70.5 78t42.5 71.5q62 129 62 254q0 88 -33 150z"/>
<glyph glyph-name="e" horiz-adv-x="330" unicode="e" d="M192 340q-31 0 -76 -46t-57 -77q-2 -6 -2 -7q0 -7 9 -7q27 0 83.5 43t56.5 73q0 21 -14 21zM264 327q0 -23 -9.5 -42t-32 -36.5t-37.5 -27t-49.5 -27.5t-45.5 -24q-8 -4 -24 -10.5t-26 -11.5t-11 -9q-2 -16 -2 -22q0 -40 23 -58.5t54 -18.5q72 0 212 140q6 6 14 6 t13.5 -5.5t5.5 -13.5q0 -9 -7 -16q-51 -52 -82.5 -80t-79 -52t-95.5 -24q-54 0 -83 37t-29 88q0 77 76 171t154 94q25 0 43 -15.5t18 -42.5z"/>
<glyph glyph-name="f" horiz-adv-x="440" unicode="f" d="M159 177q-37 -48 -111 -176t-102 -193q-19 -41 -19 -49q0 -2 2 -2q3 0 30 25q34 32 104 111.5t104 124.5q27 36 33 58v2q1 3 1 4q0 3 -4 6t-10.5 8t-11.5 11q-7 11 -10 29t-3.5 30t-1.5 12zM264 229q-23 0 -39 -21.5t-16 -48.5q0 -12 8 -23t18 -11q4 0 6 1q6 3 23 34.5 t17 50.5q0 18 -17 18zM448 684q14 0 14 -16q0 -14 -13 -31q-134 -180 -236 -353q-7 -12 -7 -18q0 -5 4 -5q2 0 5.5 2t11 5t16.5 5q18 5 41 5q22 0 35.5 -13t13.5 -36q0 -35 -22 -72q-21 -38 -21 -41q0 -4 8 -4q22 0 50 14q11 4 24 12t21.5 14.5t19 16t11.5 10.5q8 7 17 7 q16 0 16 -19q0 -9 -5 -14q-12 -14 -55 -41.5t-64 -34.5q-7 -2 -34 -7.5t-39 -10.5q-6 -2 -14 -8.5t-17.5 -16.5t-16 -18t-17 -20.5t-13.5 -16.5q-27 -34 -79.5 -95t-123.5 -130.5t-95 -69.5q-19 0 -19 27q0 12 5 30t10.5 31.5t12.5 29.5t8 18q60 141 286 500q15 24 15 30 q0 2 -2 2q-4 0 -26 -25q-3 -3 -35 -39.5t-67 -75t-55 -57.5q-7 -6 -15 -6t-13.5 5.5t-5.5 12.5q0 9 9 19q176 184 419 474q20 24 37 24z"/>
<glyph glyph-name="g" horiz-adv-x="446" unicode="g" d="M94 -56q-37 0 -159.5 -89t-151.5 -143q-2 -3 -8.5 -13.5t-11 -19t-4.5 -13.5q0 -9 10 -9q17 0 52 19q124 59 245 214q6 6 19 24t13 26q0 4 -4 4zM194 324q0 4 -5 4q-16 0 -47.5 -30t-33.5 -44q0 -3 3 -3q12 0 47.5 31t35.5 42zM386 387q17 0 17 -19q0 -22 -26 -64 q-11 -18 -50 -84.5t-62 -103.5q-5 -5 -16.5 -22.5t-11.5 -26.5q0 -6 7 -6q22 0 88 42t98 75q9 9 17 9q7 0 12 -5.5t5 -13.5q0 -10 -7 -17q-31 -31 -86.5 -65.5t-112 -63.5t-69.5 -38t-25 -22.5t-25 -34.5t-18 -28q-40 -55 -62.5 -83t-63 -70t-89 -72.5t-111.5 -57.5 q-36 -17 -68 -17q-26 0 -26 22q0 24 23 67q81 150 355 294q6 3 24 11.5t23.5 12t18 13t22 22t22.5 31.5q36 54 36 67q0 2 -2 2q-13 0 -72 -52q-76 -66 -124 -66q-23 0 -40 16.5t-17 49.5q0 92 89 191q100 111 183 111q28 0 28 -19q0 -17 -34 -57q-52 -59 -141 -121 q-4 -3 -19.5 -12.5t-20.5 -14.5t-14.5 -15.5t-13 -23.5t-3.5 -30q0 -25 14 -25q11 0 33.5 11.5t34.5 19.5q75 52 129 109t114 141q2 2 6.5 9t6.5 9.5t6.5 7t8.5 6t9 1.5z"/>
<glyph glyph-name="h" horiz-adv-x="654" unicode="h" d="M496 684q0 -14 -20 -44q-186 -275 -281 -456q-1 -1 -1 -4t2 -3q5 0 19 10.5t34.5 28.5t22.5 20q4 3 22 18t26.5 22t26.5 20.5t30.5 20t29.5 15t33 12t31 3.5q42 0 42 -43q0 -39 -38.5 -113.5t-38.5 -111.5q0 -24 24 -24q29 0 84.5 42t95.5 83q7 7 15 7q7 0 12.5 -5.5 t5.5 -13.5q0 -9 -7 -16q-69 -66 -122.5 -103t-97.5 -37q-63 0 -63 63q0 37 33.5 107t33.5 93q0 14 -13 14q-36 0 -152.5 -95t-169.5 -154q-3 -3 -12.5 -16.5t-17.5 -21t-16 -7.5q-19 0 -19 19q0 12 8.5 27t19.5 30t12 17q20 36 63.5 117.5t74.5 136.5q33 60 33 62q0 1 -1 1 q-2 0 -19 -18q-144 -165 -228 -235q-8 -6 -14 -6q-17 0 -17 19q0 11 9 20q102 96 235 240t216 249q20 25 38 25q7 0 11.5 -4.5t4.5 -10.5z"/>
<glyph glyph-name="i" horiz-adv-x="278" unicode="i" d="M11 151q-3 -2 -10 -2q-8 0 -14 5.5t-6 13.5q0 9 8 15q28 23 63 58t37 36q6 6 24.5 23.5t30.5 28t30.5 20.5t35.5 10q22 0 22 -23q0 -26 -26 -71q-38 -68 -70 -132q-1 -3 -8 -17t-11.5 -25t-4.5 -19q0 -11 9 -11q13 0 41 24q28 22 102 96q6 6 14 6t13.5 -5.5t5.5 -13.5 q0 -9 -8 -17q-11 -10 -39.5 -37t-50.5 -47t-39 -34q-2 -1 -10.5 -8t-13.5 -10.5t-13 -8t-16 -7t-16 -2.5q-35 0 -35 37q0 14 3 28q4 18 16 44t32.5 65t27.5 55q17 34 17 42q0 6 -4 6q-5 0 -15 -10q-19 -15 -63.5 -58.5t-58.5 -54.5zM236 574q24 0 24 -28q0 -20 -15 -53.5 t-32 -33.5q-11 0 -11 10q0 3 2 17.5t2 25.5q0 4 -1.5 13.5t-1.5 14.5q0 14 10.5 24t22.5 10z"/>
<glyph glyph-name="j" horiz-adv-x="247" unicode="j" d="M213 393q18 0 18 -23q0 -20 -13 -42q-3 -6 -29.5 -53.5t-34 -60.5t-31 -54t-36 -61t-32.5 -52.5t-37 -58t-35 -49.5q-70 -95 -151 -169.5t-159 -98.5q-42 -13 -47 -13q-14 0 -14 11q0 5 4.5 9.5t9 6.5t12.5 4.5t9 3.5q61 23 124.5 76t118.5 123t97 133t80 131 q52 92 52 95l-2 1q-2 0 -14 -13q-8 -9 -39.5 -38t-50.5 -49q-4 -4 -10 -4q-8 0 -15 6t-7 14t8 15t61 55t82.5 77.5t43.5 49.5q19 28 37 28zM241 593q25 0 25 -28q0 -24 -17.5 -51t-33.5 -27q-12 0 -12 27q0 26 11.5 52.5t26.5 26.5z"/>
<glyph glyph-name="k" horiz-adv-x="541" unicode="k" d="M255 185q11 0 22.5 -7.5t14.5 -17.5q5 -17 5 -43q0 -2 -0.5 -10.5t-0.5 -15.5q0 -59 25 -59q22 0 62 25.5t70 53.5q56 52 70 66q9 9 20 9q7 0 12.5 -5t5.5 -12q0 -8 -7 -15q-110 -110 -179 -149q-57 -31 -81 -31q-21 0 -35 15t-14 68v40q0 49 -17 49q-9 0 -17.5 -6 t-20 -18.5t-13.5 -14.5q-39 -37 -116 -118q-1 -1 -10.5 -11.5t-14 -14t-14 -8.5t-17.5 -5q-26 0 -26 18q0 8 7.5 21t19 29t15.5 25q20 41 125.5 237.5t150.5 314.5q39 102 63 102q8 0 13 -9t5 -18t-3.5 -22.5t-10 -30t-11.5 -29t-14 -31.5t-12 -26q-37 -81 -115.5 -228.5 t-107.5 -207.5q8 0 19 10.5t23 25.5t15 18q136 133 190 182l9 7q9 8 15 13t15.5 11.5t18.5 10t16 3.5q9 0 15 -8t6 -19q0 -16 -11.5 -31.5t-25.5 -24.5q-18 -11 -38 -11q-5 0 -7 2q-44 -28 -109 -99z"/>
<glyph glyph-name="l" horiz-adv-x="366" unicode="l" d="M444 671q15 0 15 -16q0 -18 -18 -40q-107 -133 -201.5 -292t-94.5 -238q0 -35 26 -35q46 0 178 127q8 8 18 8q7 0 12.5 -5.5t5.5 -12.5q0 -10 -8 -17q-157 -151 -220 -151q-32 0 -48 21.5t-16 58.5q0 39 28 110.5t85 161.5q6 11 6 14q0 2 -2 2q-5 0 -12 -10 q-35 -44 -100.5 -116.5t-83.5 -88.5q-8 -6 -14 -6q-8 0 -13.5 6t-5.5 14q0 9 8 17q239 246 406 454q27 34 49 34z"/>
<glyph glyph-name="m" horiz-adv-x="833" unicode="m" d="M398 119q30 24 106 94t110 97q65 51 104 51q18 0 29.5 -14t11.5 -33q0 -17 -7 -37t-22.5 -44.5t-27 -41.5t-33.5 -45.5t-29 -38.5q-34 -45 -34 -65q0 -6 6 -6q11 0 68 38q73 47 142 109q5 4 12 4q8 0 13.5 -5t5.5 -13t-6 -14q-75 -83 -182 -140q-46 -26 -76 -26 q-39 0 -39 37q0 28 23 68q8 14 62.5 92t60.5 110q2 8 -5 8q-24 0 -107 -73q-122 -111 -235 -204q-34 -24 -46 -24q-7 0 -12 5.5t-5 13.5t4 18t7.5 16t11.5 18l10 15q3 5 20 29.5t27.5 42t24.5 41.5t21.5 44.5t7.5 35.5q0 14 -12 14q-33 0 -134 -84q-43 -36 -113 -101.5 t-103 -93.5q-19 -19 -36 -19q-5 0 -9.5 4.5t-4.5 10.5q0 8 6.5 19t17.5 24.5t12 15.5q68 91 99 148q32 59 32 67q0 3 -3 3q-13 0 -62 -44q-15 -13 -49 -47t-50 -48q-6 -3 -11 -3q-18 0 -18 19q0 9 5 15q16 14 59 55.5t76.5 71t55.5 41.5q20 11 37 11q13 0 21 -10t8 -25 q0 -24 -19 -53q-9 -15 -17.5 -28.5t-19 -31.5l-17.5 -30q13 6 32.5 21.5t45 38.5t35.5 31q83 67 139 67q23 0 37 -16t14 -40q0 -18 -8.5 -42t-18.5 -41t-26.5 -44.5t-22.5 -38.5z"/>
<glyph glyph-name="n" horiz-adv-x="618" unicode="n" d="M635 156q-118 -112 -164 -138q-45 -26 -82 -26q-22 0 -37 14.5t-15 37.5q0 27 16 66q4 9 26 50.5t39.5 80t17.5 54.5t-14 16q-31 0 -137 -81q-76 -58 -195 -182q-2 -2 -12 -14t-16.5 -18.5t-16.5 -13t-19 -6.5q-16 0 -16 16q0 7 5 16.5t10.5 17t13.5 17t10 11.5 q95 125 124 236q-7 -1 -14 -6.5t-11 -9t-12.5 -13t-10.5 -11.5q-70 -82 -113 -118q-7 -5 -12 -5q-7 0 -13 6.5t-6 14.5q0 9 7 15q45 37 143 157q46 59 77 59q14 0 22 -10.5t8 -26.5q0 -36 -29 -98l-13 -24q-13 -24 -13 -36q0 -1 0.5 -2.5t0.5 -2.5q13 5 30.5 19.5t42 37.5 t34.5 32q79 67 135 67q30 0 51 -14.5t21 -44.5q0 -36 -25 -84t-50 -89t-25 -59q0 -21 18 -21q17 0 45 17q57 35 144 121q6 6 14 6t13.5 -6t5.5 -14q0 -5 -3 -11z"/>
<glyph glyph-name="o" horiz-adv-x="379" unicode="o" d="M256 364q31 0 47 -24t16 -58q0 -62 -36.5 -130.5t-98.5 -116.5t-126 -48q-39 0 -56 29.5t-17 69.5q0 10 3 27t3 23t-5 14t-5 16t6 15t18 15.5t18 15.5q12 13 30 36t36.5 41.5t46.5 36.5q31 17 40 17q15 0 15 -20q0 -40 -79 -97q-76 -55 -76 -143q0 -20 11.5 -33.5 t29.5 -13.5q63 0 129 83.5t66 152.5q0 26 -22 33q-26 9 -26 29q0 13 9 21.5t23 8.5z"/>
<glyph glyph-name="p" horiz-adv-x="548" unicode="p" d="M171 306q-5 -1 -10.5 -3.5t-10.5 -7t-8 -8t-8.5 -10.5t-7.5 -9q-36 -42 -110 -112q-7 -7 -15 -7t-13.5 5.5t-5.5 13.5t7 15q82 76 137 150q4 5 13 18.5t14 19t13 13.5t16 11t18 3q30 0 30 -37q0 -17 -13.5 -54t-13.5 -46q0 -5 4 -5t23 14.5t41 33t28 22.5q75 49 118 49 q74 0 74 -71q0 -63 -46 -139t-112 -128.5t-121 -52.5q-61 0 -61 40q0 21 15 38.5t43.5 29t51 18t55.5 13t39 8.5q33 35 55 77t22 70q0 20 -11 30t-26 10q-47 0 -114 -54q-82 -65 -131 -124.5t-95 -142.5q-110 -193 -164 -339q-4 -11 -10.5 -44.5t-15 -53.5t-24.5 -20 q-24 0 -24 32q0 29 14 68q26 78 72.5 173.5t75.5 145t94 159.5q8 14 26.5 43t29.5 47t23.5 45t18.5 53zM306 78h-5q-25 0 -55.5 -13t-30.5 -27q0 -7 9 -7q16 0 46.5 17.5t35.5 29.5z"/>
<glyph glyph-name="q" horiz-adv-x="492" unicode="q" d="M210 348q0 3 -4 3q-7 0 -20.5 -7.5t-20.5 -15.5q-19 -19 -42 -51q-7 -8 -7 -11q0 -2 2 -2q11 0 51.5 36.5t40.5 47.5zM411 310q0 -24 -37 -82q-29 -46 -50.5 -85t-49 -92.5t-39.5 -75.5q-23 -46 -23 -49q0 -5 4 -5q9 0 17 12q77 89 119 131q14 14 35 33.5t49 45t43 39.5 q7 6 14 6t12.5 -6t5.5 -14q0 -10 -8 -17q-157 -141 -243 -237q-121 -135 -211 -286q-17 -34 -32 -34q-17 0 -17 18q0 16 21 62q15 34 34 70t44 81t36 65q17 31 55 95t61 111q15 22 15 37q0 5 -6 5q-12 0 -63 -39q-74 -56 -103 -69q-39 -16 -71 -16q-26 0 -45 15t-19 41 q0 14 7 44q32 110 164 232q63 57 114 57q37 0 37 -28q0 -14 -11 -33q-8 -15 -23 -29.5t-26.5 -23.5t-33 -24t-29.5 -21q-50 -37 -60 -44q-52 -34 -60 -46q-8 -11 -16.5 -32.5t-8.5 -36.5q0 -25 26 -25q21 0 51.5 14t44.5 24q106 66 211 200l6 9q7 9 10.5 13t11 8.5t14.5 4.5 q9 0 16 -6.5t7 -16.5z"/>
<glyph glyph-name="r" horiz-adv-x="433" unicode="r" d="M16 156q-8 -7 -17 -7q-18 0 -18 17q0 8 5 14q20 18 54 65.5t48 81.5q5 11 12 32t11.5 32t13.5 20t20 9q21 0 39.5 -19t30 -41t27 -41t31.5 -19q3 0 25.5 13t35.5 13q9 0 16 -6.5t7 -16.5q0 -28 -71 -61q-16 -8 -60 -70.5t-44 -99.5q0 -15 10 -24.5t26 -9.5q60 0 196 137 l8 8q7 4 13 4q7 0 12.5 -5.5t5.5 -12.5q0 -9 -9 -18q-3 -2 -46 -42t-65 -57.5t-63.5 -38t-76.5 -20.5q-67 0 -67 67q0 42 28.5 97.5t78.5 106.5q0 4 -9 11t-24.5 21.5t-25.5 32.5q-11 19 -20 19q-11 0 -29 -44q-14 -34 -47.5 -78t-61.5 -70z"/>
<glyph glyph-name="s" horiz-adv-x="350" unicode="s" d="M165 80q-10 0 -39 -12t-37 -19q-40 -32 -40 -57q0 -28 39 -28q24 0 48 15q35 24 35 82q0 19 -6 19zM280 436q0 -24 -32 -56t-38 -49q-4 -12 -4 -32q0 -4 6 -70q0 -3 1.5 -30.5t4.5 -41.5q4 -19 19 -19q20 0 50.5 13t45.5 28q11 9 18 9q8 0 13.5 -6.5t5.5 -15.5 q0 -7 -6 -13q-16 -16 -50 -31t-52 -19q-35 -9 -40 -16q-6 -11 -7.5 -32.5t-2.5 -25.5q-10 -47 -44 -76q-36 -30 -85 -30q-33 0 -56.5 16.5t-23.5 47.5q0 39 33 70t72 46q53 19 58 30q4 11 4 32q0 16 -2 42q-5 46 -5 48q0 1 -1 4t-1.5 6t-2.5 5.5t-4 2.5q-6 0 -14 -6 t-19.5 -17.5l-12.5 -12.5q-50 -47 -94 -83q-8 -6 -16 -6q-7 0 -12 4.5t-5 11.5q0 10 10 19t40 35.5t52.5 47.5t37.5 38q31 34 39 53q3 9 7 28t8 27q22 47 74 47q31 0 31 -23z"/>
<glyph glyph-name="t" horiz-adv-x="386" unicode="t" d="M85 349l53 6q27 3 84 57q13 12 49.5 59t42.5 53q10 10 19 10q13 0 13 -15q0 -13 -15 -34q-8 -14 -27 -43.5t-30.5 -48t-11.5 -23.5q0 -6 14 -6q10 0 53 8.5t55 8.5q20 0 20 -22q0 -9 -10 -15t-28 -9.5t-35.5 -6t-40 -5t-34.5 -4.5q-29 -6 -39 -20q-36 -47 -71.5 -122 t-35.5 -112q0 -20 9 -27.5t27 -7.5q69 0 210 135q22 22 30 22t14 -6t6 -14q0 -7 -13 -20q-31 -31 -53 -50.5t-62 -51t-78 -48t-72 -16.5q-30 0 -47 23t-17 58q0 65 78 200q2 3 9 14.5t12.5 21t5.5 10.5q0 2 -2 2q-7 0 -28 -27l-14 -16q-14 -16 -31.5 -35t-40 -42t-39.5 -37 q-7 -5 -12 -5q-8 0 -14.5 6.5t-6.5 14.5t7 14q52 45 110 110q7 7 7 11q0 6 -23 6q-17 0 -17 18q0 19 20 21z"/>
<glyph glyph-name="u" horiz-adv-x="571" unicode="u" d="M104 208l5 10q16 32 16 37q0 2 -2 2q-12 0 -93 -90q-3 -5 -13 -12.5t-18 -7.5q-7 0 -12 6.5t-5 14.5q0 12 26 34q70 65 141 149q1 1 10.5 13t15.5 19t16 14t18 7q22 0 22 -29q0 -25 -18 -65q-9 -19 -37.5 -73t-42.5 -89q-23 -58 -23 -87q0 -11 10 -11q28 0 93 62 q69 63 166 176q2 2 10.5 12.5t15 17.5t15.5 15.5t18.5 13t18.5 4.5q25 0 25 -28q0 -19 -13 -47q-33 -67 -56 -120q-33 -77 -33 -100q0 -10 10 -10q21 0 51 24q19 15 63.5 59t49.5 49q10 10 18 10q7 0 12.5 -6t5.5 -13q0 -11 -9 -20q-11 -10 -42 -40t-54.5 -51.5t-43.5 -35.5 q-43 -32 -66 -32q-50 0 -50 48q0 30 24 90q4 11 14 32t17 38.5t9 31.5q-11 -5 -23 -16t-27 -29t-20 -23q-46 -50 -120 -114q-2 -2 -10.5 -9.5t-12 -10.5t-11 -9t-13 -9t-13.5 -6.5t-15.5 -5t-15.5 -1.5q-24 0 -37.5 18t-13.5 50q0 47 47 143z"/>
<glyph glyph-name="v" horiz-adv-x="509" unicode="v" d="M415 370q-25 0 -41.5 -40t-16.5 -76q0 -18 4 -18q10 0 39 46t29 72q0 16 -14 16zM338 139q-48 -50 -117 -99t-114 -49q-33 0 -33 42q0 46 45 153.5t45 112.5q0 3 -2 3q-5 0 -33.5 -30.5t-63 -68.5t-48.5 -49q-8 -7 -17 -7t-14.5 5.5t-5.5 13.5q0 10 8 15q46 35 163 183 q22 28 48 28q15 0 25 -11t10 -32q0 -11 -3 -24q-4 -21 -52 -133.5t-48 -136.5q0 -10 8 -10q29 0 92 48.5t84 83.5q-10 28 -10 67q0 34 11.5 71.5t39 68t65.5 30.5q17 0 34.5 -12t17.5 -38q0 -65 -57 -134q-32 -39 -33 -44l-1 -2v-2q0 -10 14 -16t29 -6q46 0 78 27q3 3 8 3 q8 0 14.5 -7t6.5 -16q0 -8 -7 -14q-45 -36 -108 -36q-48 0 -79 22z"/>
<glyph glyph-name="w" horiz-adv-x="710" unicode="w" d="M602 362q-25 0 -44.5 -42t-19.5 -85q0 -34 13 -48q0 -1 2 -1q10 0 47 64q29 48 29 83q0 29 -27 29zM590 159q10 -8 28 -8q21 0 44 9t35 23q5 5 11 5q8 0 15.5 -6t7.5 -14q0 -7 -7 -14q-39 -40 -123 -40h-39q-9 0 -49.5 -32t-94.5 -64.5t-96 -32.5q-32 0 -32 39 q0 26 24 95q1 4 8 20.5t11.5 30.5t4.5 22q0 4 -2 4q-5 0 -46 -52.5t-94 -105t-87 -52.5q-31 0 -31 41q0 33 16 76q9 24 58 136q23 55 23 64q0 6 -4 6q-3 0 -11 -6q-23 -18 -72.5 -74t-74.5 -76q-5 -5 -13 -5t-13.5 5.5t-5.5 12.5q0 10 11 18q31 24 76 79.5t81.5 93.5 t64.5 38q12 0 21.5 -10t9.5 -28q0 -23 -15 -64q-14 -38 -42.5 -97.5t-43.5 -98.5q-11 -30 -11 -37q0 -9 8 -9q15 0 45 30q45 44 112.5 136.5t101.5 131.5q27 30 44 31q19 0 19 -23q0 -27 -21 -62q-57 -112 -74 -162q-24 -72 -24 -86q0 -13 8 -13q26 0 91 41t65 60 q0 9 -13 38.5t-13 54.5q0 65 39 123.5t102 58.5q26 0 41.5 -18t15.5 -48q0 -49 -55 -130q-32 -46 -35 -55z"/>
<glyph glyph-name="x" horiz-adv-x="496" unicode="x" d="M162 300q-8 0 -23 -21q-15 -23 -46 -107q-7 -19 -22 -53t-24.5 -58t-9.5 -31q0 -4 2 -4q5 0 14 6t21 18t20.5 21t21 22.5t13.5 14.5q4 5 15 16t18.5 19.5t16.5 18.5t13.5 18t4.5 13t-4 19q-1 5 -5 20.5t-6.5 24.5t-6 20.5t-7 17t-6.5 5.5zM240 239q32 20 81 90t49 102 q0 9 -18 13q-1 0 -6.5 0.5t-8 0.5t-7 1.5t-6.5 3.5t-4 5.5t-2 8.5q0 31 60 31q20 0 33.5 -11t13.5 -32q0 -29 -30 -80q-30 -55 -94 -132q-5 -6 -17 -17t-19.5 -20.5t-7.5 -17.5q0 -22 18.5 -74.5t38.5 -52.5q19 0 57 27t64 50.5t47 44.5q9 9 18 9q16 0 16 -21q0 -10 -7 -16 q-10 -8 -45.5 -40.5t-60.5 -53t-58 -39.5t-56 -19q-42 0 -74 130q-10 -5 -21.5 -15t-29.5 -28l-21 -21q-81 -79 -130 -114q-3 -2 -13.5 -10.5t-17 -14t-16 -10t-16.5 -4.5t-13.5 5t-6.5 13t6 19t18 27.5t15 20.5q24 37 42 74q49 98 69 158q1 4 9 29.5t13 37.5t14.5 30 t22.5 26.5t29 8.5q18 0 31 -14t18 -29t12.5 -42.5t10.5 -37.5z"/>
<glyph glyph-name="y" horiz-adv-x="439" unicode="y" d="M376 292l-50 -74q-164 -243 -258 -355q-274 -327 -526 -335h-13q-65 0 -125.5 30.5t-61.5 76.5q0 6 5.5 9.5t10.5 -1.5q78 -72 206 -72q257 0 621 513q2 2 10 14.5t8 17.5q0 4 -3 4q-1 0 -58 -33q-66 -37 -102 -37q-33 0 -48 20t-15 69q0 28 27 83.5t62 101t56 45.5 q12 0 18.5 -6t6.5 -15q0 -12 -31.5 -56t-62.5 -93.5t-31 -74.5q0 -29 29 -29q39 0 128 66t127 117q3 4 19 34t33.5 51t33.5 21q9 0 16 -7t7 -15q0 -15 -39 -70z"/>
<glyph glyph-name="z" horiz-adv-x="372" unicode="z" d="M314 370q0 -12 -10.5 -24.5t-26.5 -25t-20 -17.5q-6 -7 -25.5 -28t-26.5 -29q-24 -32 -24 -42q0 -14 13 -20.5t32.5 -11t26.5 -8.5q30 -19 30 -56q0 -30 -22 -71q-59 -108 -162.5 -192.5t-223.5 -130.5q-34 -14 -63 -14q-33 0 -33 28q0 41 71.5 118t134.5 115 q25 17 40 17q8 0 14 -6t6 -15q0 -17 -37 -39q-63 -32 -129 -98q-41 -41 -41 -60q0 -8 11 -8q15 0 42 12q51 23 128 80t144.5 135t67.5 134q0 14 -15 22.5t-33.5 12.5t-33.5 15t-15 28q0 21 39 75q20 29 65 74l1 1q0 3 -19 3q-30 0 -42 -5q-2 -1 -37 -51q-38 -53 -124 -132 q-8 -8 -17 -8q-7 0 -12.5 5.5t-5.5 13.5q0 9 9 18q64 56 106 111q35 44 35 60q0 4 -3.5 13t-3.5 15q0 18 25 18q8 0 25.5 -5t29.5 -5t37 2.5t35 2.5q37 0 37 -27z"/>
<glyph glyph-name="braceleft" horiz-adv-x="320" unicode="{" d="M151 294q11 -20 11 -51q0 -23 -11.5 -54.5t-34 -76.5l-25.5 -51q-33 -77 -33 -116q0 -42 36 -42q17 0 44.5 17.5t36.5 17.5q7 0 12 -5t5 -11q0 -14 -21.5 -30t-37.5 -23q-23 -11 -49 -11q-34 0 -54.5 23.5t-20.5 63.5q0 15 2.5 30t9.5 33t10 26t13.5 29t10.5 22 q2 4 21.5 42t25.5 52q21 42 21 67q0 9 -3 15q-5 0 -17 -1.5t-18 -1.5q-13 0 -25.5 9t-12.5 23q0 23 25 33q7 3 14 3q5 0 14.5 -2t13.5 -2q1 0 3 0.5t3 0.5q16 3 33.5 23.5t28.5 44.5q12 26 23 84.5t20 106.5t36.5 89t72.5 48q4 1 12 1q37 0 56 -17q8 -8 16 -27t8 -34 q0 -21 -16 -21q-10 0 -17 9t-9.5 20t-8.5 20t-15 9q-24 0 -42.5 -16.5t-29 -45.5t-17 -54t-11.5 -58.5t-7 -41.5q-20 -86 -52 -128q-8 -11 -27 -24.5t-23 -16.5z"/>
<glyph glyph-name="bar" horiz-adv-x="272" unicode="|" d="M314 732q21 0 21 -25q0 -14 -6.5 -35t-16.5 -44.5t-10 -24.5q-44 -119 -128.5 -355.5t-126.5 -352.5l-3 -8q-3 -8 -4.5 -11t-4.5 -8.5t-6.5 -7.5t-8.5 -2q-3 0 -5 1q-11 3 -11 19q0 9 3.5 22t8 26t5.5 15q33 98 114.5 331t121.5 359q1 3 6.5 25t10 35.5t15.5 27t25 13.5z "/>
<glyph glyph-name="braceright" horiz-adv-x="320" unicode="}" d="M240 727q81 0 81 -107q0 -29 -16.5 -64.5t-41.5 -72.5t-30 -48q-6 -13 -12.5 -40t-6.5 -44q0 -11 3 -14q6 -7 23 -7h23q28 0 28 -25q0 -27 -28 -34q-8 -2 -13 -2q-7 0 -18.5 2t-17.5 2h-5q-12 -2 -36 -32q-27 -33 -39 -90.5t-24 -117.5t-39 -96q-51 -69 -115 -69 q-29 0 -49.5 16.5t-20.5 46.5q0 17 13 34.5t30 17.5q16 0 16 -14q0 -7 -4.5 -22.5t-4.5 -20.5q0 -4 1 -5q6 -14 23 -14t33 12q36 25 54.5 69t23 86.5t22 99t50.5 99.5q4 5 12 13t13 14.5t5 13.5q0 5 -4.5 17.5t-4.5 16.5q2 41 52 141.5t50 120.5q0 75 -42 76q-15 0 -42 -20 q-21 -16 -30 -16q-6 0 -10.5 4.5t-4.5 11.5q0 19 29 38q35 23 74 23z"/>
<glyph glyph-name="asciitilde" horiz-adv-x="500" unicode="~" d="M451 326q0 -28 -52.5 -59.5t-87.5 -31.5q-24 0 -74.5 26t-78.5 26q-13 0 -24 -4.5t-15.5 -7.5t-16.5 -15l-16 -16q-9 -9 -21 -9q-8 0 -14 5.5t-6 14.5q0 29 51.5 55.5t86.5 26.5q27 0 73 -24t70 -24q26 0 59 18q5 3 20 20.5t27 17.5q19 0 19 -19z"/>
<glyph glyph-name="exclamdown" horiz-adv-x="270" unicode="¡" d="M252 395q-4 0 -14 2q-15 4 -15 18q0 19 21.5 42.5t38.5 23.5q15 0 15 -22q0 -29 -12.5 -46.5t-33.5 -17.5zM165 202q-26 -45 -40 -77q-18 -42 -33 -74t-26 -59.5t-38 -103.5q-1 -3 -5 -16.5t-7.5 -22.5t-9 -20.5t-12 -18t-13.5 -7.5q-1 0 -3.5 -0.5t-3.5 -0.5 q-20 0 -20 22q0 13 19 64q7 16 24 55.5t20.5 47.5t15 35t16 36t15 30.5t19.5 39t21.5 41t29.5 55.5q16 30 33 30q12 0 12 -16t-14 -40z"/>
<glyph glyph-name="cent" horiz-adv-x="393" unicode="¢" d="M223 383q-42 0 -86.5 -65.5t-44.5 -118.5q0 -56 20 -56q11 0 88 171q1 2 8 16.5t12.5 28.5t5.5 20q0 4 -3 4zM383 622q0 -12 -6.5 -29t-17 -37t-11.5 -22q-1 -3 -13.5 -24t-18.5 -36.5t-6 -27.5q0 -6 18 -16t20 -13q11 -15 11 -43t-17 -49t-46 -21q-22 0 -22 21 q0 10 20.5 23t20.5 28q0 20 -19 20q-9 0 -15.5 -7t-12.5 -22.5t-6 -16.5q-11 -23 -46 -104q0 -1 -6.5 -12t-13 -24t-13.5 -27.5t-11.5 -26t-4.5 -16.5q0 -3 2 -3q14 0 31.5 7.5t30.5 15.5t33 22t29 20q1 0 8 5t9 5q11 0 11 -22q0 -16 -33 -38q-54 -40 -90 -52l-14 -3.5 t-18.5 -5t-13.5 -5.5q-13 -8 -24 -34t-17.5 -52t-18.5 -46.5t-28 -20.5q-17 0 -17 17q0 14 4.5 29t16 38.5t15.5 33.5q11 29 11 33q0 5 -8 12t-17.5 15t-17.5 29.5t-8 51.5q0 72 43.5 133t103.5 91q5 2 24.5 10t32 14.5t15.5 13.5q29 60 57 129q2 4 6.5 24.5t11.5 29.5t20 9 q26 0 26 -24z"/>
<glyph glyph-name="sterling" horiz-adv-x="523" unicode="£" d="M81 177q-27 0 -56 -60q-15 -35 -15 -57t18 -22q25 0 51.5 33.5t37.5 69.5q1 2 1 5q0 12 -12.5 21.5t-24.5 9.5zM486 606q0 -35 -26 -74.5t-56 -39.5q-17 0 -17 24q0 8 6.5 15.5t17 15.5t12.5 10l1 2l3.5 3.5t3.5 4.5l4 6t4 6.5t3 6.5t2 6.5t1 6.5q0 7 -5.5 12.5 t-12.5 5.5q-16 0 -39 -20t-33 -34q-19 -27 -54 -100t-35 -95q0 -8 20 -8q4 0 11 0.5t10 0.5q55 3 88.5 16t48.5 13q17 0 17 -21q0 -26 -43 -35.5t-97 -13t-68 -13.5q-6 -5 -11.5 -15t-13 -29.5t-9.5 -25.5q-30 -71 -30 -78q0 -26 35.5 -75t58.5 -49q52 0 102 75q2 2 8 13.5 t11.5 19.5t14.5 15.5t19 7.5q17 0 17 -17q0 -34 -64 -98q-21 -22 -56.5 -40t-66.5 -18q-28 0 -51.5 26.5t-38 52.5t-20.5 26q-4 0 -24.5 -25.5t-49 -51t-53.5 -25.5q-28 0 -45.5 17t-17.5 48q0 46 33 107t78 61q21 0 35 -7.5t21 -14.5t10 -7q5 0 20 33.5t21 60.5 q2 10 -0.5 13.5t-13.5 3.5q-4 0 -20.5 -1t-21.5 -1q-29 0 -29 20q0 14 18.5 18t44 4t33.5 4q5 2 9.5 7.5t9 14t7 15.5t6.5 18.5t6 16.5q80 216 186 230q2 0 6.5 0.5t6.5 0.5q52 0 52 -52z"/>
<glyph glyph-name="currency" horiz-adv-x="527" unicode="¤" d="M347 456q-7 9 -25 16t-34 7q-43 0 -83 -43q-1 -1 -1 -3q0 -1 0.5 -5.5t0.5 -7.5q0 -12 -6 -26q-2 -5 -13 -12.5t-15 -13.5q-28 -40 -28 -113q0 -49 26.5 -86t73.5 -37q30 0 50.5 11.5t20.5 28.5q0 2 -0.5 7t-0.5 8q0 11 6.5 14t18.5 3t19 4q19 11 32 53t13 86 q0 41 -15 61q-3 5 -15 12t-15 12q-3 4 -5.5 12.5t-4.5 11.5zM457 519q0 -14 -19 -39t-19 -32q0 -8 6.5 -22t7.5 -16q8 -24 8 -61q0 -55 -16 -101q-5 -14 -23.5 -45t-18.5 -43q0 -13 18.5 -32.5t18.5 -38.5q0 -16 -21 -16q-15 0 -29.5 22.5t-27.5 22.5q-7 0 -24 -11t-21 -13 q-31 -13 -62 -13q-32 0 -58 13q-5 2 -20 14t-24 12q-11 0 -27 -15.5t-31 -15.5q-14 0 -14 17t22 33t22 35q0 10 -4 39t-4 47q0 49 19 96q4 9 11.5 22.5t12 23.5t4.5 17q0 24 -23.5 50.5t-23.5 49.5q0 19 22 19q16 0 26 -19t18.5 -38t19.5 -19q8 0 10 13t6 17q10 11 34 19 t46 8q17 0 24 -1q13 -2 42 -15t38 -13q13 0 26.5 23t28.5 23q19 0 19 -17z"/>
<glyph glyph-name="yen" horiz-adv-x="538" unicode="¥" d="M239 176l-4 -16q0 -17 33 -19.5t66 -6t33 -22.5q0 -18 -25 -18q-18 0 -53 3t-51 3q-13 0 -21.5 -7.5t-11.5 -15t-8.5 -25.5t-8.5 -26q-1 -2 -4 -11.5t-5 -15t-6 -14.5t-8 -14t-9 -9t-11 -4q-19 0 -19 18q0 24 17 60t17 53q0 15 -22 15q-18 0 -32.5 -3t-34 -8t-34.5 -8 q-1 0 -3.5 -0.5t-3.5 -0.5q-21 0 -21 20q0 22 42 27.5t85.5 9.5t45.5 23l2 16q-2 17 -38 19t-71 4t-35 17q0 20 39 20q13 0 41.5 -2.5t40.5 -2.5q14 0 22.5 4t12.5 15t5.5 18.5t2.5 27t2 28.5q6 62 6 93q0 54 -14 99.5t-50 45.5q-9 0 -25.5 -16t-26.5 -16q-8 0 -12.5 5 t-4.5 11q0 22 25.5 43t51.5 21q98 0 98 -169q0 -20 -1.5 -51.5t-1.5 -41.5q0 -8 -3 -29.5t-3 -28.5q0 -10 4 -10t18 23t32 57t25 46q71 112 132 180q59 66 104 74q5 1 14 1q44 0 44 -47q0 -22 -12 -42t-27 -20q-7 0 -12 4.5t-5 11.5q0 5 3 16t3 16q0 11 -8 11 q-5 0 -12.5 -4.5t-14 -9.5t-13.5 -11l-6 -6q-60 -54 -106 -119.5t-104 -164.5q-2 -4 -10.5 -16t-14 -22.5t-5.5 -16.5q0 -13 21 -13q28 0 70.5 24t51.5 24q6 0 12 -6t6 -15q0 -14 -19.5 -27.5t-37.5 -19.5t-34 -10q-9 -2 -37.5 -4.5t-47 -7.5t-20.5 -14z"/>
<glyph glyph-name="brokenbar" horiz-adv-x="272" unicode="¦" d="M123 185q18 0 18 -18q0 -10 -4.5 -23t-12.5 -32l-8 -18q-12 -31 -32 -87.5t-30 -82.5q-2 -5 -5.5 -16.5t-6 -19.5t-7 -17t-10 -14t-12.5 -5q-18 0 -18 18q0 8 3 18.5t8 24t6 17.5l56 168q1 3 6 23t9.5 30.5t15 22t24.5 11.5zM307 723q18 0 18 -23q0 -21 -29 -96 q-6 -17 -34 -90.5t-42 -113.5q-2 -5 -6.5 -19t-8 -24t-9 -21.5t-12.5 -17.5t-14 -6q-16 0 -16 22q0 9 3 21.5t6.5 22t7.5 21t5 13.5q3 8 31.5 87t40.5 119q1 3 9.5 34.5t16.5 48t18 19.5q9 3 15 3z"/>
<glyph glyph-name="section" horiz-adv-x="451" unicode="§" d="M154 302q-13 0 -27 -33t-14 -61q0 -15 11.5 -32.5t27.5 -17.5t16 25q0 12 -3 36t-3 30q0 5 0.5 19t0.5 18q0 16 -9 16zM389 716q37 0 59 -20.5t22 -60.5q0 -56 -36.5 -100.5t-75.5 -44.5q-23 0 -23 20q0 11 12 21.5t29 19.5t21 13q28 28 28 68q0 19 -10 32t-29 13 q-42 0 -74.5 -39.5t-32.5 -85.5q0 -41 35 -126t35 -138q0 -38 -15 -67.5t-55 -64.5q-7 -6 -19.5 -15t-18 -14.5t-11 -16t-5.5 -24.5q0 -8 1 -24t1 -22q0 -67 -21 -130.5t-63 -108t-96 -44.5q-35 0 -57 32.5t-22 73.5q0 30 11 63t24 33q10 0 10 -13q0 -5 -2 -15 q-8 -40 -8 -63q0 -27 12.5 -48t34.5 -21q36 0 66.5 42t46.5 102t16 120q0 23 -5 34.5t-11 14.5t-19.5 6t-22.5 8q-21 10 -34.5 35t-13.5 57q0 84 102 168q31 24 42 24q16 0 16 -16q0 -5 -2 -12t-5.5 -14t-4.5 -10q-12 -32 -12 -98q0 -83 20 -83q13 0 29 15t23 26 q20 28 20 63q0 41 -34.5 133t-34.5 142q0 61 45 110.5t112 49.5z"/>
<glyph glyph-name="dieresis" horiz-adv-x="267" unicode="¨" d="M76 541q31 0 31 -36q0 -16 -14.5 -29.5t-30.5 -13.5q-24 0 -24 44q0 15 11 25t27 10zM195 550q31 0 31 -33q0 -15 -14.5 -30.5t-29.5 -15.5q-13 0 -20 12.5t-7 29.5q0 15 12.5 26t27.5 11z"/>
<glyph glyph-name="copyright" horiz-adv-x="767" unicode="©" d="M527 592q-92 0 -169 -55q-6 -4 -17.5 -18t-23.5 -23.5t-23 -9.5q-4 0 -12 2t-12 2t-9 -3t-8.5 -6.5t-8.5 -9t-6 -6.5q-103 -120 -103 -255q0 -87 44 -144.5t122 -57.5q98 0 183.5 61t133 155.5t47.5 194.5q0 76 -33 124.5t-105 48.5zM523 644q92 0 139.5 -63t47.5 -163 q0 -167 -118 -309q-131 -155 -302 -155q-95 0 -152 71.5t-57 181.5q0 62 18 120.5t44 100t56.5 75t54 51t36.5 21.5q6 2 19 2t19 2q14 4 33.5 18.5t26.5 17.5q66 29 135 29zM546 429q0 -29 -19.5 -63t-52.5 -34q-8 0 -15.5 6.5t-7.5 17.5q0 12 17 32.5t17 31.5q0 17 -19 17 q-55 0 -110 -64q-20 -23 -41 -67t-21 -78q0 -58 64 -58q31 0 71.5 26.5t56.5 26.5q15 0 15 -15q0 -27 -63 -63q-52 -30 -100 -30q-49 0 -76.5 34.5t-27.5 89.5q0 80 74 160q64 71 150 84q7 1 21 1q67 0 67 -55z"/>
<glyph glyph-name="ordfeminine" horiz-adv-x="402" unicode="ª" d="M259 600q0 10 -18 10q-58 -2 -126 -104q-26 -38 -26 -69q0 -24 21 -24q23 0 45 19q42 36 84 126q2 4 7.5 13.5t9 16.5t3.5 12zM317 652q16 0 16 -18q0 -14 -28 -58q-4 -7 -14.5 -23.5t-15 -25.5t-11 -24t-9 -31t-2.5 -36q0 -50 33 -50q34 0 89 52q20 18 38 38 q28 28 42 28q13 0 13 -17q0 -14 -29 -43q-28 -29 -45 -45t-51 -35.5t-63 -19.5q-42 0 -63 54q-7 20 -12 20q-4 0 -34 -26q-35 -33 -76 -33q-24 0 -39 19t-15 45q0 41 34 99q29 51 77 91.5t97 40.5q7 0 16.5 -7t17.5 -7q7 0 18 6t16 6z"/>
<glyph glyph-name="guillemotleft" horiz-adv-x="543" unicode="«" d="M143 204q10 -10 35.5 -34.5t30.5 -29.5q32 -32 32 -57q0 -10 -7.5 -17t-18.5 -7q-8 0 -13.5 5.5t-12 16.5t-8.5 13q-27 37 -76 74q-1 1 -8 5.5t-10.5 7t-8.5 7t-7 9t-2 9.5q0 9 8.5 16.5t25 15t18.5 8.5q47 26 102 78q4 4 14.5 18t21 21.5t23.5 7.5q19 0 19 -17 q0 -7 -4.5 -15.5t-10 -15.5t-15 -16t-16 -14t-15.5 -12.5t-11 -8.5q-22 -18 -44 -34q-3 -2 -15 -9t-19.5 -13t-7.5 -12zM294 201q28 -24 66 -75q2 -3 12 -15.5t14.5 -19t9.5 -17t5 -18.5t-6.5 -15.5t-15.5 -7.5t-15 5.5t-14 19t-9 14.5q-18 26 -74 86q-1 2 -8.5 9t-11.5 12 t-8 12.5t-4 14.5q0 10 7.5 18.5t15.5 13t21.5 10.5t17.5 8q62 34 128 96q3 2 13 12.5t17.5 18t18 14t17.5 7.5q22 0 22 -20q0 -8 -5.5 -16.5t-11 -13.5t-15.5 -12.5t-12 -9.5q-7 -6 -18.5 -16.5t-17 -15t-15 -12.5t-17 -13.5t-18.5 -13t-24 -15.5q-11 -7 -33.5 -23 t-31.5 -22z"/>
<glyph glyph-name="logicalnot" horiz-adv-x="562" unicode="¬" d="M474 251q0 -15 -22 -81q-2 -7 -5.5 -20.5t-6.5 -22t-7 -17.5t-10.5 -13.5t-14.5 -4.5q-19 0 -19 23q0 11 3.5 25.5t9 30t6.5 19.5q7 28 7 32q0 18 -85 18q-34 0 -63 -2t-66.5 -6t-62.5 -6q-1 0 -18 -2t-26 -2q-34 0 -34 20q0 7 4.5 11.5t14 6.5t17.5 3t21 1.5t19 1.5 q17 1 49 4t41 4q128 10 208 10q40 0 40 -33z"/>
<glyph glyph-name="uni00AD" horiz-adv-x="464" unicode="­" d="M377 204q0 -9 -11 -17t-29 -9q-27 -1 -110.5 -5t-138.5 -6h-3q-14 0 -14 13q0 8 5.5 15.5t13.5 8.5q225 19 254 19q33 0 33 -19z"/>
<glyph glyph-name="registered" horiz-adv-x="486" unicode="®" d="M308 480q4 -4 13.5 -34t27.5 -30q5 0 12.5 2.5t10.5 2.5q9 0 9 -14q0 -19 -16 -26t-28 -7q-20 0 -31 15.5t-14 34t-10.5 34.5t-20.5 16q-46 -78 -59 -90q-15 -15 -35 -15q-26 0 -26 19q0 7 3 11.5t6.5 6.5t10 4.5t9.5 3.5q26 13 46 58t35.5 82.5t33.5 37.5q8 0 14 -4 t8 -8t2 -6q0 -7 -14 -26t-14 -27q0 -10 17 -10q21 0 37.5 19.5t16.5 42.5q0 19 -13.5 30t-36.5 11q-28 0 -50 -19.5t-28 -36.5q-2 -5 -2 -18t-4 -20t-15 -7t-17.5 10.5t-6.5 19.5q0 41 43.5 70.5t90.5 29.5q37 0 60 -18t23 -51q0 -21 -7 -36t-23.5 -27t-26 -16.5 t-31.5 -14.5zM333 694q-91 0 -125 -37q-4 -4 -8.5 -16.5t-7.5 -17.5q-4 -6 -15.5 -18t-16.5 -18q-54 -70 -54 -150q0 -63 35.5 -99.5t94.5 -36.5q94 0 163.5 71.5t69.5 169.5q0 69 -36 110.5t-100 41.5zM332 728q81 0 126.5 -50.5t45.5 -132.5q0 -119 -83.5 -200t-188.5 -81 q-73 0 -120 47t-47 125q0 41 12.5 73.5t48.5 101.5q3 6 5.5 17.5t6.5 18.5q21 34 82 57.5t112 23.5z"/>
<glyph glyph-name="macron" horiz-adv-x="306" unicode="¯" d="M257 542q16 0 16 -18q0 -23 -17 -28q-46 -13 -158 -13q-7 0 -22.5 0.5t-23.5 0.5t-12.5 6.5t-4.5 14.5q0 22 18 22q57 0 142 9q57 6 62 6z"/>
<glyph glyph-name="degree" horiz-adv-x="215" unicode="°" d="M200 604q-37 0 -51 -38q-9 -27 -9 -34q0 -15 11 -24.5t27 -9.5q26 0 42.5 21t16.5 45q0 17 -9.5 28.5t-27.5 11.5zM271 567q0 -43 -29.5 -79.5t-73.5 -36.5q-35 0 -56.5 31t-21.5 69q0 25 15 47q29 42 89 42q33 0 55 -19.5t22 -53.5z"/>
<glyph glyph-name="plusminus" horiz-adv-x="500" unicode="±" d="M349 110q0 -10 -11 -17.5t-29 -8.5q-228 -11 -251 -11q-14 0 -14 14q0 21 18 23q99 11 135 14q97 5 119 5q33 0 33 -19zM239 313q-4 10 -73 14h-7q-26 0 -26 -15q0 -16 36 -49q27 -24 38 -24q10 0 22 30q0 1 3.5 8.5t6 14.5t2.5 13q0 4 -2 8zM332 535q18 0 18 -26 q0 -19 -11 -58q-1 -2 -4.5 -11.5t-6.5 -18t-6 -20t-3 -18.5q0 -18 24 -18q12 0 42 6t43 6q27 0 27 -21q0 -20 -33.5 -26t-73.5 -7t-49 -10q-7 -8 -12 -18t-11 -28.5t-9 -25.5q-1 -3 -5 -14t-7 -17.5t-7.5 -15t-9.5 -13t-11 -4.5q-18 0 -46 28q-14 14 -44 51.5t-50 56.5 q-25 25 -25 41q0 18 37 18q11 0 28 -2t22 -2q6 0 31.5 -3.5t39.5 -3.5q22 0 33 5q5 2 9 13t9 33t8 30q1 3 4 13.5t4.5 17t5.5 17.5t7.5 17.5t8.5 13.5t10.5 10.5t12.5 3.5z"/>
<glyph glyph-name="twosuperior" horiz-adv-x="280" unicode="²" d="M283 577q4 3 9 26.5t5 34.5q0 15 -5.5 20t-17.5 5q-25 0 -53 -24.5t-35 -44.5q-3 -9 -3 -16q0 -14 8.5 -22.5t22.5 -8.5q12 0 28.5 15t35.5 15h5zM284 699q28 0 44.5 -17t16.5 -46q0 -85 -141 -207q-3 -3 -3 -4t4 -1q3 0 14 1.5t16 1.5q15 0 28 -18.5t13 -37.5 q0 -29 -30 -29q-21 0 -21 18q0 3 1.5 10t1.5 10q0 13 -13 13q-3 0 -41 -11q-21 -8 -89 -44q-20 -10 -32 -10q-17 0 -17 14q0 5 3 9.5t9 9.5t11 8.5t12.5 8t9.5 6.5q39 26 54.5 36.5t42.5 33.5t47 47l1 1q2 1 3.5 2t2.5 3t1 5q0 4 -6 4q-3 0 -12 -1.5t-13 -1.5q-24 2 -44 18 t-20 43q0 40 41.5 78.5t88.5 45.5q5 1 16 1z"/>
<glyph glyph-name="threesuperior" horiz-adv-x="280" unicode="³" d="M222 524q28 -4 43.5 -20.5t15.5 -41.5q0 -45 -40.5 -88.5t-84.5 -43.5q-33 0 -61.5 14t-28.5 35q0 7 6.5 13t17.5 6q12 0 28 -16.5t32 -16.5q22 0 52 30.5t30 63.5q0 31 -41 31q-2 0 -6.5 -0.5t-6.5 -0.5l-16.5 -5.5t-28 -8t-25.5 -3.5q-21 0 -21 15q0 12 26 35 q8 7 38 29t55 40.5t25 20.5q0 3 -6 3q-5 0 -18 -1.5t-17 -1.5q-36 2 -65 19.5t-29 42.5q0 16 20 16q17 0 35.5 -22.5t48.5 -22.5q24 0 61.5 10t50.5 10q20 0 20 -15q0 -5 -10 -15t-28.5 -24.5t-36.5 -27.5t-42 -30t-37 -27q-2 -2 -2 -3q0 -2 7 -2q6 0 20.5 1.5t18.5 1.5z "/>
<glyph glyph-name="acute" horiz-adv-x="210" unicode="´" d="M178 594q0 -12 -9 -24q-46 -60 -109 -118q-11 -10 -20 -10q-13 0 -13 16q0 6 2.5 11t8 11.5t7.5 8.5q48 55 81 113q9 17 27 17q11 0 18 -7t7 -18z"/>
<glyph glyph-name="mu" horiz-adv-x="545" unicode="µ" d="M86 217q19 43 32.5 77t19.5 46q26 51 46 51q23 0 23 -30q0 -27 -17 -64q-44 -100 -44 -164q0 -39 22 -39q23 0 55 32t75 90.5t55 71.5q2 2 10.5 12.5t15 17.5t15.5 15.5t18.5 13t17.5 4.5q26 0 26 -28q0 -19 -13 -47q-2 -3 -21 -42t-25.5 -53.5t-19.5 -44.5t-18 -48.5 t-5 -31.5q0 -10 10 -10q21 0 51 24q12 9 42.5 40t55.5 54.5t33 23.5q7 0 12.5 -6t5.5 -13q0 -11 -9 -20q-13 -12 -40.5 -39t-46 -44t-42 -36.5t-43 -29.5t-34.5 -10q-50 0 -50 48q0 30 24 90q4 11 9 26t12 32.5t19 43.5q7 14 7 17v1q-3 0 -31 -38t-67 -86t-65 -67t-46 -19 q-25 0 -40 23t-15 55l2 35q-6 -14 -18 -40.5t-34.5 -76t-47.5 -106.5q-39 -89 -64.5 -117.5t-59.5 -28.5q-22 0 -36.5 15t-14.5 29q0 11 7.5 16.5t15.5 5.5q3 0 11 -7t19 -7q46 0 200 383z"/>
<glyph glyph-name="paragraph" horiz-adv-x="505" unicode="¶" d="M483 585q-4 13 -72 22q-27 4 -56 4q-42 0 -84.5 -10t-82.5 -30.5t-64.5 -57.5t-24.5 -86q0 -55 37 -95t95 -40q25 0 44.5 8t39.5 20.5t36 18.5q2 1 15 2.5t19 5.5q7 4 28 56l48 120l11 21q12 22 12 33q0 5 -1 8zM615 651q0 6 -12 6q-5 0 -13.5 -5.5t-8.5 -11.5 q0 -9 10 -9q7 0 15.5 7t8.5 13zM666 664q0 -26 -21 -46t-48 -29q-9 -3 -28 -5.5t-26 -6.5q-9 -6 -18.5 -24t-20.5 -49.5t-11 -32.5q-88 -221 -144 -322q-50 -91 -98 -151t-116 -101q-89 -56 -151 -56q-36 0 -65 18q-37 19 -37 67q0 49 33 49q18 0 18 -20q0 -3 -0.5 -10 t-0.5 -11q0 -10 3 -19q8 -24 53 -24q27 0 51 8q92 27 188 154q48 64 98 160q1 2 8 15.5t12 25t5 16.5t-7 5q-8 0 -32 -8t-26 -8q-35 -9 -67 -9q-75 0 -122 45.5t-47 129.5q0 109 86.5 168t215.5 59q50 0 104 -9q40 -8 45 -8h5q14 2 38 28t32 30q18 10 45 10q19 0 32.5 -9.5 t13.5 -29.5z"/>
<glyph glyph-name="periodcentered" horiz-adv-x="250" unicode="·" d="M144 239q13 0 23.5 -10t10.5 -26t-16.5 -31t-31.5 -15q-23 0 -23 46q0 16 11 26t26 10z"/>
<glyph glyph-name="cedilla" horiz-adv-x="144" unicode="¸" d="M75 46l39 -14q-13 -5 -39.5 -39t-39.5 -57q31 -3 44 -14.5t13 -39.5q0 -51 -50 -84.5t-107 -33.5q-22 0 -22 22q0 21 21 21q2 0 7.5 -0.5t10.5 -0.5q34 0 61 21t27 49q0 16 -8 23t-17.5 7.5t-17.5 4.5t-8 15q0 34 86 120z"/>
<glyph glyph-name="onesuperior" horiz-adv-x="229" unicode="¹" d="M288 697q14 0 14 -16q0 -21 -36 -87q-17 -33 -45.5 -91t-46.5 -93q-1 -3 -8.5 -20t-13 -28t-16 -21.5t-20.5 -10.5q-20 0 -20 19q0 11 22 59q13 28 42.5 77t42.5 74q1 3 7.5 14t6.5 14q0 2 -2 2q-5 0 -62 -41q-37 -25 -53 -25q-15 0 -15 15q0 8 6 15t11.5 10.5t16 9 t12.5 6.5q63 40 98 74q3 3 15 17t22 20.5t22 6.5z"/>
<glyph glyph-name="ordmasculine" horiz-adv-x="252" unicode="º" d="M261 665q25 0 37.5 -22t12.5 -57q0 -73 -43 -144.5t-113 -94.5q-20 -7 -39 -7q-37 0 -55 28.5t-18 75.5q0 46 30 97t67 80q27 21 47 21q18 0 18 -20q0 -18 -34 -44q-49 -39 -71 -110q-7 -19 -7 -38q0 -40 34 -40q33 0 64 28q33 28 57 75.5t24 92.5q0 26 -25 40l-5 2 q-6 1 -9.5 4.5t-3.5 9.5q0 23 32 23z"/>
<glyph glyph-name="guillemotright" horiz-adv-x="543" unicode="»" d="M404 229q-12 8 -33.5 30.5t-24.5 24.5q-41 34 -41 67q0 11 7.5 18.5t19.5 7.5q3 0 6 -1t6 -3t4.5 -3.5t4 -5t3.5 -5t3.5 -6.5t3.5 -6q19 -32 45.5 -57t43 -38t16.5 -22q0 -8 -6.5 -15.5t-13.5 -11.5t-19 -10.5t-15 -8.5q-67 -40 -114 -86q-1 -1 -8.5 -9t-12 -12.5 t-11.5 -9t-13 -4.5q-7 0 -12.5 6.5t-5.5 13.5q0 14 27 41q24 24 88 72q1 1 19 11t33 22zM248 237q-30 35 -66 73l-4 5q-5 5 -9 10t-10 13t-10 15.5t-7 15.5t-3 15q0 10 9 17.5t20 7.5q8 0 12.5 -4t11.5 -17t8 -15q41 -64 52 -75q6 -6 22.5 -21t25 -25t8.5 -18 q0 -18 -17 -32.5t-47.5 -28.5t-35.5 -17q-64 -43 -108 -84q-3 -3 -13 -15.5t-19 -19.5t-19 -7q-9 0 -15 6t-6 14q0 11 7 20t20.5 20t16.5 14q34 31 112 88q4 3 16.5 10t24.5 16t23 19z"/>
<glyph glyph-name="onequarter" horiz-adv-x="550" unicode="¼" d="M553 289q18 0 18 -20t-11 -46.5t-23.5 -46t-35 -53.5t-32.5 -50q-32 -50 -32 -66q0 -9 9.5 -10.5t9.5 -12.5q0 -8 -9 -14t-22 -6q-36 0 -36 35q0 39 37 91q2 3 10 14.5t15 21.5l7 10l-1 1q-2 0 -37 -14t-53 -14q-50 0 -50 42q0 12 3.5 25.5t10.5 30t11.5 26t13.5 26.5 t10 18q2 4 2 5t-2 1q-10 0 -41 -31q-31 -28 -45 -28t-14 16q0 23 49 56q2 1 9 5.5t10 6.5t9.5 5.5t10.5 5t10.5 3.5t13 3t13.5 1q32 0 32 -20q0 -27 -30.5 -70t-30.5 -80q0 -11 13 -11q9 0 53 19q57 29 86 78q2 4 6.5 12t7 13t7 10.5t9 8.5t9.5 3zM279 697q14 0 14 -16 q0 -21 -36 -87q-17 -33 -45.5 -91t-46.5 -93q-1 -3 -8.5 -20t-13 -28t-16 -21.5t-20.5 -10.5q-20 0 -20 19q0 11 22 59q13 28 42.5 77t42.5 74q1 3 7.5 14t6.5 14q0 2 -2 2q-5 0 -62 -41q-38 -25 -53 -25t-15 15q0 8 6 15t11.5 10.5t16 9t12.5 6.5q63 40 98 74q3 3 15 17 t22 20.5t22 6.5zM480 607q-46 -56 -234.5 -307t-292.5 -363q-7 -6 -15 -6q-7 0 -12.5 6t-5.5 14q0 6 2 10q101 109 281 351.5t243 319.5q8 8 18 8q8 0 14.5 -6t6.5 -14q0 -5 -5 -13z"/>
<glyph glyph-name="onehalf" horiz-adv-x="550" unicode="½" d="M448 207q4 3 9 26.5t5 34.5q0 15 -5.5 20t-17.5 5q-25 0 -53 -24.5t-35 -44.5q-3 -9 -3 -16q0 -14 8.5 -22.5t22.5 -8.5q12 0 28.5 15t35.5 15h5zM449 329q28 0 44.5 -17t16.5 -46q0 -85 -141 -207q-3 -3 -3 -4t4 -1q3 0 14 1.5t16 1.5q15 0 28 -18.5t13 -37.5 q0 -29 -30 -29q-21 0 -21 18q0 3 1.5 10t1.5 10q0 13 -13 13q-2 0 -41 -11q-21 -8 -89 -44q-20 -10 -32 -10q-17 0 -17 14q0 5 3 9.5t9 9.5t11 8.5t12.5 8t9.5 6.5q39 26 54.5 36.5t42.5 33.5t47 47l2 1q1 1 2.5 2t2.5 3t1 5q0 4 -6 4q-3 0 -12 -1.5t-13 -1.5q-24 2 -44 18 t-20 43q0 40 41.5 78.5t88.5 45.5q5 1 16 1zM289 697q14 0 14 -16q0 -21 -36 -87q-17 -33 -45.5 -91t-46.5 -93q-1 -3 -8.5 -20t-13 -28t-16 -21.5t-20.5 -10.5q-20 0 -20 19q0 11 22 59q13 28 42.5 77t42.5 74q1 3 7.5 14t6.5 14q0 2 -2 2q-5 0 -62 -41q-37 -25 -53 -25 q-15 0 -15 15q0 8 6 15t11.5 10.5t16 9t12.5 6.5q63 40 98 74q3 3 15 17t22 20.5t22 6.5zM510 607q-46 -56 -234.5 -307t-292.5 -363q-7 -6 -15 -6q-7 0 -12.5 6t-5.5 14q0 6 2 10q101 109 281 351.5t243 319.5q8 8 18 8q8 0 14.5 -6t6.5 -14q0 -5 -5 -13z"/>
<glyph glyph-name="threequarters" horiz-adv-x="596" unicode="¾" d="M570 289q18 0 18 -20t-11 -46.5t-23.5 -46t-35 -53.5t-32.5 -50q-32 -50 -32 -66q0 -9 9.5 -10.5t9.5 -12.5q0 -8 -9 -14t-22 -6q-36 0 -36 35q0 39 37 91q2 3 10 14.5t15 21.5l7 10l-1 1q-2 0 -37 -14t-53 -14q-50 0 -50 42q0 12 3.5 25.5t10.5 30t11.5 26t13.5 26.5 t10 18q2 4 2 5t-2 1q-10 0 -41 -31q-32 -28 -45 -28q-14 0 -14 16q0 23 49 56q2 1 9 5.5t10 6.5t9.5 5.5t10.5 5t10.5 3.5t13 3t13.5 1q32 0 32 -20q0 -27 -30.5 -70t-30.5 -80q0 -11 13 -11q9 0 53 19q57 29 86 78q2 4 6.5 12t7 13t7 10.5t9 8.5t9.5 3zM206 524 q28 -4 43.5 -20.5t15.5 -41.5q0 -45 -40.5 -88.5t-84.5 -43.5q-33 0 -61.5 14t-28.5 35q0 7 6.5 13t17.5 6q12 0 28 -16.5t32 -16.5q22 0 52 30.5t30 63.5q0 31 -41 31q-2 0 -6.5 -0.5t-6.5 -0.5l-16.5 -5.5t-28 -8t-25.5 -3.5q-21 0 -21 15q0 12 26 35q8 7 38 29t55 40.5 t25 20.5q0 3 -6 3q-5 0 -18 -1.5t-17 -1.5q-36 2 -65 19.5t-29 42.5q0 16 20 16q17 0 35.5 -22.5t48.5 -22.5q24 0 61.5 10t50.5 10q20 0 20 -15q0 -5 -10 -15t-28.5 -24.5t-36.5 -27.5t-42 -30t-37 -27q-2 -2 -2 -3q0 -2 7 -2q6 0 20.5 1.5t18.5 1.5zM523 607 q-46 -56 -234.5 -307t-292.5 -363q-8 -6 -15 -6t-12.5 6t-5.5 14q0 6 2 10q101 109 281 351.5t243 319.5q8 8 18 8q8 0 14.5 -6t6.5 -14q0 -5 -5 -13z"/>
<glyph glyph-name="questiondown" horiz-adv-x="306" unicode="¿" d="M311 501q15 0 15 -27t-13 -43t-33 -16q-29 0 -29 20q0 19 21.5 42.5t38.5 23.5zM231 341q17 0 17 -26q0 -45 -36.5 -100t-85.5 -98q-13 -11 -43.5 -34.5t-51.5 -41t-44.5 -41.5t-36 -50t-12.5 -53q0 -75 70 -75q35 0 78 32.5t77 75.5q0 1 6 8t9.5 10.5t9 7.5t10.5 4h2 q8 -2 8 -10q0 -24 -56 -89q-73 -84 -160 -84q-43 0 -71.5 27.5t-28.5 77.5q0 46 27 92t56.5 74.5t75.5 63.5q82 63 135 164q1 1 8 22t15.5 32t21.5 11z"/>
<glyph glyph-name="Agrave" d="M429 861q9 -60 38 -116q3 -6 3 -11q0 -8 -5.5 -14.5t-13.5 -6.5t-16 8q-18 18 -37.5 59.5t-19.5 67.5q0 13 9.5 21t21.5 8q17 0 20 -16zM600 531q7 0 14 -6t7 -16q0 -8 -4 -18t-10 -20t-11.5 -18t-12 -16.5t-7.5 -9.5q-34 -46 -64 -92q-37 -55 -59.5 -91t-46.5 -89 t-24 -86q0 -31 18 -31q4 0 12 2.5t14 2.5q9 0 9 -12q0 -18 -17 -29q-15 -9 -30 -9q-22 0 -37 17.5t-15 45.5q0 31 7 56q4 13 4 21q0 9 -6 9q-7 0 -14 -7q-167 -167 -267 -167q-40 0 -62 33.5t-22 84.5q0 75 44.5 176t125.5 196.5t172 140.5q48 24 92 24q80 0 80 -87 q0 -48 -28.5 -98.5t-67.5 -89.5q-38 -38 -53 -38t-15 11q0 10 28 40.5t56.5 76t28.5 90.5q0 48 -28 48q-71 0 -138 -57t-119 -132q-122 -176 -122 -306q0 -56 41 -56q35 0 86 29t91 65q182 163 287 354q13 24 30.5 41t32.5 17z" unicode="À"/>
<glyph glyph-name="Aacute" d="M639 844q0 -12 -9 -24q-46 -60 -109 -118q-11 -10 -20 -10q-13 0 -13 16q0 6 2.5 11t8 11.5t7.5 8.5q48 55 81 113q9 17 27 17q11 0 18 -7t7 -18zM600 531q7 0 14 -6t7 -16q0 -8 -4 -18t-10 -20t-11.5 -18t-12 -16.5t-7.5 -9.5q-34 -46 -64 -92q-37 -55 -59.5 -91 t-46.5 -89t-24 -86q0 -31 18 -31q4 0 12 2.5t14 2.5q9 0 9 -12q0 -18 -17 -29q-15 -9 -30 -9q-22 0 -37 17.5t-15 45.5q0 31 7 56q4 13 4 21q0 9 -6 9q-7 0 -14 -7q-167 -167 -267 -167q-40 0 -62 33.5t-22 84.5q0 75 44.5 176t125.5 196.5t172 140.5q48 24 92 24 q80 0 80 -87q0 -48 -28.5 -98.5t-67.5 -89.5q-38 -38 -53 -38t-15 11q0 10 28 40.5t56.5 76t28.5 90.5q0 48 -28 48q-71 0 -138 -57t-119 -132q-122 -176 -122 -306q0 -56 41 -56q35 0 86 29t91 65q182 163 287 354q13 24 30.5 41t32.5 17z" unicode="Á"/>
<glyph glyph-name="Acircumflex" d="M530 796q-59 -65 -103 -83q-6 -2 -8 -2q-8 0 -13.5 6.5t-5.5 14.5q0 10 9 16q53 31 97 78q2 3 8 10t10 12t10.5 9.5t12.5 4.5q18 0 20 -18q4 -34 13 -63q1 -3 8.5 -21.5t7.5 -29.5q0 -10 -7 -17t-16 -7q-13 0 -20 13q-5 8 -9 19t-6 19t-4.5 20.5t-3.5 18.5zM600 531 q7 0 14 -6t7 -16q0 -8 -4 -18t-10 -20t-11.5 -18t-12 -16.5t-7.5 -9.5q-34 -46 -64 -92q-37 -55 -59.5 -91t-46.5 -89t-24 -86q0 -31 18 -31q4 0 12 2.5t14 2.5q9 0 9 -12q0 -18 -17 -29q-15 -9 -30 -9q-22 0 -37 17.5t-15 45.5q0 31 7 56q4 13 4 21q0 9 -6 9q-7 0 -14 -7 q-167 -167 -267 -167q-40 0 -62 33.5t-22 84.5q0 75 44.5 176t125.5 196.5t172 140.5q48 24 92 24q80 0 80 -87q0 -48 -28.5 -98.5t-67.5 -89.5q-38 -38 -53 -38t-15 11q0 10 28 40.5t56.5 76t28.5 90.5q0 48 -28 48q-71 0 -138 -57t-119 -132q-122 -176 -122 -306 q0 -56 41 -56q35 0 86 29t91 65q182 163 287 354q13 24 30.5 41t32.5 17z" unicode="Â"/>
<glyph glyph-name="Atilde" d="M614 772q14 0 14 -20q0 -22 -32.5 -45t-56.5 -23q-20 0 -50 20t-48 20q-24 0 -44 -20q-10 -10 -19 -10q-15 0 -15 17q0 21 33.5 45t55.5 24t55 -22.5t48 -22.5q13 0 40 27q10 10 19 10zM600 531q7 0 14 -6t7 -16q0 -8 -4 -18t-10 -20t-11.5 -18t-12 -16.5t-7.5 -9.5 q-34 -46 -64 -92q-37 -55 -59.5 -91t-46.5 -89t-24 -86q0 -31 18 -31q4 0 12 2.5t14 2.5q9 0 9 -12q0 -18 -17 -29q-15 -9 -30 -9q-22 0 -37 17.5t-15 45.5q0 31 7 56q4 13 4 21q0 9 -6 9q-7 0 -14 -7q-167 -167 -267 -167q-40 0 -62 33.5t-22 84.5q0 75 44.5 176 t125.5 196.5t172 140.5q48 24 92 24q80 0 80 -87q0 -48 -28.5 -98.5t-67.5 -89.5q-38 -38 -53 -38t-15 11q0 10 28 40.5t56.5 76t28.5 90.5q0 48 -28 48q-71 0 -138 -57t-119 -132q-122 -176 -122 -306q0 -56 41 -56q35 0 86 29t91 65q182 163 287 354q13 24 30.5 41 t32.5 17z" unicode="Ã"/>
<glyph glyph-name="Adieresis" d="M414 787q31 0 31 -36q0 -16 -14.5 -29.5t-30.5 -13.5q-24 0 -24 44q0 15 11 25t27 10zM533 796q31 0 31 -33q0 -15 -14.5 -30.5t-29.5 -15.5q-13 0 -20 12.5t-7 29.5q0 15 12.5 26t27.5 11zM600 531q7 0 14 -6t7 -16q0 -8 -4 -18t-10 -20t-11.5 -18t-12 -16.5t-7.5 -9.5 q-34 -46 -64 -92q-37 -55 -59.5 -91t-46.5 -89t-24 -86q0 -31 18 -31q4 0 12 2.5t14 2.5q9 0 9 -12q0 -18 -17 -29q-15 -9 -30 -9q-22 0 -37 17.5t-15 45.5q0 31 7 56q4 13 4 21q0 9 -6 9q-7 0 -14 -7q-167 -167 -267 -167q-40 0 -62 33.5t-22 84.5q0 75 44.5 176 t125.5 196.5t172 140.5q48 24 92 24q80 0 80 -87q0 -48 -28.5 -98.5t-67.5 -89.5q-38 -38 -53 -38t-15 11q0 10 28 40.5t56.5 76t28.5 90.5q0 48 -28 48q-71 0 -138 -57t-119 -132q-122 -176 -122 -306q0 -56 41 -56q35 0 86 29t91 65q182 163 287 354q13 24 30.5 41 t32.5 17z" unicode="Ä"/>
<glyph glyph-name="Aring" d="M520 792q-18 0 -30.5 -13t-12.5 -33q0 -10 7 -17t17 -7q18 0 29.5 14.5t11.5 32.5q0 9 -5 14.5t-9 7t-8 1.5zM518 832q63 0 63 -73q0 -32 -28.5 -57t-61.5 -25q-25 0 -43 17.5t-18 46.5q0 36 27 63.5t61 27.5zM600 531q7 0 14 -6t7 -16q0 -8 -4 -18t-10 -20t-11.5 -18 t-12 -16.5t-7.5 -9.5q-34 -46 -64 -92q-37 -55 -59.5 -91t-46.5 -89t-24 -86q0 -31 18 -31q4 0 12 2.5t14 2.5q9 0 9 -12q0 -18 -17 -29q-15 -9 -30 -9q-22 0 -37 17.5t-15 45.5q0 31 7 56q4 13 4 21q0 9 -6 9q-7 0 -14 -7q-167 -167 -267 -167q-40 0 -62 33.5t-22 84.5 q0 75 44.5 176t125.5 196.5t172 140.5q48 24 92 24q80 0 80 -87q0 -48 -28.5 -98.5t-67.5 -89.5q-38 -38 -53 -38t-15 11q0 10 28 40.5t56.5 76t28.5 90.5q0 48 -28 48q-71 0 -138 -57t-119 -132q-122 -176 -122 -306q0 -56 41 -56q35 0 86 29t91 65q182 163 287 354 q13 24 30.5 41t32.5 17z" unicode="Å"/>
<glyph glyph-name="AE" horiz-adv-x="760" unicode="Æ" d="M545 335q0 4 -5 6l-4 2q-2 1 -4 0t-5 -5t-4 -5q-3 -3 4 -4q11 -1 18 6zM797 554q0 37 -23 57.5t-62 20.5q-56 0 -100 -32t-64 -79q-13 -32 -13 -61q0 -23 13 -23q19 0 74 83q2 2 7.5 12.5t10.5 17t12 15t14.5 13t15.5 4.5q20 0 20 -18q0 -13 -13 -36.5t-13 -34.5 q0 -45 37 -45q34 0 59 30t25 76zM574 381q1 -12 12 -20t23.5 -12t22.5 -11t10 -18q0 -12 -12 -17t-37 -6t-29 -2q-50 -8 -77 -28t-59 -63q-45 -59 -45 -103q0 -86 87 -86q26 0 54 9t47 17t50.5 32t41.5 32t45.5 39.5t38.5 34.5q8 7 16 7q15 0 15 -17q0 -11 -8 -19 q-42 -40 -67.5 -63t-70 -56t-86.5 -49.5t-83 -16.5q-85 0 -126 70q-3 4 -6.5 17t-8 23t-8.5 10q-6 0 -15.5 -7t-21 -18t-13.5 -13q-39 -32 -97.5 -60.5t-98.5 -28.5q-42 0 -68 25t-26 78q0 124 76.5 265t179.5 231q85 72 168 72q35 0 54.5 -19t19.5 -54q0 -11 -1 -17 q-9 -72 -46.5 -142t-74.5 -70q-23 0 -23 18q0 24 28 52q23 24 36 40.5t25 46.5t12 65q0 37 -27 37q-73 0 -145 -62t-119.5 -146.5t-77 -167t-29.5 -129.5q0 -35 11 -51.5t37 -16.5q64 0 156 66q71 51 98 90q5 7 21.5 34.5t28.5 39.5q11 11 33.5 27t34.5 27q18 16 37 42.5 t19 38.5q0 9 -4.5 23.5t-5.5 19.5q-4 20 -4 42q0 93 67 151t160 58q61 0 97 -31.5t36 -84.5q0 -66 -43.5 -110t-93.5 -44q-44 0 -65 27q-2 3 -6 10.5t-8 11.5t-9 4q-14 0 -33.5 -30.5t-19.5 -43.5z"/>
<glyph glyph-name="Ccedilla" horiz-adv-x="354" unicode="Ç" d="M278 485q-25 -16 -49.5 -61t-32.5 -94q-1 -3 -1.5 -9t-1.5 -9t-2 -7.5t-2.5 -6.5t-3.5 -4.5t-5 -3.5t-7 -1q-13 0 -13 22q0 23 12 61.5t19 52.5q26 50 48 80t58 55q26 18 43 18q14 0 14 -13q0 -9 -18 -45.5t-18 -59.5q0 -12 5 -12q31 0 63 62.5t32 115.5q0 48 -48 48 q-49 0 -121 -61q-94 -78 -156 -200.5t-62 -233.5q0 -56 19.5 -92t58.5 -36q76 0 205 104q3 2 11.5 11t16 15t14.5 6q6 0 12 -7.5t6 -13.5q0 -17 -75 -75t-122 -77q-33 -14 -72 -15q-9 0 -15 -7q-27 -33 -38 -56q31 -3 44 -14.5t13 -39.5q0 -51 -50 -84.5t-107 -33.5 q-22 0 -22 22q0 21 21 21h5q4 -1 13 -1q34 0 61 21t27 49q0 16 -8 23t-17.5 7.5t-17.5 4.5t-8 15q0 23 45 76q3 5 -3 8q-70 37 -70 159q0 71 23 152t54 129q34 54 64 93t72.5 81.5t91.5 65t102 22.5q79 0 79 -90q0 -71 -46 -143t-100 -72q-42 0 -42 56q0 8 2 22z"/>
<glyph glyph-name="Egrave" horiz-adv-x="423" unicode="È" d="M332 925q9 -60 38 -116q3 -6 3 -11q0 -8 -5.5 -14.5t-13.5 -6.5t-16 8q-18 18 -37.5 59.5t-19.5 67.5q0 13 9.5 21t21.5 8q17 0 20 -16zM203 458q25 61 57 110q1 1 5.5 8t8 12t10 13.5t12 14.5t12 12t12.5 9t12 3q17 0 17 -16q0 -12 -10.5 -40t-10.5 -43q0 -24 15 -38 t36 -14q35 0 57.5 35.5t22.5 74.5q0 38 -24 59t-65 21q-73 0 -128 -51t-55 -124q0 -31 16 -46zM215 339q-9 -20 -9.5 -60t-4 -66t-21.5 -26q-14 2 -14 42q0 28 10 101q-53 -10 -103 -64t-50 -124q0 -48 32.5 -79.5t84.5 -31.5q60 0 132.5 42t137.5 107q7 7 15 7 q7 0 12.5 -6.5t5.5 -14.5t-5 -13q-173 -173 -304 -173q-80 0 -121 43t-41 109q0 64 36.5 124.5t96.5 89.5q7 3 31.5 12.5t39.5 17.5t15 13q0 6 -14.5 25.5t-19.5 30.5q-16 36 -16 74q0 83 70 142t162 59q58 0 96 -33t38 -88q0 -61 -39 -106.5t-90 -45.5q-88 0 -88 98l-1 2 q-7 0 -30.5 -48t-23.5 -71q0 -15 30.5 -31t30.5 -30q0 -13 -17 -17.5t-38 -5.5t-26 -5z"/>
<glyph glyph-name="Eacute" horiz-adv-x="423" unicode="É" d="M574 900q-46 -60 -109 -118q-11 -10 -20 -10q-13 0 -13 16q0 9 8 20q36 39 91 124q11 17 27 17q10 0 17.5 -7.5t7.5 -18.5t-9 -23zM203 458q25 61 57 110q1 1 5.5 8t8 12t10 13.5t12 14.5t12 12t12.5 9t12 3q17 0 17 -16q0 -12 -10.5 -40t-10.5 -43q0 -24 15 -38t36 -14 q35 0 57.5 35.5t22.5 74.5q0 38 -24 59t-65 21q-73 0 -128 -51t-55 -124q0 -31 16 -46zM215 339q-9 -20 -9.5 -60t-4 -66t-21.5 -26q-14 2 -14 42q0 28 10 101q-53 -10 -103 -64t-50 -124q0 -48 32.5 -79.5t84.5 -31.5q60 0 132.5 42t137.5 107q7 7 15 7q7 0 12.5 -6.5 t5.5 -14.5t-5 -13q-173 -173 -304 -173q-80 0 -121 43t-41 109q0 64 36.5 124.5t96.5 89.5q7 3 31.5 12.5t39.5 17.5t15 13q0 6 -14.5 25.5t-19.5 30.5q-16 36 -16 74q0 83 70 142t162 59q58 0 96 -33t38 -88q0 -61 -39 -106.5t-90 -45.5q-88 0 -88 98l-1 2q-7 0 -30.5 -48 t-23.5 -71q0 -15 30.5 -31t30.5 -30q0 -13 -17 -17.5t-38 -5.5t-26 -5z"/>
<glyph glyph-name="Ecircumflex" horiz-adv-x="423" unicode="Ê" d="M414 871q-59 -65 -103 -83q-6 -2 -8 -2q-8 0 -13.5 6.5t-5.5 14.5q0 10 9 16q53 31 97 78q2 3 8 10t10 12t10.5 9.5t12.5 4.5q18 0 20 -18q4 -34 13 -63q1 -3 8.5 -21.5t7.5 -29.5q0 -10 -7 -17t-16 -7q-13 0 -20 13q-5 8 -9 19t-6 19t-4.5 20.5t-3.5 18.5zM203 458 q25 61 57 110q1 1 5.5 8t8 12t10 13.5t12 14.5t12 12t12.5 9t12 3q17 0 17 -16q0 -12 -10.5 -40t-10.5 -43q0 -24 15 -38t36 -14q35 0 57.5 35.5t22.5 74.5q0 38 -24 59t-65 21q-73 0 -128 -51t-55 -124q0 -31 16 -46zM215 339q-9 -20 -9.5 -60t-4 -66t-21.5 -26 q-14 2 -14 42q0 28 10 101q-53 -10 -103 -64t-50 -124q0 -48 32.5 -79.5t84.5 -31.5q60 0 132.5 42t137.5 107q7 7 15 7q7 0 12.5 -6.5t5.5 -14.5t-5 -13q-173 -173 -304 -173q-80 0 -121 43t-41 109q0 64 36.5 124.5t96.5 89.5q7 3 31.5 12.5t39.5 17.5t15 13 q0 6 -14.5 25.5t-19.5 30.5q-16 36 -16 74q0 83 70 142t162 59q58 0 96 -33t38 -88q0 -61 -39 -106.5t-90 -45.5q-88 0 -88 98l-1 2q-7 0 -30.5 -48t-23.5 -71q0 -15 30.5 -31t30.5 -30q0 -13 -17 -17.5t-38 -5.5t-26 -5z"/>
<glyph glyph-name="Edieresis" horiz-adv-x="423" unicode="Ë" d="M326 871q31 0 31 -36q0 -16 -14.5 -29.5t-30.5 -13.5q-24 0 -24 44q0 15 11 25t27 10zM445 880q31 0 31 -33q0 -15 -14.5 -30.5t-29.5 -15.5q-13 0 -20 12.5t-7 29.5q0 15 12.5 26t27.5 11zM203 458q25 61 57 110q1 1 5.5 8t8 12t10 13.5t12 14.5t12 12t12.5 9t12 3 q17 0 17 -16q0 -12 -10.5 -40t-10.5 -43q0 -24 15 -38t36 -14q35 0 57.5 35.5t22.5 74.5q0 38 -24 59t-65 21q-73 0 -128 -51t-55 -124q0 -31 16 -46zM215 339q-9 -20 -9.5 -60t-4 -66t-21.5 -26q-14 2 -14 42q0 28 10 101q-53 -10 -103 -64t-50 -124q0 -48 32.5 -79.5 t84.5 -31.5q60 0 132.5 42t137.5 107q7 7 15 7q7 0 12.5 -6.5t5.5 -14.5t-5 -13q-173 -173 -304 -173q-80 0 -121 43t-41 109q0 64 36.5 124.5t96.5 89.5q7 3 31.5 12.5t39.5 17.5t15 13q0 6 -14.5 25.5t-19.5 30.5q-16 36 -16 74q0 83 70 142t162 59q58 0 96 -33t38 -88 q0 -61 -39 -106.5t-90 -45.5q-88 0 -88 98l-1 2q-7 0 -30.5 -48t-23.5 -71q0 -15 30.5 -31t30.5 -30q0 -13 -17 -17.5t-38 -5.5t-26 -5z"/>
<glyph glyph-name="Igrave" horiz-adv-x="468" unicode="Ì" d="M500 881q9 -60 38 -116q3 -6 3 -11q0 -8 -5.5 -14.5t-13.5 -6.5t-16 8q-18 18 -37.5 59.5t-19.5 67.5q0 13 9.5 21t21.5 8q17 0 20 -16zM430 525q-11 -8 -45 -38.5t-60.5 -49t-43.5 -18.5q-13 0 -13 17q0 15 20.5 30.5t56.5 40.5t60 53q7 8 29.5 38.5t38 43.5t33.5 13 q14 0 20 -8q9 -12 9 -27q0 -12 -6 -27.5t-13 -27t-19 -31t-18 -29.5q-132 -242 -206 -345q-4 -6 -20 -25.5t-27 -35.5t-11 -21q0 -8 14 -19t26 -11q40 0 101 46.5t95 84.5q9 9 18 9q8 0 13.5 -6.5t5.5 -14.5q0 -9 -7 -16q-45 -45 -116 -95t-119 -50q-18 0 -41.5 21t-25.5 21 q-7 0 -17 -5.5t-22 -14.5t-17 -12q-44 -26 -89 -26q-37 0 -60 21.5t-23 66.5q0 40 16 78t40 48q21 8 37 8q27 0 52.5 -17t48.5 -40.5t33 -29.5q52 37 150 219q30 56 102 181zM137 88q-14 24 -44.5 51.5t-51.5 27.5q-18 0 -32.5 -30.5t-14.5 -62.5q0 -45 42 -45q24 0 55 17 q13 7 29.5 21t16.5 21z"/>
<glyph glyph-name="Iacute" horiz-adv-x="468" unicode="Í" d="M702 870q0 -12 -9 -24q-46 -60 -109 -118q-11 -10 -20 -10q-13 0 -13 16q0 6 2.5 11t8 11.5t7.5 8.5q48 55 81 113q9 17 27 17q11 0 18 -7t7 -18zM430 525q-11 -8 -45 -38.5t-60.5 -49t-43.5 -18.5q-13 0 -13 17q0 15 20.5 30.5t56.5 40.5t60 53q7 8 29.5 38.5t38 43.5 t33.5 13q14 0 20 -8q9 -12 9 -27q0 -12 -6 -27.5t-13 -27t-19 -31t-18 -29.5q-132 -242 -206 -345q-4 -6 -20 -25.5t-27 -35.5t-11 -21q0 -8 14 -19t26 -11q40 0 101 46.5t95 84.5q9 9 18 9q8 0 13.5 -6.5t5.5 -14.5q0 -9 -7 -16q-45 -45 -116 -95t-119 -50q-18 0 -41.5 21 t-25.5 21q-7 0 -17 -5.5t-22 -14.5t-17 -12q-44 -26 -89 -26q-37 0 -60 21.5t-23 66.5q0 40 16 78t40 48q21 8 37 8q27 0 52.5 -17t48.5 -40.5t33 -29.5q52 37 150 219q30 56 102 181zM137 88q-14 24 -44.5 51.5t-51.5 27.5q-18 0 -32.5 -30.5t-14.5 -62.5q0 -45 42 -45 q24 0 55 17q13 7 29.5 21t16.5 21z"/>
<glyph glyph-name="Icircumflex" horiz-adv-x="468" unicode="Î" d="M557 813q-59 -65 -103 -83q-6 -2 -8 -2q-8 0 -13.5 6.5t-5.5 14.5q0 10 9 16q53 31 97 78q2 3 8 10t10 12t10.5 9.5t12.5 4.5q18 0 20 -18q4 -34 13 -63q1 -3 8.5 -21.5t7.5 -29.5q0 -10 -7 -17t-16 -7q-13 0 -20 13q-5 8 -9 19t-6 19t-4.5 20.5t-3.5 18.5zM430 525 q-11 -8 -45 -38.5t-60.5 -49t-43.5 -18.5q-13 0 -13 17q0 15 20.5 30.5t56.5 40.5t60 53q7 8 29.5 38.5t38 43.5t33.5 13q14 0 20 -8q9 -12 9 -27q0 -12 -6 -27.5t-13 -27t-19 -31t-18 -29.5q-132 -242 -206 -345q-4 -6 -20 -25.5t-27 -35.5t-11 -21q0 -8 14 -19t26 -11 q40 0 101 46.5t95 84.5q9 9 18 9q8 0 13.5 -6.5t5.5 -14.5q0 -9 -7 -16q-45 -45 -116 -95t-119 -50q-18 0 -41.5 21t-25.5 21q-7 0 -17 -5.5t-22 -14.5t-17 -12q-44 -26 -89 -26q-37 0 -60 21.5t-23 66.5q0 40 16 78t40 48q21 8 37 8q27 0 52.5 -17t48.5 -40.5t33 -29.5 q52 37 150 219q30 56 102 181zM137 88q-14 24 -44.5 51.5t-51.5 27.5q-18 0 -32.5 -30.5t-14.5 -62.5q0 -45 42 -45q24 0 55 17q13 7 29.5 21t16.5 21z"/>
<glyph glyph-name="Idieresis" horiz-adv-x="468" unicode="Ï" d="M488 823q31 0 31 -36q0 -16 -14.5 -29.5t-30.5 -13.5q-24 0 -24 44q0 15 11 25t27 10zM624 792q31 0 31 -33q0 -15 -14.5 -30.5t-29.5 -15.5q-13 0 -20 12.5t-7 29.5q0 15 12.5 26t27.5 11zM430 525q-11 -8 -45 -38.5t-60.5 -49t-43.5 -18.5q-13 0 -13 17q0 15 20.5 30.5 t56.5 40.5t60 53q7 8 29.5 38.5t38 43.5t33.5 13q14 0 20 -8q9 -12 9 -27q0 -12 -6 -27.5t-13 -27t-19 -31t-18 -29.5q-132 -242 -206 -345q-4 -6 -20 -25.5t-27 -35.5t-11 -21q0 -8 14 -19t26 -11q40 0 101 46.5t95 84.5q9 9 18 9q8 0 13.5 -6.5t5.5 -14.5q0 -9 -7 -16 q-45 -45 -116 -95t-119 -50q-18 0 -41.5 21t-25.5 21q-7 0 -17 -5.5t-22 -14.5t-17 -12q-44 -26 -89 -26q-37 0 -60 21.5t-23 66.5q0 40 16 78t40 48q21 8 37 8q27 0 52.5 -17t48.5 -40.5t33 -29.5q52 37 150 219q30 56 102 181zM137 88q-14 24 -44.5 51.5t-51.5 27.5 q-18 0 -32.5 -30.5t-14.5 -62.5q0 -45 42 -45q24 0 55 17q13 7 29.5 21t16.5 21z"/>
<glyph glyph-name="Eth" horiz-adv-x="687" unicode="Ð" d="M218 141q-4 8 -14.5 31.5t-16.5 35t-16.5 27t-21.5 22.5t-23 7q-18 0 -38 -17q-35 -29 -68.5 -82t-33.5 -96q0 -54 42 -54q25 0 50.5 10t39.5 19.5t38 28.5q41 31 62 68zM647 599q-3 0 -42 -58q-38 -53 -96 -140q-4 -6 1 -6q20 0 29.5 -2.5t11 -5.5t1.5 -10 q0 -31 -69 -34q-15 0 -19 -8q-63 -85 -121 -150q-46 -51 -46 -68t27 -42.5t53 -25.5q54 0 112 63.5t99 140.5q82 158 82 276q0 70 -23 70zM560 656q-10 5 -28 5q-12 0 -25.5 -2.5t-29.5 -6.5t-21 -5q-65 -13 -124.5 -37t-119 -62.5t-96 -65t-98.5 -76.5q-2 -2 -10 -9 t-13 -11t-12 -8t-13 -4q-7 0 -16 9t-9 20q0 7 3 13.5t10 12.5t12 10.5t14 11t12 8.5q64 49 116 83.5t125 74t153 61t162 23.5q4 0 13 -0.5t14 -0.5q26 0 59 39t64 77.5t52 38.5q20 0 20 -22q0 -34 -28 -72q-3 -4 -21.5 -26.5t-31.5 -42t-13 -31.5q0 -10 8 -25l8 -15 q17 -48 17 -104q0 -116 -86 -290q-48 -100 -118 -164q-21 -19 -34 -30t-38.5 -22t-51.5 -11t-47.5 10t-33 21t-28.5 32q-22 26 -31 26q-6 -5 -24.5 -23.5t-27.5 -24.5q-90 -69 -165 -69q-88 0 -88 76q0 41 23 93t49 87q20 28 35.5 46.5t42 37.5t50.5 19q34 0 59 -36.5 t39.5 -74t22.5 -39.5h2q7 0 15 7t19.5 22t12.5 17q48 56 82 101q7 9 -3 9h-27h-53q-17 0 -17 19q0 20 18 24q37 0 111 6q13 0 24 11q92 123 163 239q-3 3 -7 3q-16 0 -50 -45.5t-68 -91.5t-50 -46q-8 0 -12.5 5t-4.5 11q0 14 10 29t29 34.5t21 21.5q9 11 26 29.5t31 35 t27 34.5z"/>
<glyph glyph-name="Ntilde" horiz-adv-x="623" unicode="Ñ" d="M753 845q14 0 14 -20q0 -22 -32.5 -45t-56.5 -23q-20 0 -50 20t-48 20q-24 0 -44 -20q-10 -10 -19 -10q-15 0 -15 17q0 21 33.5 45t55.5 24t55 -22.5t48 -22.5q13 0 40 27q10 10 19 10zM367 555q10 0 10 -13q0 -17 -24 -75q-28 -65 -63 -135.5t-82 -154.5t-94 -137.5 t-81 -53.5q-27 0 -43 18.5t-16 45.5q0 19 12 45.5t29 26.5q10 0 10 -12q0 -8 -8 -23.5t-8 -24.5q0 -23 27 -23q30 0 98 104t117 198t79 159q24 55 37 55zM433 189q8 15 40.5 81t46 91t42 71.5t56.5 83.5q33 44 61 75t69 67.5t86.5 56t93.5 19.5q36 0 59 -20.5t23 -59.5 q0 -35 -11 -64t-32 -29q-20 0 -20 18q0 10 11 37.5t11 38.5q0 18 -16 27t-34 9q-49 0 -113 -41q-68 -44 -120 -109t-108 -159q-107 -180 -164 -334q-1 -2 -5 -16.5t-9 -27.5t-11.5 -27.5t-15 -23.5t-16.5 -9q-19 0 -19 34q0 28 22 116q7 36 18 99t24 173.5t13 183.5 q0 130 -40 130q-46 0 -88 -41.5t-64.5 -94.5t-22.5 -96q0 -7 1 -19t1 -18q0 -40 -26 -40q-23 0 -23 49q0 106 76.5 204t172.5 98q65 0 65 -167q0 -81 -17 -219t-17 -147z"/>
<glyph glyph-name="Ograve" horiz-adv-x="447" unicode="Ò" d="M328 935q9 -60 38 -116q3 -6 3 -11q0 -8 -5.5 -14.5t-13.5 -6.5t-16 8q-18 18 -37.5 59.5t-19.5 67.5q0 13 9.5 21t21.5 8q17 0 20 -16zM259 416q8 7 16 17.5t12.5 17t13.5 23t11 20.5q38 71 38 95q0 5 -9 5q-33 0 -58 -59.5t-25 -104.5q0 -10 1 -14zM355 692 q-17 0 -61 -30q-39 -27 -85 -80q-81 -93 -126 -205t-45 -225q0 -114 48 -114q68 0 152 81.5t141 195t57 201.5q0 26 -8 49.5t-25 23.5q-7 0 -14.5 -15t-15.5 -40t-9 -28q-45 -105 -86 -161q-1 -2 -9.5 -15t-14.5 -20.5t-15.5 -15t-18.5 -7.5q-21 0 -21 42q0 105 33 190 t89 115q3 2 19.5 8t25 13t8.5 17q0 20 -19 20zM424 706q0 -7 -4 -22t-4 -26q0 -10 20.5 -27t25.5 -26q24 -45 24 -100q0 -78 -43 -173t-105 -171.5t-136.5 -128.5t-133.5 -52q-32 0 -53 33t-27.5 69.5t-6.5 71.5q0 132 55.5 251.5t142.5 215.5q45 50 98.5 85.5t98.5 35.5 q24 0 36 -7.5t12 -28.5z"/>
<glyph glyph-name="Oacute" horiz-adv-x="447" unicode="Ó" d="M259 416q8 7 16 17.5t12.5 17t13.5 23t11 20.5q38 71 38 95q0 5 -9 5q-33 0 -58 -59.5t-25 -104.5q0 -10 1 -14zM355 692q-17 0 -61 -30q-39 -27 -85 -80q-81 -93 -126 -205t-45 -225q0 -114 48 -114q68 0 152 81.5t141 195t57 201.5q0 26 -8 49.5t-25 23.5 q-7 0 -14.5 -15t-15.5 -40t-9 -28q-45 -105 -86 -161q-1 -2 -9.5 -15t-14.5 -20.5t-15.5 -15t-18.5 -7.5q-21 0 -21 42q0 105 33 190t89 115q3 2 19.5 8t25 13t8.5 17q0 20 -19 20zM424 706q0 -7 -4 -22t-4 -26q0 -10 20.5 -27t25.5 -26q24 -45 24 -100q0 -78 -43 -173 t-105 -171.5t-136.5 -128.5t-133.5 -52q-32 0 -53 33t-27.5 69.5t-6.5 71.5q0 132 55.5 251.5t142.5 215.5q45 50 98.5 85.5t98.5 35.5q24 0 36 -7.5t12 -28.5zM593 934q0 -12 -9 -24q-46 -60 -109 -118q-11 -10 -20 -10q-13 0 -13 16q0 6 2.5 11t8 11.5t7.5 8.5 q48 55 81 113q9 17 27 17q11 0 18 -7t7 -18z"/>
<glyph glyph-name="Ocircumflex" horiz-adv-x="447" unicode="Ô" d="M259 416q8 7 16 17.5t12.5 17t13.5 23t11 20.5q38 71 38 95q0 5 -9 5q-33 0 -58 -59.5t-25 -104.5q0 -10 1 -14zM355 692q-17 0 -61 -30q-39 -27 -85 -80q-81 -93 -126 -205t-45 -225q0 -114 48 -114q68 0 152 81.5t141 195t57 201.5q0 26 -8 49.5t-25 23.5 q-7 0 -14.5 -15t-15.5 -40t-9 -28q-45 -105 -86 -161q-1 -2 -9.5 -15t-14.5 -20.5t-15.5 -15t-18.5 -7.5q-21 0 -21 42q0 105 33 190t89 115q3 2 19.5 8t25 13t8.5 17q0 20 -19 20zM424 706q0 -7 -4 -22t-4 -26q0 -10 20.5 -27t25.5 -26q24 -45 24 -100q0 -78 -43 -173 t-105 -171.5t-136.5 -128.5t-133.5 -52q-32 0 -53 33t-27.5 69.5t-6.5 71.5q0 132 55.5 251.5t142.5 215.5q45 50 98.5 85.5t98.5 35.5q24 0 36 -7.5t12 -28.5zM460 881q-59 -65 -103 -83q-6 -2 -8 -2q-8 0 -13.5 6.5t-5.5 14.5q0 10 9 16q53 31 97 78q2 3 8 10t10 12 t10.5 9.5t12.5 4.5q18 0 20 -18q4 -34 13 -63q1 -3 8.5 -21.5t7.5 -29.5q0 -10 -7 -17t-16 -7q-13 0 -20 13q-5 8 -9 19t-6 19t-4.5 20.5t-3.5 18.5z"/>
<glyph glyph-name="Otilde" horiz-adv-x="447" unicode="Õ" d="M516 896q14 0 14 -20q0 -22 -32.5 -45t-56.5 -23q-20 0 -50 20t-48 20q-24 0 -44 -20q-10 -10 -19 -10q-15 0 -15 17q0 21 33.5 45t55.5 24t55 -22.5t48 -22.5q13 0 40 27q10 10 19 10zM259 416q8 7 16 17.5t12.5 17t13.5 23t11 20.5q38 71 38 95q0 5 -9 5 q-33 0 -58 -59.5t-25 -104.5q0 -10 1 -14zM355 692q-17 0 -61 -30q-39 -27 -85 -80q-81 -93 -126 -205t-45 -225q0 -114 48 -114q68 0 152 81.5t141 195t57 201.5q0 26 -8 49.5t-25 23.5q-7 0 -14.5 -15t-15.5 -40t-9 -28q-45 -105 -86 -161q-1 -2 -9.5 -15t-14.5 -20.5 t-15.5 -15t-18.5 -7.5q-21 0 -21 42q0 105 33 190t89 115q3 2 19.5 8t25 13t8.5 17q0 20 -19 20zM424 706q0 -7 -4 -22t-4 -26q0 -10 20.5 -27t25.5 -26q24 -45 24 -100q0 -78 -43 -173t-105 -171.5t-136.5 -128.5t-133.5 -52q-32 0 -53 33t-27.5 69.5t-6.5 71.5 q0 132 55.5 251.5t142.5 215.5q45 50 98.5 85.5t98.5 35.5q24 0 36 -7.5t12 -28.5z"/>
<glyph glyph-name="Odieresis" horiz-adv-x="447" unicode="Ö" d="M259 416q8 7 16 17.5t12.5 17t13.5 23t11 20.5q38 71 38 95q0 5 -9 5q-33 0 -58 -59.5t-25 -104.5q0 -10 1 -14zM355 692q-17 0 -61 -30q-39 -27 -85 -80q-81 -93 -126 -205t-45 -225q0 -114 48 -114q68 0 152 81.5t141 195t57 201.5q0 26 -8 49.5t-25 23.5 q-7 0 -14.5 -15t-15.5 -40t-9 -28q-45 -105 -86 -161q-1 -2 -9.5 -15t-14.5 -20.5t-15.5 -15t-18.5 -7.5q-21 0 -21 42q0 105 33 190t89 115q3 2 19.5 8t25 13t8.5 17q0 20 -19 20zM424 706q0 -7 -4 -22t-4 -26q0 -10 20.5 -27t25.5 -26q24 -45 24 -100q0 -78 -43 -173 t-105 -171.5t-136.5 -128.5t-133.5 -52q-32 0 -53 33t-27.5 69.5t-6.5 71.5q0 132 55.5 251.5t142.5 215.5q45 50 98.5 85.5t98.5 35.5q24 0 36 -7.5t12 -28.5zM344 881q31 0 31 -36q0 -16 -14.5 -29.5t-30.5 -13.5q-24 0 -24 44q0 15 11 25t27 10zM502 855q31 0 31 -33 q0 -15 -14.5 -30.5t-29.5 -15.5q-13 0 -20 12.5t-7 29.5q0 15 12.5 26t27.5 11z"/>
<glyph glyph-name="multiply" horiz-adv-x="691" unicode="×" d="M541 397q-3 0 -6 -3q-59 -39 -144 -100q-4 -3 -4 -8q0 -7 5 -12q56 -56 99 -106q3 -4 8 -4q6 0 7 6q4 24 14 79q24 136 24 141q0 7 -3 7zM332 251l-60 -45q-8 -6 -52 -43.5t-79 -64.5t-46 -27q-8 0 -13.5 5.5t-5.5 13.5q0 10 9 17q114 93 217 171q5 3 5 8q0 4 -4 8 q-27 24 -82.5 65.5t-74.5 57.5q-6 6 -6 14q0 11 8.5 19.5t19.5 8.5q15 0 42.5 -18.5t48 -37.5t50.5 -49.5t34 -33.5q5 -4 9 -4q3 0 10 4q21 15 62 45.5t74 53.5t65 41q4 2 10 2q20 0 20 -23q-40 -193 -65 -322q-6 -16 -20 -16q-8 0 -16 8q-53 60 -138 142q-6 6 -10 6t-12 -6 z"/>
<glyph glyph-name="Oslash" horiz-adv-x="447" unicode="Ø" d="M427 538q-1 0 -3 -2q-11 -10 -28 -35.5t-36.5 -59t-24.5 -40.5q-86 -134 -219 -299q-2 -3 -13 -15.5t-18 -22.5t-7 -15q0 -12 25 -12q21 0 50 13t41 23q72 55 133 146q72 106 96 200q12 48 12 92q0 27 -8 27zM384 586q0 15 -22 15q-53 0 -90 -51q-2 -3 -11.5 -20.5 t-19.5 -27t-22 -9.5q-22 0 -22 16q0 17 26 48q26 30 26 36q0 3 -4 3q-10 0 -34 -19q-63 -52 -108.5 -152t-59.5 -196q-5 -40 -5 -78q0 -49 11 -49q5 0 14 8t16 16.5t16.5 20.5t11.5 14q116 134 259 381q18 34 18 44zM528 749q0 -8 -4.5 -19.5t-9 -19.5t-10.5 -18t-7 -11 q-2 -5 -13 -21.5t-18 -30.5t-7 -26q0 -13 11.5 -44t11.5 -52q0 -73 -35 -162q-56 -142 -178 -264q-90 -90 -159 -90q-12 0 -33 8.5t-32 8.5q-10 0 -20 -7.5t-21.5 -22t-14.5 -17.5q-30 -30 -44 -30q-6 0 -11.5 5.5t-5.5 12.5q0 5 3 11.5t8 12t9 10t9 9t6 5.5q2 2 10.5 9 t12 11.5t9.5 11.5t8.5 14t2.5 14q0 14 -8.5 52t-8.5 56q0 140 72 288q76 154 196 204q37 17 72 17q17 0 45 -15t32 -15q10 0 17 10q11 16 27.5 48t29.5 49.5t25 17.5q23 0 23 -20z"/>
<glyph glyph-name="Ugrave" horiz-adv-x="674" unicode="Ù" d="M607 445q16 0 16 -17q0 -9 -5 -21.5t-10.5 -21.5t-13.5 -20.5t-8 -12.5q-61 -102 -92 -184q-25 -67 -25 -89q0 -29 16 -29q4 0 10.5 1.5t9.5 1.5q12 0 12 -13q0 -14 -20 -27.5t-41 -13.5q-44 0 -44 55q0 32 16 78.5t32 81t16 37.5q0 4 -3 4q-11 0 -52 -54 q-64 -74 -203 -199q-57 -54 -98 -54q-39 0 -39 49q0 47 41 143q62 145 162 302q1 1 14 21.5t26.5 42t25 45t11.5 33.5q0 8 -7 8t-14.5 -1t-15 -4t-12.5 -5.5t-12.5 -7.5l-10.5 -7t-11.5 -8t-9.5 -7q-60 -46 -113 -114t-53 -113q0 -17 7.5 -33t7.5 -23q0 -10 -10 -17.5 t-19 -7.5q-15 0 -25.5 17t-10.5 41q0 70 60.5 149t131.5 135q25 19 58 36.5t54 17.5q55 0 55 -48q0 -30 -41.5 -109.5t-92 -160.5t-92 -166.5t-41.5 -125.5q0 -13 8 -13q7 0 18.5 7t26 19t26.5 23t27.5 25.5t21.5 20.5q52 47 114 112q5 5 67.5 68t98.5 106q1 1 8 10t11.5 13 t11 11t13 10t11.5 3zM523 795q9 -60 38 -116q3 -6 3 -11q0 -8 -5.5 -14.5t-13.5 -6.5t-16 8q-18 18 -37.5 59.5t-19.5 67.5q0 13 9.5 21t21.5 8q17 0 20 -16z"/>
<glyph glyph-name="Uacute" horiz-adv-x="674" unicode="Ú" d="M607 445q16 0 16 -17q0 -9 -5 -21.5t-10.5 -21.5t-13.5 -20.5t-8 -12.5q-61 -102 -92 -184q-25 -67 -25 -89q0 -29 16 -29q4 0 10.5 1.5t9.5 1.5q12 0 12 -13q0 -14 -20 -27.5t-41 -13.5q-44 0 -44 55q0 32 16 78.5t32 81t16 37.5q0 4 -3 4q-11 0 -52 -54 q-64 -74 -203 -199q-57 -54 -98 -54q-39 0 -39 49q0 47 41 143q62 145 162 302q1 1 14 21.5t26.5 42t25 45t11.5 33.5q0 8 -7 8t-14.5 -1t-15 -4t-12.5 -5.5t-12.5 -7.5l-10.5 -7t-11.5 -8t-9.5 -7q-60 -46 -113 -114t-53 -113q0 -17 7.5 -33t7.5 -23q0 -10 -10 -17.5 t-19 -7.5q-15 0 -25.5 17t-10.5 41q0 70 60.5 149t131.5 135q25 19 58 36.5t54 17.5q55 0 55 -48q0 -30 -41.5 -109.5t-92 -160.5t-92 -166.5t-41.5 -125.5q0 -13 8 -13q7 0 18.5 7t26 19t26.5 23t27.5 25.5t21.5 20.5q52 47 114 112q5 5 67.5 68t98.5 106q1 1 8 10t11.5 13 t11 11t13 10t11.5 3zM678 794q0 -12 -9 -24q-46 -60 -109 -118q-11 -10 -20 -10q-13 0 -13 16q0 6 2.5 11t8 11.5t7.5 8.5q48 55 81 113q9 17 27 17q11 0 18 -7t7 -18z"/>
<glyph glyph-name="Ucircumflex" horiz-adv-x="674" unicode="Û" d="M607 445q16 0 16 -17q0 -9 -5 -21.5t-10.5 -21.5t-13.5 -20.5t-8 -12.5q-61 -102 -92 -184q-25 -67 -25 -89q0 -29 16 -29q4 0 10.5 1.5t9.5 1.5q12 0 12 -13q0 -14 -20 -27.5t-41 -13.5q-44 0 -44 55q0 32 16 78.5t32 81t16 37.5q0 4 -3 4q-11 0 -52 -54 q-64 -74 -203 -199q-57 -54 -98 -54q-39 0 -39 49q0 47 41 143q62 145 162 302q1 1 14 21.5t26.5 42t25 45t11.5 33.5q0 8 -7 8t-14.5 -1t-15 -4t-12.5 -5.5t-12.5 -7.5l-10.5 -7t-11.5 -8t-9.5 -7q-60 -46 -113 -114t-53 -113q0 -17 7.5 -33t7.5 -23q0 -10 -10 -17.5 t-19 -7.5q-15 0 -25.5 17t-10.5 41q0 70 60.5 149t131.5 135q25 19 58 36.5t54 17.5q55 0 55 -48q0 -30 -41.5 -109.5t-92 -160.5t-92 -166.5t-41.5 -125.5q0 -13 8 -13q7 0 18.5 7t26 19t26.5 23t27.5 25.5t21.5 20.5q52 47 114 112q5 5 67.5 68t98.5 106q1 1 8 10t11.5 13 t11 11t13 10t11.5 3zM588 741q-59 -65 -103 -83q-6 -2 -8 -2q-8 0 -13.5 6.5t-5.5 14.5q0 10 9 16q53 31 97 78q2 3 8 10t10 12t10.5 9.5t12.5 4.5q18 0 20 -18q4 -34 13 -63q1 -3 8.5 -21.5t7.5 -29.5q0 -10 -7 -17t-16 -7q-13 0 -20 13q-5 8 -9 19t-6 19t-4.5 20.5 t-3.5 18.5z"/>
<glyph glyph-name="Udieresis" horiz-adv-x="674" unicode="Ü" d="M607 445q16 0 16 -17q0 -9 -5 -21.5t-10.5 -21.5t-13.5 -20.5t-8 -12.5q-61 -102 -92 -184q-25 -67 -25 -89q0 -29 16 -29q4 0 10.5 1.5t9.5 1.5q12 0 12 -13q0 -14 -20 -27.5t-41 -13.5q-44 0 -44 55q0 32 16 78.5t32 81t16 37.5q0 4 -3 4q-11 0 -52 -54 q-64 -74 -203 -199q-57 -54 -98 -54q-39 0 -39 49q0 47 41 143q62 145 162 302q1 1 14 21.5t26.5 42t25 45t11.5 33.5q0 8 -7 8t-14.5 -1t-15 -4t-12.5 -5.5t-12.5 -7.5l-10.5 -7t-11.5 -8t-9.5 -7q-60 -46 -113 -114t-53 -113q0 -17 7.5 -33t7.5 -23q0 -10 -10 -17.5 t-19 -7.5q-15 0 -25.5 17t-10.5 41q0 70 60.5 149t131.5 135q25 19 58 36.5t54 17.5q55 0 55 -48q0 -30 -41.5 -109.5t-92 -160.5t-92 -166.5t-41.5 -125.5q0 -13 8 -13q7 0 18.5 7t26 19t26.5 23t27.5 25.5t21.5 20.5q52 47 114 112q5 5 67.5 68t98.5 106q1 1 8 10t11.5 13 t11 11t13 10t11.5 3zM508 722q31 0 31 -36q0 -16 -14.5 -29.5t-30.5 -13.5q-24 0 -24 44q0 15 11 25t27 10zM623 686q31 0 31 -33q0 -15 -14.5 -30.5t-29.5 -15.5q-13 0 -20 12.5t-7 29.5q0 15 12.5 26t27.5 11z"/>
<glyph glyph-name="Yacute" horiz-adv-x="548" unicode="Ý" d="M51 56q-16 0 -25.5 -19.5t-9.5 -43.5q0 -21 26 -21q18 0 23 6t5 27q0 51 -19 51zM606 594q22 0 22 -25q0 -15 -8 -36q-64 -161 -147 -276t-213 -217q-44 -35 -69 -53t-68.5 -38t-79.5 -20q-33 0 -53 17.5t-20 47.5q0 34 27.5 73t61.5 39q25 0 39 -15t16.5 -33.5 t6.5 -33.5t10 -15q10 0 24.5 7t32.5 21t30.5 24.5t30.5 27t22 19.5t12.5 10t13 10.5t8.5 9.5t4 12q0 8 -5.5 23t-6.5 23q-15 75 -15 177q0 103 13 213l7 56q0 6 -2 6q-5 0 -24 -58.5t-23 -79.5q-13 -72 -13 -127q0 -19 4 -59.5t4 -60.5q0 -37 -24 -37q-35 0 -35 138 q0 59 16.5 140.5t46 146.5t60.5 65q44 0 44 -38q0 -13 -5 -53.5t-7 -68.5q-7 -108 -7 -181q0 -109 14 -187q2 -5 4 -5q4 0 11.5 9t18 24t12.5 18q72 89 111 161.5t66 166.5q6 19 12 25.5t20 6.5zM598 778q0 -12 -9 -24q-46 -60 -109 -118q-11 -10 -20 -10q-13 0 -13 16 q0 6 2.5 11t8 11.5t7.5 8.5q48 55 81 113q9 17 27 17q11 0 18 -7t7 -18z"/>
<glyph glyph-name="Thorn" horiz-adv-x="448" unicode="Þ" d="M382 610q1 -9 11 -17t23 -15t16 -10q71 -65 71 -146q0 -90 -73 -186q-78 -102 -176 -102q-19 0 -33.5 13t-14.5 36t18.5 52.5t43.5 29.5q11 0 16.5 -5.5t5.5 -11.5q0 -7 -14.5 -25t-14.5 -26q0 -15 16 -15q21 0 57 28q49 39 72.5 78.5t38.5 112.5q2 9 2 27 q0 49 -26.5 87.5t-56.5 38.5q-7 0 -13.5 -3t-12.5 -11.5t-9 -13.5t-10 -18.5t-9 -17.5l-60 -112.5t-65.5 -124.5t-52 -108.5t-49.5 -120.5q-2 -8 -2 -11q0 -5 1.5 -13.5t1.5 -12.5q0 -9 -9.5 -20t-30.5 -11q-12 0 -18 8.5t-6 18.5q0 16 11 49q8 25 17.5 50t22 53t21 48 t25 52.5t23.5 47t26.5 51t24.5 46t26.5 49.5t24.5 45q1 1 10 15t16 28t7 21q0 9 -13 9q-22 0 -64 -29q-94 -62 -115 -155q0 -2 -1.5 -13.5t-3.5 -18t-8.5 -13.5t-17.5 -7q-24 0 -24 41q0 44 23 84t62.5 70.5t80 52.5t86.5 39q2 1 15.5 5t18.5 7t27.5 35.5t22.5 42.5 q0 5 -4 5t-23 -12.5t-28 -12.5q-5 0 -10 4.5t-5 12.5q0 6 4 13.5t11 14.5t12.5 11.5t13 10t8.5 6.5q2 1 10.5 8t10.5 8.5t9.5 7t10.5 7.5t9.5 5.5t11.5 5t11.5 3.5t12.5 3t16 1q25 0 25 -23q0 -9 -5 -17.5t-14 -18t-12 -14.5q-13 -19 -35 -57t-22 -50z"/>
<glyph glyph-name="germandbls" horiz-adv-x="532" unicode="ß" d="M403 234q6 -41 6 -90q0 -71 -35 -118.5t-101 -47.5q-28 0 -50.5 16.5t-22.5 44.5q0 30 27 61.5t68 31.5q16 0 16 -7q0 -19 -23 -32q-38 -23 -38 -45q0 -11 8.5 -19t20.5 -8q81 0 81 121q0 40 -4 62.5t-4 31.5t17.5 26.5t35 40.5t17.5 46q0 16 -10 16q-28 0 -91 -70 q-17 -18 -67 -85t-57 -75q-114 -140 -163.5 -208t-147.5 -219q-34 -51 -52 -51q-14 0 -14 15q0 6 3 15t8.5 18t10 15.5t9.5 14t6 8.5q125 213 248 442q8 12 31.5 57.5t23.5 56.5q0 4 -2 4q-8 0 -30 -24.5t-55.5 -63.5t-56.5 -61q-8 -7 -17 -7q-7 0 -12.5 5.5t-5.5 12.5 q0 8 8 16q27 26 55 56t47 51t49.5 59.5t42 53.5t48 62.5t44.5 58.5q12 16 38 57t48 71.5t35 38.5q8 5 15 5q12 0 12 -15q0 -53 -157 -278q-36 -51 -53.5 -83t-40 -80.5t-45.5 -92.5q-32 -58 -32 -73q5 0 45 53q109 151 145 193q89 102 146 102q47 0 47 -45q0 -32 -23 -74 t-52 -67z"/>
<glyph glyph-name="agrave" horiz-adv-x="515" unicode="à" d="M11 147q-2 -1 -7 -1q-9 0 -16 5.5t-7 13.5q0 9 10 18q33 31 84 71q7 6 27 22t28.5 22.5t26 19.5t29 19t27.5 13.5t30 10.5t29 3q9 0 15 -6.5t6 -14.5q0 -17 -36 -43q-24 -18 -81.5 -47.5t-68.5 -39.5q-21 -19 -40.5 -60t-19.5 -72q0 -42 39 -42q46 0 109.5 62t83.5 110 q19 46 54 97t65 51q21 0 21 -23q0 -20 -45 -73t-62 -88q-28 -59 -28 -95q0 -38 32 -38q20 0 49 16q17 10 52.5 42.5t64.5 60t34 27.5q7 0 13 -6t6 -13q0 -15 -78 -85t-118 -84q-24 -8 -39 -8q-32 0 -45.5 19t-16.5 46t-4 30l-4 -3q-30 -35 -77 -66t-83 -31q-39 0 -58 23.5 t-19 60.5q0 34 17 73zM298 595q9 -60 38 -116q3 -6 3 -11q0 -8 -5.5 -14.5t-13.5 -6.5t-16 8q-18 18 -37.5 59.5t-19.5 67.5q0 13 9.5 21t21.5 8q17 0 20 -16z"/>
<glyph glyph-name="aacute" horiz-adv-x="515" unicode="á" d="M473 594q0 -12 -9 -24q-46 -60 -109 -118q-11 -10 -20 -10q-13 0 -13 16q0 6 2.5 11t8 11.5t7.5 8.5q48 55 81 113q9 17 27 17q11 0 18 -7t7 -18zM11 147q-2 -1 -7 -1q-9 0 -16 5.5t-7 13.5q0 9 10 18q33 31 84 71q7 6 27 22t28.5 22.5t26 19.5t29 19t27.5 13.5t30 10.5 t29 3q9 0 15 -6.5t6 -14.5q0 -17 -36 -43q-24 -18 -81.5 -47.5t-68.5 -39.5q-21 -19 -40.5 -60t-19.5 -72q0 -42 39 -42q46 0 109.5 62t83.5 110q19 46 54 97t65 51q21 0 21 -23q0 -20 -45 -73t-62 -88q-28 -59 -28 -95q0 -38 32 -38q20 0 49 16q17 10 52.5 42.5t64.5 60 t34 27.5q7 0 13 -6t6 -13q0 -15 -78 -85t-118 -84q-24 -8 -39 -8q-32 0 -45.5 19t-16.5 46t-4 30l-4 -3q-30 -35 -77 -66t-83 -31q-39 0 -58 23.5t-19 60.5q0 34 17 73z"/>
<glyph glyph-name="acircumflex" horiz-adv-x="515" unicode="â" d="M11 147q-2 -1 -7 -1q-9 0 -16 5.5t-7 13.5q0 9 10 18q33 31 84 71q7 6 27 22t28.5 22.5t26 19.5t29 19t27.5 13.5t30 10.5t29 3q9 0 15 -6.5t6 -14.5q0 -17 -36 -43q-24 -18 -81.5 -47.5t-68.5 -39.5q-21 -19 -40.5 -60t-19.5 -72q0 -42 39 -42q46 0 109.5 62t83.5 110 q19 46 54 97t65 51q21 0 21 -23q0 -20 -45 -73t-62 -88q-28 -59 -28 -95q0 -38 32 -38q20 0 49 16q17 10 52.5 42.5t64.5 60t34 27.5q7 0 13 -6t6 -13q0 -15 -78 -85t-118 -84q-24 -8 -39 -8q-32 0 -45.5 19t-16.5 46t-4 30l-4 -3q-30 -35 -77 -66t-83 -31q-39 0 -58 23.5 t-19 60.5q0 34 17 73zM369 541q-59 -65 -103 -83q-6 -2 -8 -2q-8 0 -13.5 6.5t-5.5 14.5q0 10 9 16q53 31 97 78q2 3 8 10t10 12t10.5 9.5t12.5 4.5q18 0 20 -18q4 -34 13 -63q1 -3 8.5 -21.5t7.5 -29.5q0 -10 -7 -17t-16 -7q-13 0 -20 13q-5 8 -9 19t-6 19t-4.5 20.5 t-3.5 18.5z"/>
<glyph glyph-name="atilde" horiz-adv-x="515" unicode="ã" d="M11 147q-2 -1 -7 -1q-9 0 -16 5.5t-7 13.5q0 9 10 18q33 31 84 71q7 6 27 22t28.5 22.5t26 19.5t29 19t27.5 13.5t30 10.5t29 3q9 0 15 -6.5t6 -14.5q0 -17 -36 -43q-24 -18 -81.5 -47.5t-68.5 -39.5q-21 -19 -40.5 -60t-19.5 -72q0 -42 39 -42q46 0 109.5 62t83.5 110 q19 46 54 97t65 51q21 0 21 -23q0 -20 -45 -73t-62 -88q-28 -59 -28 -95q0 -38 32 -38q20 0 49 16q17 10 52.5 42.5t64.5 60t34 27.5q7 0 13 -6t6 -13q0 -15 -78 -85t-118 -84q-24 -8 -39 -8q-32 0 -45.5 19t-16.5 46t-4 30l-4 -3q-30 -35 -77 -66t-83 -31q-39 0 -58 23.5 t-19 60.5q0 34 17 73zM472 546q14 0 14 -20q0 -22 -32.5 -45t-56.5 -23q-20 0 -50 20t-48 20q-24 0 -44 -20q-10 -10 -19 -10q-15 0 -15 17q0 21 33.5 45t55.5 24t55 -22.5t48 -22.5q13 0 40 27q10 10 19 10z"/>
<glyph glyph-name="adieresis" horiz-adv-x="515" unicode="ä" d="M11 147q-2 -1 -7 -1q-9 0 -16 5.5t-7 13.5q0 9 10 18q33 31 84 71q7 6 27 22t28.5 22.5t26 19.5t29 19t27.5 13.5t30 10.5t29 3q9 0 15 -6.5t6 -14.5q0 -17 -36 -43q-24 -18 -81.5 -47.5t-68.5 -39.5q-21 -19 -40.5 -60t-19.5 -72q0 -42 39 -42q46 0 109.5 62t83.5 110 q19 46 54 97t65 51q21 0 21 -23q0 -20 -45 -73t-62 -88q-28 -59 -28 -95q0 -38 32 -38q20 0 49 16q17 10 52.5 42.5t64.5 60t34 27.5q7 0 13 -6t6 -13q0 -15 -78 -85t-118 -84q-24 -8 -39 -8q-32 0 -45.5 19t-16.5 46t-4 30l-4 -3q-30 -35 -77 -66t-83 -31q-39 0 -58 23.5 t-19 60.5q0 34 17 73zM293 541q31 0 31 -36q0 -16 -14.5 -29.5t-30.5 -13.5q-24 0 -24 44q0 15 11.5 25t26.5 10zM412 550q31 0 31 -33q0 -15 -14.5 -30.5t-29.5 -15.5q-13 0 -20 12.5t-7 29.5q0 15 12.5 26t27.5 11z"/>
<glyph glyph-name="aring" horiz-adv-x="515" unicode="å" d="M11 147q-2 -1 -7 -1q-9 0 -16 5.5t-7 13.5q0 9 10 18q33 31 84 71q7 6 27 22t28.5 22.5t26 19.5t29 19t27.5 13.5t30 10.5t29 3q9 0 15 -6.5t6 -14.5q0 -17 -36 -43q-24 -18 -81.5 -47.5t-68.5 -39.5q-21 -19 -40.5 -60t-19.5 -72q0 -42 39 -42q46 0 109.5 62t83.5 110 q19 46 54 97t65 51q21 0 21 -23q0 -20 -45 -73t-62 -88q-28 -59 -28 -95q0 -38 32 -38q20 0 49 16q17 10 52.5 42.5t64.5 60t34 27.5q7 0 13 -6t6 -13q0 -15 -78 -85t-118 -84q-24 -8 -39 -8q-32 0 -45.5 19t-16.5 46t-4 30l-4 -3q-30 -35 -77 -66t-83 -31q-39 0 -58 23.5 t-19 60.5q0 34 17 73zM404 552q-18 0 -30.5 -13t-12.5 -33q0 -10 7 -17t17 -7q18 0 29.5 14.5t11.5 32.5q0 9 -5 14.5t-9 7t-8 1.5zM402 592q63 0 63 -73q0 -32 -28.5 -57t-61.5 -25q-25 0 -43 17.5t-18 46.5q0 36 27 63.5t61 27.5z"/>
<glyph glyph-name="ae" horiz-adv-x="564" unicode="æ" d="M214 148q0 5 -6 5q-23 0 -79.5 -37.5t-56.5 -58.5q0 -7 6 -15t15 -8q26 0 73.5 44t47.5 70zM438 338q-26 0 -77.5 -44t-69.5 -89q-3 -8 5 -8q26 0 89.5 47t63.5 82q0 12 -11 12zM273 147q-3 -18 -3 -32q0 -75 75 -75q13 0 28.5 5t32.5 15.5t31 20t33 26.5t29 26t29 27 t23 22q6 6 14 6t13.5 -5.5t5.5 -13.5q0 -9 -7 -16q-6 -6 -29 -28t-31 -29t-29 -25t-32 -25.5t-30 -19.5t-33 -17t-32 -9.5t-35 -4.5q-79 0 -97 80q-4 19 -17 3q-72 -91 -139 -91q-23 0 -40 14.5t-17 39.5q0 33 22.5 62.5t59.5 49.5t71 32.5t68 20.5q9 33 9 54q0 29 -14 42.5 t-28 13.5q-21 0 -53.5 -28t-75 -73.5t-58.5 -59.5q-7 -6 -16 -6q-8 0 -13.5 5t-5.5 13q0 10 9 18q19 16 67 69t88.5 83.5t80.5 30.5q16 0 32.5 -15.5t26.5 -39.5q7 -17 9 -17q3 0 7 5q29 38 67.5 61t73.5 23q63 0 63 -57q0 -51 -78.5 -106t-154.5 -75z"/>
<glyph glyph-name="ccedilla" horiz-adv-x="324" unicode="ç" d="M80 0q-31 -36 -45 -64q31 -3 44 -14.5t13 -39.5q0 -51 -50 -84.5t-107 -33.5q-22 0 -22 22q0 21 21 21q2 0 9 -0.5t9 -0.5q34 0 61 21t27 49q0 16 -8 23t-17.5 7.5t-17.5 4.5t-8 15q0 27 49 80q-31 13 -48 44t-17 72q0 52 36 109.5t93.5 96.5t114.5 39q66 0 66 -52 q0 -34 -22.5 -66.5t-49.5 -32.5q-8 0 -15.5 5.5t-7.5 12.5q0 20 20 42.5t20 32.5q0 15 -14 15q-67 0 -126 -68.5t-59 -139.5q0 -64 65 -64q84 0 217 130q4 4 11 4q8 0 14 -5t6 -13t-6 -15q-34 -42 -107 -91q-90 -60 -149 -62z"/>
<glyph glyph-name="egrave" horiz-adv-x="330" unicode="è" d="M192 340q-31 0 -76 -46t-57 -77q-2 -6 -2 -7q0 -7 9 -7q27 0 83.5 43t56.5 73q0 21 -14 21zM264 327q0 -23 -9.5 -42t-32 -36.5t-37.5 -27t-49.5 -27.5t-45.5 -24q-8 -4 -24 -10.5t-26 -11.5t-11 -9q-2 -16 -2 -22q0 -40 23 -58.5t54 -18.5q72 0 212 140q6 6 14 6 t13.5 -5.5t5.5 -13.5q0 -9 -7 -16q-51 -52 -82.5 -80t-79 -52t-95.5 -24q-54 0 -83 37t-29 88q0 77 76 171t154 94q25 0 43 -15.5t18 -42.5zM199 595q9 -60 38 -116q3 -6 3 -11q0 -8 -5.5 -14.5t-13.5 -6.5t-16 8q-18 18 -37.5 59.5t-19.5 67.5q0 13 9.5 21t21.5 8 q17 0 20 -16z"/>
<glyph glyph-name="eacute" horiz-adv-x="330" unicode="é" d="M347 594q0 -12 -9 -24q-46 -60 -109 -118q-11 -10 -20 -10q-13 0 -13 16q0 6 2.5 11t8 11.5t7.5 8.5q48 55 81 113q9 17 27 17q11 0 18 -7t7 -18zM192 340q-31 0 -76 -46t-57 -77q-2 -6 -2 -7q0 -7 9 -7q27 0 83.5 43t56.5 73q0 21 -14 21zM264 327q0 -23 -9.5 -42 t-32 -36.5t-37.5 -27t-49.5 -27.5t-45.5 -24q-8 -4 -24 -10.5t-26 -11.5t-11 -9q-2 -16 -2 -22q0 -40 23 -58.5t54 -18.5q72 0 212 140q6 6 14 6t13.5 -5.5t5.5 -13.5q0 -9 -7 -16q-51 -52 -82.5 -80t-79 -52t-95.5 -24q-54 0 -83 37t-29 88q0 77 76 171t154 94 q25 0 43 -15.5t18 -42.5z"/>
<glyph glyph-name="ecircumflex" horiz-adv-x="330" unicode="ê" d="M249 541q-59 -65 -103 -83q-6 -2 -8 -2q-8 0 -13.5 6.5t-5.5 14.5q0 10 9 16q53 31 97 78q2 3 8 10t10 12t10.5 9.5t12.5 4.5q18 0 20 -18q4 -34 13 -63q1 -3 8.5 -21.5t7.5 -29.5q0 -10 -7 -17t-16 -7q-13 0 -20 13q-5 8 -9 19t-6 19t-4.5 20.5t-3.5 18.5zM192 340 q-31 0 -76 -46t-57 -77q-2 -6 -2 -7q0 -7 9 -7q27 0 83.5 43t56.5 73q0 21 -14 21zM264 327q0 -23 -9.5 -42t-32 -36.5t-37.5 -27t-49.5 -27.5t-45.5 -24q-8 -4 -24 -10.5t-26 -11.5t-11 -9q-2 -16 -2 -22q0 -40 23 -58.5t54 -18.5q72 0 212 140q6 6 14 6t13.5 -5.5 t5.5 -13.5q0 -9 -7 -16q-51 -52 -82.5 -80t-79 -52t-95.5 -24q-54 0 -83 37t-29 88q0 77 76 171t154 94q25 0 43 -15.5t18 -42.5z"/>
<glyph glyph-name="edieresis" horiz-adv-x="330" unicode="ë" d="M192 340q-31 0 -76 -46t-57 -77q-2 -6 -2 -7q0 -7 9 -7q27 0 83.5 43t56.5 73q0 21 -14 21zM264 327q0 -23 -9.5 -42t-32 -36.5t-37.5 -27t-49.5 -27.5t-45.5 -24q-8 -4 -24 -10.5t-26 -11.5t-11 -9q-2 -16 -2 -22q0 -40 23 -58.5t54 -18.5q72 0 212 140q6 6 14 6 t13.5 -5.5t5.5 -13.5q0 -9 -7 -16q-51 -52 -82.5 -80t-79 -52t-95.5 -24q-54 0 -83 37t-29 88q0 77 76 171t154 94q25 0 43 -15.5t18 -42.5zM139 541q31 0 31 -36q0 -16 -14.5 -29.5t-30.5 -13.5q-24 0 -24 44q0 15 11.5 25t26.5 10zM258 550q31 0 31 -33q0 -15 -14.5 -30.5 t-29.5 -15.5q-13 0 -20 12.5t-7 29.5q0 15 12.5 26t27.5 11z"/>
<glyph glyph-name="igrave" horiz-adv-x="278" unicode="ì" d="M11 151q-3 -2 -10 -2q-8 0 -14 5.5t-6 13.5q0 9 8 15q28 23 63 58t37 36q6 6 24.5 23.5t30.5 28t30.5 20.5t35.5 10q22 0 22 -23q0 -26 -26 -71q-38 -68 -70 -132q-1 -3 -8 -17t-11.5 -25t-4.5 -19q0 -11 9 -11q13 0 41 24q28 22 102 96q6 6 14 6t13.5 -5.5t5.5 -13.5 q0 -9 -8 -17q-11 -10 -39.5 -37t-50.5 -47t-39 -34q-2 -1 -10.5 -8t-13.5 -10.5t-13 -8t-16 -7t-16 -2.5q-35 0 -35 37q0 14 3 28q4 18 16 44t32.5 65t27.5 55q17 34 17 42q0 6 -4 6q-5 0 -15 -10q-9 -8 -56.5 -53t-65.5 -60zM203 595q9 -60 38 -116q3 -6 3 -11 q0 -8 -5.5 -14.5t-13.5 -6.5t-16 8q-18 18 -37.5 59.5t-19.5 67.5q0 13 9.5 21t21.5 8q17 0 20 -16z"/>
<glyph glyph-name="iacute" horiz-adv-x="278" unicode="í" d="M133 264q-19 -15 -63.5 -58.5t-58.5 -54.5q-3 -2 -10 -2q-8 0 -14 5.5t-6 13.5q0 9 8 15q28 23 63 58t37 36q6 6 24.5 23.5t30.5 28t30.5 20.5t35.5 10q22 0 22 -23q0 -26 -26 -71q-38 -68 -70 -132q-1 -3 -8 -17t-11.5 -25t-4.5 -19q0 -11 9 -11q13 0 41 24 q28 22 102 96q6 6 14 6t13.5 -5.5t5.5 -13.5q0 -9 -8 -17q-11 -10 -39.5 -37t-50.5 -47t-39 -34q-2 -1 -10.5 -8t-13.5 -10.5t-13 -8t-16 -7t-16 -2.5q-35 0 -35 37q0 14 3 28q4 18 16 44t32.5 65t27.5 55q17 34 17 42q0 6 -4 6q-5 0 -15 -10zM360 594q0 -12 -9 -24 q-46 -60 -109 -118q-11 -10 -20 -10q-13 0 -13 16q0 6 2.5 11t8 11.5t7.5 8.5q48 55 81 113q9 17 27 17q11 0 18 -7t7 -18z"/>
<glyph glyph-name="icircumflex" horiz-adv-x="278" unicode="î" d="M11 151q-3 -2 -10 -2q-8 0 -14 5.5t-6 13.5q0 9 8 15q28 23 63 58t37 36q6 6 24.5 23.5t30.5 28t30.5 20.5t35.5 10q22 0 22 -23q0 -26 -26 -71q-38 -68 -70 -132q-1 -3 -8 -17t-11.5 -25t-4.5 -19q0 -11 9 -11q13 0 41 24q28 22 102 96q6 6 14 6t13.5 -5.5t5.5 -13.5 q0 -9 -8 -17q-11 -10 -39.5 -37t-50.5 -47t-39 -34q-2 -1 -10.5 -8t-13.5 -10.5t-13 -8t-16 -7t-16 -2.5q-35 0 -35 37q0 14 3 28q4 18 16 44t32.5 65t27.5 55q17 34 17 42q0 6 -4 6q-5 0 -15 -10q-9 -8 -56.5 -53t-65.5 -60zM233 541q-59 -65 -103 -83q-6 -2 -8 -2 q-8 0 -13.5 6.5t-5.5 14.5q0 10 9 16q53 31 97 78q2 3 8 10t10 12t10.5 9.5t12.5 4.5q18 0 20 -18q4 -34 13 -63q1 -3 8.5 -21.5t7.5 -29.5q0 -10 -7 -17t-16 -7q-13 0 -20 13q-5 8 -9 19t-6 19t-4.5 20.5t-3.5 18.5z"/>
<glyph glyph-name="idieresis" horiz-adv-x="278" unicode="ï" d="M11 151q-3 -2 -10 -2q-8 0 -14 5.5t-6 13.5q0 9 8 15q28 23 63 58t37 36q6 6 24.5 23.5t30.5 28t30.5 20.5t35.5 10q22 0 22 -23q0 -26 -26 -71q-38 -68 -70 -132q-1 -3 -8 -17t-11.5 -25t-4.5 -19q0 -11 9 -11q13 0 41 24q28 22 102 96q6 6 14 6t13.5 -5.5t5.5 -13.5 q0 -9 -8 -17q-11 -10 -39.5 -37t-50.5 -47t-39 -34q-2 -1 -10.5 -8t-13.5 -10.5t-13 -8t-16 -7t-16 -2.5q-35 0 -35 37q0 14 3 28q4 18 16 44t32.5 65t27.5 55q17 34 17 42q0 6 -4 6q-5 0 -15 -10q-9 -8 -56.5 -53t-65.5 -60zM188 541q31 0 31 -36q0 -16 -14.5 -29.5 t-30.5 -13.5q-24 0 -24 44q0 15 11 25t27 10zM307 550q31 0 31 -33q0 -15 -14.5 -30.5t-29.5 -15.5q-13 0 -20 12.5t-7 29.5q0 15 12.5 26t27.5 11z"/>
<glyph glyph-name="eth" horiz-adv-x="391" unicode="ð" d="M468 675q8 0 13 -5.5t5 -13.5q0 -6 -3 -10.5t-6 -7.5t-9.5 -7.5t-9.5 -7.5q-23 -18 -75 -50q-13 -11 -11 -21q6 -33 6 -69q0 -102 -43.5 -215.5t-120 -194.5t-157.5 -81q-55 0 -55 66q0 47 22 89q2 4 2 5q0 2 -2 2q-1 0 -9 -3t-14 -3q-7 0 -13.5 5t-6.5 13q0 13 17 25 q124 97 156 118q45 29 67 29q18 0 18 -22q0 -13 -12.5 -25.5t-25 -19.5t-33.5 -16t-23 -10q-23 -12 -57.5 -79t-34.5 -105q0 -24 18 -24q37 0 81 38.5t70.5 78t42.5 71.5q62 129 62 254q0 15 -2 45q-2 11 -9 11q-4 0 -10 -3q-56 -28 -100 -48q-10 -5 -21 -5q-24 0 -24 25 q0 17 31 28q23 8 111 49q6 1 6 10q0 5 -15 38q-19 37 -58 60.5t-86 23.5q-135 0 -224 -126q-24 -33 -42 -33q-8 0 -14 5.5t-6 14.5q0 18 18 44t31 39q105 101 233 101q151 0 206 -136q4 -10 12 -10q18 0 69 41q3 2 9.5 8.5t12.5 10t13 3.5z"/>
<glyph glyph-name="ntilde" horiz-adv-x="618" unicode="ñ" d="M494 546q14 0 14 -20q0 -22 -32.5 -45t-56.5 -23q-20 0 -50 20t-48 20q-24 0 -44 -20q-10 -10 -19 -10q-15 0 -15 17q0 21 33.5 45t55.5 24t55 -22.5t48 -22.5q13 0 40 27q10 10 19 10zM635 156q-118 -112 -164 -138q-45 -26 -82 -26q-22 0 -37 14.5t-15 37.5q0 27 16 66 q4 9 26 50.5t39.5 80t17.5 54.5t-14 16q-31 0 -137 -81q-76 -58 -195 -182q-2 -2 -12 -14t-16.5 -18.5t-16.5 -13t-19 -6.5q-16 0 -16 16q0 7 5 16.5t10.5 17t13.5 17t10 11.5q95 125 124 236q-7 -1 -14 -6.5t-11 -9t-12.5 -13t-10.5 -11.5q-70 -82 -113 -118q-7 -5 -12 -5 q-7 0 -13 6.5t-6 14.5q0 9 7 15q45 37 143 157q46 59 77 59q14 0 22 -10.5t8 -26.5q0 -36 -29 -98l-13 -24q-13 -24 -13 -36q0 -1 0.5 -2.5t0.5 -2.5q13 5 30.5 19.5t42 37.5t34.5 32q79 67 135 67q30 0 51 -14.5t21 -44.5q0 -36 -25 -84t-50 -89t-25 -59q0 -21 18 -21 q17 0 45 17q57 35 144 121q6 6 14 6t13.5 -6t5.5 -14q0 -5 -3 -11z"/>
<glyph glyph-name="ograve" horiz-adv-x="379" unicode="ò" d="M256 364q31 0 47 -24t16 -58q0 -62 -36.5 -130.5t-98.5 -116.5t-126 -48q-39 0 -56 29.5t-17 69.5q0 10 3 27t3 23t-5 14t-5 16t6 15t18 15.5t18 15.5q12 13 30 36t36.5 41.5t46.5 36.5q31 17 40 17q15 0 15 -20q0 -40 -79 -97q-76 -55 -76 -143q0 -20 11.5 -33.5 t29.5 -13.5q63 0 129 83.5t66 152.5q0 26 -22 33q-26 9 -26 29q0 13 9 21.5t23 8.5zM219 595q9 -60 38 -116q3 -6 3 -11q0 -8 -5.5 -14.5t-13.5 -6.5t-16 8q-18 18 -37.5 59.5t-19.5 67.5q0 13 9.5 21t21.5 8q17 0 20 -16z"/>
<glyph glyph-name="oacute" horiz-adv-x="379" unicode="ó" d="M224 334q0 13 9 21.5t23 8.5q31 0 47 -24t16 -58q0 -62 -36.5 -130.5t-98.5 -116.5t-126 -48q-39 0 -56 29.5t-17 69.5q0 10 3 27t3 23t-5 14t-5 16t6 15t18 15.5t18 15.5q12 13 30 36t36.5 41.5t46.5 36.5q31 17 40 17q15 0 15 -20q0 -40 -79 -97q-76 -55 -76 -143 q0 -20 11.5 -33.5t29.5 -13.5q63 0 129 83.5t66 152.5q0 26 -22 33q-26 9 -26 29zM273 452q-11 -10 -20 -10q-13 0 -13 16q0 6 2.5 11t8 11.5t7.5 8.5q48 55 81 113q9 17 27 17q11 0 18 -7t7 -18q0 -12 -9 -24q-46 -60 -109 -118z"/>
<glyph glyph-name="ocircumflex" horiz-adv-x="379" unicode="ô" d="M256 364q31 0 47 -24t16 -58q0 -62 -36.5 -130.5t-98.5 -116.5t-126 -48q-39 0 -56 29.5t-17 69.5q0 10 3 27t3 23t-5 14t-5 16t6 15t18 15.5t18 15.5q12 13 30 36t36.5 41.5t46.5 36.5q31 17 40 17q15 0 15 -20q0 -40 -79 -97q-76 -55 -76 -143q0 -20 11.5 -33.5 t29.5 -13.5q63 0 129 83.5t66 152.5q0 26 -22 33q-26 9 -26 29q0 13 9 21.5t23 8.5zM274 541q-59 -65 -103 -83q-6 -2 -8 -2q-8 0 -13.5 6.5t-5.5 14.5q0 10 9 16q53 31 97 78q2 3 8 10t10 12t10.5 9.5t12.5 4.5q18 0 20 -18q4 -34 13 -63q1 -3 8.5 -21.5t7.5 -29.5 q0 -10 -7 -17t-16 -7q-13 0 -20 13q-5 8 -9 19t-6 19t-4.5 20.5t-3.5 18.5z"/>
<glyph glyph-name="otilde" horiz-adv-x="379" unicode="õ" d="M365 546q14 0 14 -20q0 -22 -32.5 -45t-56.5 -23q-20 0 -50 20t-48 20q-24 0 -44 -20q-10 -10 -19 -10q-15 0 -15 17q0 21 33.5 45t55.5 24t55 -22.5t48 -22.5q13 0 40 27q10 10 19 10zM256 364q31 0 47 -24t16 -58q0 -62 -36.5 -130.5t-98.5 -116.5t-126 -48 q-39 0 -56 29.5t-17 69.5q0 10 3 27t3 23t-5 14t-5 16t6 15t18 15.5t18 15.5q12 13 30 36t36.5 41.5t46.5 36.5q31 17 40 17q15 0 15 -20q0 -40 -79 -97q-76 -55 -76 -143q0 -20 11.5 -33.5t29.5 -13.5q63 0 129 83.5t66 152.5q0 26 -22 33q-26 9 -26 29q0 13 9 21.5t23 8.5 z"/>
<glyph glyph-name="odieresis" horiz-adv-x="379" unicode="ö" d="M256 364q31 0 47 -24t16 -58q0 -62 -36.5 -130.5t-98.5 -116.5t-126 -48q-39 0 -56 29.5t-17 69.5q0 10 3 27t3 23t-5 14t-5 16t6 15t18 15.5t18 15.5q12 13 30 36t36.5 41.5t46.5 36.5q31 17 40 17q15 0 15 -20q0 -40 -79 -97q-76 -55 -76 -143q0 -20 11.5 -33.5 t29.5 -13.5q63 0 129 83.5t66 152.5q0 26 -22 33q-26 9 -26 29q0 13 9 21.5t23 8.5zM194 541q31 0 31 -36q0 -16 -14.5 -29.5t-30.5 -13.5q-24 0 -24 44q0 15 11 25t27 10zM313 550q31 0 31 -33q0 -15 -14.5 -30.5t-29.5 -15.5q-13 0 -20 12.5t-7 29.5q0 15 12.5 26t27.5 11 z"/>
<glyph glyph-name="divide" horiz-adv-x="652" unicode="÷" d="M387 475q30 -7 30 -31q0 -1 -0.5 -3.5t-0.5 -3.5q-8 -42 -39 -42h-6q-22 5 -22 39q0 11 1 15q6 27 31 27q1 0 3 -0.5t3 -0.5zM276 164q0 -26 -14 -40.5t-30 -14.5q-28 0 -28 49q0 14 8.5 25.5t20.5 11.5t27.5 -9.5t15.5 -21.5zM605 281q0 -15 -17 -15q-72 0 -216 4.5 t-215 4.5q-11 0 -33 -0.5t-33 -0.5h-17q-20 0 -20 19t21 21q5 0 31.5 2t38.5 2q75 0 220 -8.5t220 -8.5q10 0 15 -6.5t5 -13.5z"/>
<glyph glyph-name="oslash" horiz-adv-x="379" unicode="ø" d="M89 32q2 0 5.5 -0.5t5.5 -0.5q27 0 53 13q43 21 83.5 76.5t51.5 111.5q4 8 4 39q0 27 -10 27q-8 0 -25 -24q-132 -192 -168 -242zM262 363q86 123 118 158q9 9 21 9q10 0 17 -6t7 -15q0 -8 -6 -17q-16 -22 -49 -64t-46 -59q-3 -5 -3 -13q0 -10 9 -33.5t9 -40.5 q0 -74 -52 -156.5t-114 -116.5q-38 -20 -94 -20q-14 0 -21 1q-8 -11 -30.5 -42.5t-39.5 -52t-35 -38.5q-8 -6 -16 -6q-18 0 -18 20q0 7 2 11q16 24 49.5 64t46.5 57l-1 1q-31 27 -31 82q0 19 6 45q0 1 0.5 2.5t0.5 2.5q0 5 -5 14t-5 16q0 9 6 15.5t17.5 15.5t17.5 15 q13 13 31.5 37.5t36 42.5t40.5 31q31 18 46 18q13 0 13 -14q0 -18 -22 -48t-51 -49q-28 -18 -54.5 -63t-26.5 -82q0 -19 12 -38q29 40 60.5 86.5t68.5 103t59 88.5q-3 6 -3 12q0 19 29 26z"/>
<glyph glyph-name="ugrave" horiz-adv-x="571" unicode="ù" d="M104 208l5 10q16 32 16 37q0 2 -2 2q-12 0 -93 -90q-3 -5 -13 -12.5t-18 -7.5q-7 0 -12 6.5t-5 14.5q0 12 26 34q70 65 141 149q1 1 10.5 13t15.5 19t16 14t18 7q22 0 22 -29q0 -25 -18 -65q-9 -19 -37.5 -73t-42.5 -89q-23 -58 -23 -87q0 -11 10 -11q28 0 93 62 q69 63 166 176q2 2 10.5 12.5t15 17.5t15.5 15.5t18.5 13t18.5 4.5q25 0 25 -28q0 -19 -13 -47q-33 -67 -56 -120q-33 -77 -33 -100q0 -10 10 -10q21 0 51 24q19 15 63.5 59t49.5 49q10 10 18 10q7 0 12.5 -6t5.5 -13q0 -11 -9 -20q-11 -10 -42 -40t-54.5 -51.5t-43.5 -35.5 q-43 -32 -66 -32q-50 0 -50 48q0 30 24 90q4 11 14 32t17 38.5t9 31.5q-11 -5 -23 -16t-27 -29t-20 -23q-46 -50 -120 -114q-2 -2 -10.5 -9.5t-12 -10.5t-11 -9t-13 -9t-13.5 -6.5t-15.5 -5t-15.5 -1.5q-24 0 -37.5 18t-13.5 50q0 47 47 143zM319 595q9 -60 38 -116 q3 -6 3 -11q0 -8 -5.5 -14.5t-13.5 -6.5t-16 8q-18 18 -37.5 59.5t-19.5 67.5q0 13 9.5 21t21.5 8q17 0 20 -16z"/>
<glyph glyph-name="uacute" horiz-adv-x="571" unicode="ú" d="M104 208l5 10q16 32 16 37q0 2 -2 2q-12 0 -93 -90q-3 -5 -13 -12.5t-18 -7.5q-7 0 -12 6.5t-5 14.5q0 12 26 34q70 65 141 149q1 1 10.5 13t15.5 19t16 14t18 7q22 0 22 -29q0 -25 -18 -65q-9 -19 -37.5 -73t-42.5 -89q-23 -58 -23 -87q0 -11 10 -11q28 0 93 62 q69 63 166 176q2 2 10.5 12.5t15 17.5t15.5 15.5t18.5 13t18.5 4.5q25 0 25 -28q0 -19 -13 -47q-33 -67 -56 -120q-33 -77 -33 -100q0 -10 10 -10q21 0 51 24q19 15 63.5 59t49.5 49q10 10 18 10q7 0 12.5 -6t5.5 -13q0 -11 -9 -20q-11 -10 -42 -40t-54.5 -51.5t-43.5 -35.5 q-43 -32 -66 -32q-50 0 -50 48q0 30 24 90q4 11 14 32t17 38.5t9 31.5q-11 -5 -23 -16t-27 -29t-20 -23q-46 -50 -120 -114q-2 -2 -10.5 -9.5t-12 -10.5t-11 -9t-13 -9t-13.5 -6.5t-15.5 -5t-15.5 -1.5q-24 0 -37.5 18t-13.5 50q0 47 47 143zM467 594q0 -12 -9 -24 q-46 -60 -109 -118q-11 -10 -20 -10q-13 0 -13 16q0 6 2.5 11t8 11.5t7.5 8.5q48 55 81 113q9 17 27 17q11 0 18 -7t7 -18z"/>
<glyph glyph-name="ucircumflex" horiz-adv-x="571" unicode="û" d="M104 208l5 10q16 32 16 37q0 2 -2 2q-12 0 -93 -90q-3 -5 -13 -12.5t-18 -7.5q-7 0 -12 6.5t-5 14.5q0 12 26 34q70 65 141 149q1 1 10.5 13t15.5 19t16 14t18 7q22 0 22 -29q0 -25 -18 -65q-9 -19 -37.5 -73t-42.5 -89q-23 -58 -23 -87q0 -11 10 -11q28 0 93 62 q69 63 166 176q2 2 10.5 12.5t15 17.5t15.5 15.5t18.5 13t18.5 4.5q25 0 25 -28q0 -19 -13 -47q-33 -67 -56 -120q-33 -77 -33 -100q0 -10 10 -10q21 0 51 24q19 15 63.5 59t49.5 49q10 10 18 10q7 0 12.5 -6t5.5 -13q0 -11 -9 -20q-11 -10 -42 -40t-54.5 -51.5t-43.5 -35.5 q-43 -32 -66 -32q-50 0 -50 48q0 30 24 90q4 11 14 32t17 38.5t9 31.5q-11 -5 -23 -16t-27 -29t-20 -23q-46 -50 -120 -114q-2 -2 -10.5 -9.5t-12 -10.5t-11 -9t-13 -9t-13.5 -6.5t-15.5 -5t-15.5 -1.5q-24 0 -37.5 18t-13.5 50q0 47 47 143zM389 541q-59 -65 -103 -83 q-6 -2 -8 -2q-8 0 -13.5 6.5t-5.5 14.5q0 10 9 16q53 31 97 78q2 3 8 10t10 12t10.5 9.5t12.5 4.5q18 0 20 -18q4 -34 13 -63q1 -3 8.5 -21.5t7.5 -29.5q0 -10 -7 -17t-16 -7q-13 0 -20 13q-5 8 -9 19t-6 19t-4.5 20.5t-3.5 18.5z"/>
<glyph glyph-name="udieresis" horiz-adv-x="571" unicode="ü" d="M104 208l5 10q16 32 16 37q0 2 -2 2q-12 0 -93 -90q-3 -5 -13 -12.5t-18 -7.5q-7 0 -12 6.5t-5 14.5q0 12 26 34q70 65 141 149q1 1 10.5 13t15.5 19t16 14t18 7q22 0 22 -29q0 -25 -18 -65q-9 -19 -37.5 -73t-42.5 -89q-23 -58 -23 -87q0 -11 10 -11q28 0 93 62 q69 63 166 176q2 2 10.5 12.5t15 17.5t15.5 15.5t18.5 13t18.5 4.5q25 0 25 -28q0 -19 -13 -47q-33 -67 -56 -120q-33 -77 -33 -100q0 -10 10 -10q21 0 51 24q19 15 63.5 59t49.5 49q10 10 18 10q7 0 12.5 -6t5.5 -13q0 -11 -9 -20q-11 -10 -42 -40t-54.5 -51.5t-43.5 -35.5 q-43 -32 -66 -32q-50 0 -50 48q0 30 24 90q4 11 14 32t17 38.5t9 31.5q-11 -5 -23 -16t-27 -29t-20 -23q-46 -50 -120 -114q-2 -2 -10.5 -9.5t-12 -10.5t-11 -9t-13 -9t-13.5 -6.5t-15.5 -5t-15.5 -1.5q-24 0 -37.5 18t-13.5 50q0 47 47 143zM310 541q31 0 31 -36 q0 -16 -14.5 -29.5t-30.5 -13.5q-24 0 -24 44q0 15 11 25t27 10zM429 550q31 0 31 -33q0 -15 -14.5 -30.5t-29.5 -15.5q-13 0 -20 12.5t-7 29.5q0 15 12.5 26t27.5 11z"/>
<glyph glyph-name="yacute" horiz-adv-x="439" unicode="ý" d="M387 594q0 -12 -9 -24q-46 -60 -109 -118q-11 -10 -20 -10q-13 0 -13 16q0 6 2.5 11t8 11.5t7.5 8.5q48 55 81 113q9 17 27 17q11 0 18 -7t7 -18zM376 292l-50 -74q-164 -243 -258 -355q-274 -327 -526 -335h-13q-65 0 -125.5 30.5t-61.5 76.5q0 6 5.5 9.5t10.5 -1.5 q78 -72 206 -72q257 0 621 513q2 2 10 14.5t8 17.5q0 4 -3 4q-1 0 -58 -33q-66 -37 -102 -37q-33 0 -48 20t-15 69q0 28 27 83.5t62 101t56 45.5q12 0 18.5 -6t6.5 -15q0 -12 -31.5 -56t-62.5 -93.5t-31 -74.5q0 -29 29 -29q39 0 128 66t127 117q3 4 19 34t33.5 51t33.5 21 q9 0 16 -7t7 -15q0 -15 -39 -70z"/>
<glyph glyph-name="thorn" horiz-adv-x="569" unicode="þ" d="M106 117q8 4 23 20t34.5 37.5t28.5 30.5q49 49 76 74.5t75 58t89 43.5q12 3 23 3q19 0 32 -10.5t13 -30.5q0 -25 -17 -64q-9 -20 -21 -40t-30.5 -47.5t-24.5 -36.5q-36 -53 -36 -73q0 -12 19 -12q20 0 40 9q41 19 126 102q6 6 13 6q8 0 14.5 -6t6.5 -14q0 -5 -5 -12 q-89 -93 -170 -121q-28 -10 -54 -10q-47 0 -47 44q0 31 25 78t54 92.5t34 65.5q3 12 -9 12q-22 0 -66 -29q-93 -65 -220 -204q-73 -79 -205 -269q-21 -32 -43 -32q-6 0 -10.5 6t-4.5 13q0 13 19 40q137 215 262 440q10 18 6 18q-5 0 -36 -32.5t-64 -69t-40 -41.5 q-7 -7 -15 -7q-7 0 -12.5 5.5t-5.5 13.5t6 16q195 207 276 306l54 78q54 77 87 115q36 45 60 45q10 0 17 -7.5t7 -18.5q0 -19 -41 -64q-101 -116 -191.5 -256t-151.5 -265z"/>
<glyph glyph-name="OE" horiz-adv-x="813" unicode="Œ" d="M529 400q-13 0 -21 -15q-6 -9 -34 -79q0 -1 -4.5 -10t-4.5 -13t5 -4q1 0 13 9q29 22 47 29q3 1 17 4.5t23.5 8.5t9.5 12q0 2 -4.5 6.5t-12.5 11.5t-13 13q-4 5 -8.5 12.5t-7 11t-5.5 3.5zM426 562q-46 0 -89 -52t-43 -98q0 -15 8.5 -21t27.5 -6q10 0 62 8q33 5 48.5 10.5 t27.5 22.5t12 47q0 39 -13.5 64t-40.5 25zM796 652q-64 0 -126.5 -43t-76.5 -108q-2 -6 5 -6q9 0 52 26q20 12 48 36t48.5 39.5t33.5 15.5q18 0 18 -15q0 -10 -13 -31l-13 -21q-11 -24 -11 -42q0 -34 32 -34t56.5 31t24.5 74q0 35 -20.5 56.5t-57.5 21.5zM924 575 q0 -69 -42 -110t-93 -41q-35 0 -52 20t-21.5 40t-8.5 20q-7 0 -31 -15.5t-36 -25.5q-4 -3 -18.5 -9.5t-25.5 -13.5t-11 -14q0 -19 32 -44q12 -9 33 -17t31.5 -16t10.5 -22q0 -15 -16 -22t-48 -10t-36 -4q-75 -16 -124 -65.5t-49 -118.5q0 -44 30 -67.5t71 -23.5 q31 0 63.5 12.5t49.5 23.5t49 33q13 9 44.5 35.5t55 44t33.5 17.5q6 0 10.5 -5t4.5 -11q0 -8 -8.5 -19t-16.5 -18t-21 -17t-14 -11q-69 -58 -132 -92.5t-135 -34.5q-133 0 -133 140q0 8 2 30q0 3 -1 3q-4 0 -25 -21l-47.5 -47.5t-38.5 -35.5q-85 -65 -143 -65q-49 0 -72 48 t-23 122q0 228 130 397q52 67 115 110t126 43q26 0 46.5 -12t20.5 -36q0 -7 -9.5 -14t-19.5 -7t-26.5 11.5t-28.5 11.5q-9 0 -18.5 -2.5t-15 -4.5t-16 -7.5t-12.5 -6.5q-108 -53 -175 -196q-67 -144 -67 -280q0 -9 1.5 -23.5t6 -39.5t16.5 -41.5t29 -16.5q68 0 160.5 89.5 t140.5 175.5q21 42 21 50q0 9 -11 9q-12 0 -51 -11.5t-61 -11.5q-38 0 -56.5 17t-18.5 58q0 76 71 138.5t113 62.5q32 0 53.5 -41.5t30 -83t9.5 -41.5l8 25q8 24 19.5 56t20.5 47q74 121 221 121q55 0 92 -30t37 -89z"/>
<glyph glyph-name="oe" horiz-adv-x="600" unicode="œ" d="M451 340q-34 0 -86 -56q-54 -58 -54 -81q0 -5 6 -5q12 0 39 15q39 20 74 52t35 54q0 21 -14 21zM317 310l2 -17q75 92 144 92q25 0 42.5 -16t17.5 -42q0 -23 -9.5 -42t-32 -36.5t-37.5 -27t-49.5 -27.5t-45.5 -24q-8 -4 -24 -10.5t-26 -11.5t-11 -9q-2 -16 -2 -22 q0 -40 23 -58.5t54 -18.5q72 0 212 140q6 6 14 6t13.5 -5.5t5.5 -13.5q0 -9 -7 -16q-51 -52 -82.5 -80t-79 -52t-95.5 -24q-89 0 -98 92q-40 -50 -93 -78q-38 -20 -83 -20q-36 0 -54 15q-31 27 -31 82q0 19 6 45q0 1 0.5 2.5t0.5 2.5q0 6 -5 14.5t-5 15.5t4 13.5t9 10.5 t14 10.5t14 11.5q6 7 22.5 28.5t24.5 30.5t26 25t40 30q31 17 40 17q15 0 15 -20q0 -43 -79 -97q-32 -23 -45 -44q-31 -51 -31 -99q0 -21 14.5 -36t37.5 -15q45 0 89.5 42.5t70.5 99t26 102.5q0 33 -21 33q-2 0 -6 -0.5t-6 -0.5q-16 0 -16 26q0 14 12 21.5t29 7.5 q41 0 51 -53z"/>
<glyph glyph-name="Scaron" horiz-adv-x="419" unicode="Š" d="M88 231q-28 0 -48 -46t-20 -80t14.5 -56t45.5 -22q50 0 82 26q25 21 25 30q0 7 -32 19q-17 8 -31 31t-19 49q-11 49 -17 49zM259 81q-11 -5 -38 -31t-62 -46t-79 -20q-49 0 -76 35.5t-27 84.5q0 55 42 121t89 66q17 0 24.5 -15.5t10 -43t6.5 -37.5q22 -62 55 -62 q25 0 25 46q0 39 -31 123t-31 137q0 108 69.5 188t172.5 80q52 0 80 -31t28 -71q0 -70 -51.5 -133t-101.5 -63q-25 0 -40.5 16t-15.5 44q0 13 8 25.5t22 12.5q17 0 17.5 -27t15.5 -27q34 0 69.5 51t35.5 94q0 66 -69 66q-78 0 -133.5 -64.5t-55.5 -154.5q0 -16 2 -33 t4 -28.5t7 -29t7.5 -25l9 -27t8.5 -24.5q20 -63 20 -83q0 -23 -3.5 -41.5t-3.5 -22.5q0 -7 9 -7q20 0 62 17t70 44q2 2 8 2q8 0 16 -4.5t8 -11.5t-12 -18q-75 -61 -171 -72zM452 818q65 69 113 89q6 2 9 2q18 0 18 -19q0 -10 -9 -16q-64 -37 -118 -98q-19 -24 -30 -24 q-17 0 -20 18q-3 14 -18 57t-15 57q0 10 7.5 17t17.5 7q13 0 22 -13q5 -8 9 -19t6 -19t4.5 -20.5t3.5 -18.5z"/>
<glyph glyph-name="scaron" horiz-adv-x="350" unicode="š" d="M280 583q65 69 113 89q6 2 9 2q18 0 18 -19q0 -10 -9 -16q-64 -37 -118 -98q-19 -24 -30 -24q-17 0 -20 18q-3 14 -18 57t-15 57q0 10 7.5 17t17.5 7q13 0 22 -13q5 -8 9 -19t6 -19t4.5 -20.5t3.5 -18.5zM165 80q-10 0 -39 -12t-37 -19q-40 -32 -40 -57q0 -28 39 -28 q24 0 48 15q35 24 35 82q0 19 -6 19zM280 436q0 -24 -32 -56t-38 -49q-4 -12 -4 -32q0 -4 6 -70q0 -3 1.5 -30.5t4.5 -41.5q4 -19 19 -19q20 0 50.5 13t45.5 28q11 9 18 9q8 0 13.5 -6.5t5.5 -15.5q0 -7 -6 -13q-16 -16 -50 -31t-52 -19q-35 -9 -40 -16q-6 -11 -7.5 -32.5 t-2.5 -25.5q-10 -47 -44 -76q-36 -30 -85 -30q-33 0 -56.5 16.5t-23.5 47.5q0 39 33 70t72 46q53 19 58 30q4 11 4 32q0 16 -2 42q-5 46 -5 48q0 1 -1 4t-1.5 6t-2.5 5.5t-4 2.5q-6 0 -14 -6t-19.5 -17.5l-12.5 -12.5q-50 -47 -94 -83q-8 -6 -16 -6q-7 0 -12 4.5t-5 11.5 q0 9 10 18q8 7 39.5 35.5t53.5 49t37 37.5q31 34 39 53q3 9 7 28t8 27q22 47 74 47q31 0 31 -23z"/>
<glyph glyph-name="Ydieresis" horiz-adv-x="548" unicode="Ÿ" d="M51 56q-16 0 -25.5 -19.5t-9.5 -43.5q0 -21 26 -21q18 0 23 6t5 27q0 51 -19 51zM606 594q22 0 22 -25q0 -15 -8 -36q-64 -161 -147 -276t-213 -217q-44 -35 -69 -53t-68.5 -38t-79.5 -20q-33 0 -53 17.5t-20 47.5q0 34 27.5 73t61.5 39q25 0 39 -15t16.5 -33.5 t6.5 -33.5t10 -15q10 0 24.5 7t32.5 21t30.5 24.5t30.5 27t22 19.5t12.5 10t13 10.5t8.5 9.5t4 12q0 8 -5.5 23t-6.5 23q-15 75 -15 177q0 103 13 213l7 56q0 6 -2 6q-5 0 -24 -58.5t-23 -79.5q-13 -72 -13 -127q0 -19 4 -59.5t4 -60.5q0 -37 -24 -37q-35 0 -35 138 q0 59 16.5 140.5t46 146.5t60.5 65q44 0 44 -38q0 -13 -5 -53.5t-7 -68.5q-7 -108 -7 -181q0 -109 14 -187q2 -5 4 -5q4 0 11.5 9t18 24t12.5 18q72 89 111 161.5t66 166.5q6 19 12 25.5t20 6.5zM454 780q31 0 31 -36q0 -16 -14.5 -29.5t-30.5 -13.5q-24 0 -24 44 q0 15 11 25t27 10zM589 767q31 0 31 -33q0 -15 -14.5 -30.5t-29.5 -15.5q-13 0 -20 12.5t-7 29.5q0 15 12.5 26t27.5 11z"/>
<glyph glyph-name="circumflex" horiz-adv-x="267" unicode="ˆ" d="M162 541q-59 -65 -103 -83q-6 -2 -8 -2q-8 0 -13.5 6.5t-5.5 14.5q0 10 9 16q53 31 97 78q2 3 8 10t10 12t10.5 9.5t12.5 4.5q18 0 20 -18q4 -34 13 -63q1 -3 8.5 -21.5t7.5 -29.5q0 -10 -7 -17t-16 -7q-13 0 -20 13q-5 8 -9 19t-6 19t-4.5 20.5t-3.5 18.5z"/>
<glyph glyph-name="tilde" horiz-adv-x="331" unicode="˜" d="M284 546q14 0 14 -20q0 -22 -32.5 -45t-56.5 -23q-20 0 -50 20t-48 20q-24 0 -44 -20q-10 -10 -19 -10q-15 0 -15 17q0 21 33.5 45t55.5 24t55 -22.5t48 -22.5q13 0 40 27q10 10 19 10z"/>
<glyph glyph-name="afii10023" horiz-adv-x="423" unicode="Ё" d="M203 458q25 61 57 110q1 1 5.5 8t8 12t10 13.5t12 14.5t12 12t12.5 9t12 3q17 0 17 -16q0 -12 -10.5 -40t-10.5 -43q0 -24 15 -38t36 -14q35 0 57.5 35.5t22.5 74.5q0 38 -24 59t-65 21q-73 0 -128 -51t-55 -124q0 -31 16 -46zM215 339q-9 -20 -9.5 -60t-4 -66t-21.5 -26 q-14 2 -14 42q0 28 10 101q-53 -10 -103 -64t-50 -124q0 -48 32.5 -79.5t84.5 -31.5q60 0 132.5 42t137.5 107q7 7 15 7q7 0 12.5 -6.5t5.5 -14.5t-5 -13q-173 -173 -304 -173q-80 0 -121 43t-41 109q0 64 36.5 124.5t96.5 89.5q7 3 31.5 12.5t39.5 17.5t15 13 q0 6 -14.5 25.5t-19.5 30.5q-16 36 -16 74q0 83 70 142t162 59q58 0 96 -33t38 -88q0 -61 -39 -106.5t-90 -45.5q-88 0 -88 98l-1 2q-7 0 -30.5 -48t-23.5 -71q0 -15 30.5 -31t30.5 -30q0 -13 -17 -17.5t-38 -5.5t-26 -5zM326 871q31 0 31 -36q0 -16 -14.5 -29.5 t-30.5 -13.5q-24 0 -24 44q0 15 11 25t27 10zM445 880q31 0 31 -33q0 -15 -14.5 -30.5t-29.5 -15.5q-13 0 -20 12.5t-7 29.5q0 15 12.5 26t27.5 11z"/>
<glyph glyph-name="afii10051" horiz-adv-x="728" unicode="Ђ" d="M490 51q-114 -16 -208 -67.5t-94 -114.5q0 -46 50 -46q42 0 109.5 48.5t122.5 107.5q46 50 46 64q0 9 -9 9q-2 0 -8 -0.5t-9 -0.5zM126 135q-13 1 -13 18q0 5 1.5 15t1.5 15q0 31 -22 31q-38 0 -64.5 -43.5t-26.5 -73.5q0 -46 36 -46q23 0 53 16t50 34q21 18 62 67t60 86 q7 17 0 17q-28 0 -88 -78q-1 -1 -6.5 -10t-10 -16t-11 -15t-12 -12.5t-10.5 -4.5zM448 751q2 0 5 0.5t5 0.5q37 0 37 -37q0 -5 -0.5 -14t-0.5 -14q0 -19 9 -26t41 -7q144 0 218 13q33 6 45 6q25 0 25 -19q0 -8 -6 -14.5t-17.5 -10t-23.5 -6.5t-29 -4.5t-28 -2t-27 -1 t-21 -0.5q-4 0 -14 -0.5t-15 -0.5q-15 0 -50 0.5t-59 0.5q-41 0 -52 -6q-9 -6 -18 -25t-19 -48t-12 -34q-2 -6 -13.5 -29.5t-18 -40.5t-6.5 -27q0 -9 23 -9q10 0 37 2.5t37 2.5q69 0 109 -40.5t40 -106.5q0 -21 -5 -51q0 -2 -6 -22.5t-6 -29.5q0 -12 14 -12q8 0 18 4.5 t17 9.5t19.5 16t18.5 15q4 4 10 4q7 0 12.5 -6t5.5 -14t-5 -14q-17 -22 -46 -35q-14 -9 -50 -23t-50 -25q-5 -4 -10.5 -11t-13 -18t-10.5 -15q-94 -130 -192 -194q-78 -51 -140 -51q-33 0 -59.5 21t-26.5 64q0 29 15 58.5t33 47.5q68 71 262 112q8 2 31 5.5t39 8t28 12.5 q18 11 32 53.5t14 85.5q0 108 -128 108q-64 0 -104 -29q-11 -8 -21 -23.5t-21.5 -37.5t-19.5 -33q-44 -65 -66 -90q-67 -77 -103 -103q-49 -36 -95 -36q-43 0 -64 28.5t-21 64.5q0 73 47 116t94 43q22 0 60 -25q18 26 58 58.5t64 47.5q5 4 23.5 12.5t24.5 15.5q7 7 12 16.5 t10 21.5t8 18q40 82 54 118q17 40 17 55q0 19 -46 19q-14 0 -30.5 -1t-32.5 -3t-20 -2q-154 -16 -154 -74q0 -34 48 -55.5t94 -21.5h16q26 0 26 -19q0 -21 -40 -21q-25 0 -54.5 5.5t-62.5 17t-54.5 35.5t-21.5 57q0 19 7 35t21.5 27.5t30 20.5t39 15t42 10t45 6.5t41.5 3.5 t38.5 2.5t30.5 1.5q4 0 12.5 -0.5t13.5 -0.5q43 0 43 33q0 14 -12 14q-4 0 -14.5 -4.5t-16.5 -4.5t-11 5.5t-5 12.5q0 14 17.5 25.5t30.5 15.5z"/>
<glyph glyph-name="afii10052" horiz-adv-x="511" unicode="Ѓ" d="M712 910q0 -12 -9 -24q-46 -60 -109 -118q-11 -10 -20 -10q-13 0 -13 16q0 6 2.5 11t8 11.5t7.5 8.5q48 55 81 113q9 17 27 17q11 0 18 -7t7 -18zM115 78q0 14 -46.5 34t-59.5 20q-25 0 -39 -14t-14 -35q0 -42 54 -42q21 0 63 12.5t42 24.5zM502 588q-5 -5 -9 -13 t-9 -20.5t-8 -19.5q-8 -17 -37.5 -80.5t-43 -90.5t-40 -76t-53.5 -87.5t-58 -75.5q-29 -34 -29 -41q0 -3 12 -11t34.5 -15t44.5 -7q19 0 38 7t42 24.5t37 29t41.5 37.5t36.5 34q7 5 12 5q7 0 12.5 -7t5.5 -15t-5 -13q-73 -73 -131 -111.5t-110 -38.5q-39 0 -78 19 q-7 3 -16 9.5t-15 10.5t-9 4q-11 0 -36 -13t-30 -15q-55 -21 -106 -21q-39 0 -62 18.5t-23 48.5q0 43 32.5 81.5t78.5 38.5q27 0 79 -26q5 -3 17.5 -14t25 -18.5t23.5 -7.5q41 0 138 175.5t139 283.5q0 8 -28 8h-16q-28 0 -45.5 -0.5t-51 -2t-55.5 -6.5t-45.5 -12.5 t-35.5 -21t-12 -30.5q0 -48 50 -48q34 0 69 33q5 5 13 5q15 0 15 -15q0 -31 -36 -52t-72 -21q-33 0 -58.5 22t-25.5 64q0 34 18.5 58t47.5 37.5t76.5 21t92 9.5t108.5 2q7 0 14.5 16t7.5 38q0 4 -4 4q-5 0 -17.5 -7t-18.5 -7q-11 0 -11 14q0 17 24.5 29.5t40.5 12.5 q38 0 38 -44q0 -8 -2.5 -20.5t-2.5 -15.5q0 -7 6 -8.5t25 -1.5q61 0 108.5 9.5t69.5 20.5t42 20.5t33 9.5q7 0 14 -5.5t7 -14.5q0 -35 -70.5 -53.5t-163.5 -24.5q-6 0 -22.5 -1t-26.5 -1.5t-22.5 -3t-18.5 -6.5z"/>
<glyph glyph-name="afii10053" horiz-adv-x="420" unicode="Є" d="M405 726q42 0 62 -28t20 -72q0 -69 -41.5 -135t-92.5 -66q-46 0 -46 67q0 29 22 63t40 34q7 0 13 -6.5t6 -13.5q0 -15 -18.5 -37t-18.5 -45q0 -19 17 -19q14 0 27.5 16t18.5 27q12 21 22.5 56t10.5 64q0 57 -43 57q-6 0 -11.5 -1t-12 -3.5t-11.5 -4.5t-11.5 -6t-10.5 -6 t-10.5 -7.5t-9 -7t-9.5 -7t-8 -6.5q-110 -88 -177 -233l-7 -14q-7 -13 -13 -26.5t-6 -20.5q0 -11 16 -7q35 11 56 11q19 0 62 -11t70 -11q8 0 24.5 6t22.5 6q12 0 12 -16t-27.5 -25.5t-50.5 -10.5h-11q-26 0 -60 8t-44 8q-61 0 -79.5 -27.5t-18.5 -101.5q0 -61 24 -100.5 t73 -39.5q35 0 71.5 17.5t55.5 32.5t58.5 53t46.5 45q8 6 14 6q7 0 13 -6t6 -14t-7 -15q-1 -1 -12 -12.5t-19 -19t-23.5 -22t-29 -25.5t-32 -24.5t-36.5 -23t-37.5 -18.5t-40 -13.5t-39.5 -4.5q-63 0 -98 48t-35 118q0 5 -0.5 18.5t-0.5 21.5q0 18 -4 25.5t-9 7t-9 4 t-4 17.5q0 15 22 38t23 25q7 11 14 37t10 33q28 73 79 149.5t121 135t131 58.5z"/>
<glyph glyph-name="afii10054" horiz-adv-x="419" unicode="Ѕ" d="M88 231q-28 0 -48 -46t-20 -80t14.5 -56t45.5 -22q50 0 82 26q25 21 25 30q0 7 -32 19q-17 8 -31 31t-19 49q-11 49 -17 49zM259 81q-11 -5 -38 -31t-62 -46t-79 -20q-49 0 -76 35.5t-27 84.5q0 55 42 121t89 66q17 0 24.5 -15.5t10 -43t6.5 -37.5q22 -62 55 -62 q25 0 25 46q0 39 -31 123t-31 137q0 108 69.5 188t172.5 80q52 0 80 -31t28 -71q0 -70 -51.5 -133t-101.5 -63q-25 0 -40.5 16t-15.5 44q0 13 8 25.5t22 12.5q17 0 17.5 -27t15.5 -27q34 0 69.5 51t35.5 94q0 66 -69 66q-78 0 -133.5 -64.5t-55.5 -154.5q0 -16 2 -33 t4 -28.5t7 -29t7.5 -25l9 -27t8.5 -24.5q20 -63 20 -83q0 -23 -3.5 -41.5t-3.5 -22.5q0 -7 9 -7q20 0 62 17t70 44q2 2 8 2q8 0 16 -4.5t8 -11.5t-12 -18q-75 -61 -171 -72z"/>
<glyph glyph-name="afii10055" horiz-adv-x="348" unicode="І" d="M491 832q23 0 23 -26q0 -17 -16 -36.5t-34 -19.5q-21 0 -21 31q0 21 13 36t35 15zM319 525q-16 -4 -64.5 -59t-62.5 -55q-13 0 -13 17q0 14 12.5 29.5t46.5 47t56 55.5q10 10 30.5 39t36.5 42.5t34 13.5q27 0 27 -32q0 -12 -4 -26t-13.5 -33t-15 -29t-19.5 -32.5 t-16 -26.5q-119 -205 -225 -407q-24 -45 -25 -74q0 -24 20 -24q22 0 54.5 28t42.5 28q13 0 13 -14q0 -22 -41.5 -58t-81.5 -36q-32 0 -47.5 21t-15.5 49q0 50 54 152q63 116 217 384z"/>
<glyph glyph-name="afii10056" horiz-adv-x="411" unicode="Ї" d="M351 791q31 0 31 -36q0 -16 -14.5 -29.5t-30.5 -13.5q-24 0 -24 44q0 15 11.5 25t26.5 10zM470 800q31 0 31 -33q0 -15 -14.5 -30.5t-29.5 -15.5q-13 0 -20 12.5t-7 29.5q0 15 12.5 26t27.5 11zM454 514q18 3 50.5 37.5t32.5 47.5q0 4 -5 4q-14 0 -42 -33.5t-36 -55.5z M596 647q0 -20 -15 -49.5t-27 -45.5t-36.5 -40t-41.5 -34q-10 -6 -29.5 -12.5t-27.5 -11.5q-16 -9 -53 -80q-42 -85 -95.5 -230.5t-87.5 -204.5q-40 -70 -83.5 -107t-100.5 -37q-60 0 -92 32t-32 79q0 34 16.5 66.5t46.5 52.5q27 19 44 19q14 0 14 -14q0 -8 -6 -14.5 t-17 -14t-13 -9.5q-36 -31 -36 -76q0 -29 23.5 -51t61.5 -22q82 0 157 179q15 35 44 111.5t54.5 136.5t53.5 110q33 59 33 75q0 5 -4 7q-29 12 -55.5 49t-47 67t-40.5 30q-25 0 -40.5 -23t-15.5 -50q0 -43 38 -43q12 0 24 3q1 0 3 1h2q19 0 19 -25q0 -28 -50 -28 q-31 0 -52.5 25t-21.5 65q0 50 27 87.5t65 37.5q34 0 56.5 -18.5t43.5 -54.5q15 -27 38.5 -54t39.5 -27q7 0 18.5 15.5t26 38.5t19.5 29q69 87 124 87q28 0 28 -27z"/>
<glyph glyph-name="afii10057" horiz-adv-x="416" unicode="Ј" d="M430 514q18 3 50.5 37t32.5 47q0 4 -5 4q-13 0 -41.5 -33.5t-36.5 -54.5zM141 20q1 2 0 3t-4 0q-40 -11 -78 -26t-75.5 -47t-37.5 -69q0 -20 16 -30.5t34 -10.5q19 0 38 12.5t32.5 28.5t29.5 44.5t24 46t21 48.5zM402 182q7 4 14 4q18 0 18 -17q0 -10 -7 -17 q-73 -71 -210 -108q-10 -4 -13 -12q-24 -55 -45 -93q-41 -72 -81 -108t-95 -36q-37 0 -64.5 21t-27.5 57q0 128 265 194q5 1 7 6q72 200 131 307q32 58 32 75q0 5 -3 7q-29 12 -55.5 49t-47 67t-40.5 30q-25 0 -40.5 -23t-15.5 -50q0 -44 38 -44q4 0 14 2t14 2q20 0 20 -24 q0 -28 -50 -28q-31 0 -52.5 25t-21.5 65q0 50 27 87.5t65 37.5q34 0 56.5 -18.5t43.5 -54.5q15 -26 38.5 -53.5t38.5 -27.5q7 0 19 15t26.5 38.5t19.5 29.5q68 87 124 87q28 0 28 -27q0 -20 -15 -49.5t-27 -45.5t-36.5 -40t-41.5 -34q-10 -6 -29.5 -12.5t-27.5 -11.5 q-16 -9 -53 -80q-37 -74 -111 -269q0 -1 -1.5 -4t-2 -5.5t-0.5 -5.5q0 -6 8 -4q111 31 167 96z"/>
<glyph glyph-name="afii10058" horiz-adv-x="836" unicode="Љ" d="M545 302q-15 -13 -32 -56.5t-23 -71.5q-9 -41 -9 -76q0 -31 9 -46.5t32 -15.5q32 0 76 40.5t76.5 98t32.5 102.5q0 55 -58 55q-51 0 -104 -30zM488 322l50 103l8 17q9 16 16 31.5t13.5 35t6.5 31.5q0 18 -13 18q-16 0 -31.5 -9.5t-23 -17.5t-20.5 -24q-57 -69 -156 -205 t-144 -193q-98 -125 -178 -125q-62 0 -62 92q0 58 39 130t79 72q18 0 18 -18q0 -21 -21.5 -53t-43 -68.5t-21.5 -70.5q0 -33 29 -33q45 0 139 122q23 29 242 322q100 136 174 136q45 0 45 -56q0 -47 -34 -132q-13 -33 -33 -71q79 22 106 22q38 0 63.5 -28t25.5 -66 q0 -56 -40.5 -126t-101.5 -120t-114 -50q-37 0 -56 31.5t-19 80.5q0 57 34 157q-17 -6 -23 -6q-10 0 -10 12q0 16 26.5 33t30.5 26z"/>
<glyph glyph-name="afii10059" horiz-adv-x="776" unicode="Њ" d="M359 572q26 10 50 46.5t28 62.5q-18 -10 -42.5 -43.5t-35.5 -65.5zM681 280q0 46 -49 46q-32 0 -72 -17t-53 -34q-17 -23 -33 -77t-16 -109q0 -65 38 -65q57 0 121 97t64 159zM545 344q70 28 112 28q78 0 78 -81q0 -66 -42 -141.5t-97.5 -124t-96.5 -48.5q-50 0 -68.5 33 t-18.5 89q0 20 4 54q1 10 8.5 32.5t7.5 33.5q0 6 -6 12q-35 -16 -55 -16q-23 0 -42 16t-19 41q0 14 6 42.5t6 41.5q0 20 -9 20q-4 0 -17 -6.5t-21 -6.5t-11 7q-10 -21 -21 -55t-17 -49q-16 -40 -22.5 -55.5t-24 -55.5t-30 -60t-31 -45.5t-37.5 -37t-38 -11.5q-44 0 -65 25.5 t-21 64.5q0 36 20 71.5t43 35.5q9 0 15.5 -6t6.5 -15q0 -11 -16.5 -40t-16.5 -50t9.5 -31t20.5 -10q36 0 79 94q24 51 55.5 132.5t44.5 111.5q3 7 16 37t22.5 53t9.5 29q0 5 -6 12t-15.5 15t-12.5 11q-9 10 -36 43.5t-45 46.5t-42 13q-20 0 -33.5 -11t-13.5 -32 q0 -52 47 -52q6 0 18.5 3t19.5 3q28 0 28 -26q0 -15 -13 -27t-37 -12q-44 0 -76 26.5t-32 81.5q0 43 31.5 73.5t70.5 30.5q34 0 56.5 -19.5t54.5 -65.5q2 -2 8.5 -14t12 -20t14.5 -15.5t17 -7.5h2q6 1 22.5 30t35.5 64t48.5 64t58.5 29q36 0 36 -46q0 -26 -29 -81 q-33 -65 -82 -90q-7 -4 -21.5 -8.5t-20.5 -7.5q-5 -2 -13 -18.5t-21 -48t-15 -36.5q30 11 48 11t30.5 -9t12.5 -26q0 -13 -8 -48.5t-8 -50.5q0 -29 26 -29q12 0 25 6t20.5 11.5t23 19t19.5 16.5q6 8 15 27t14 26q10 17 34.5 59t38 63.5t36.5 54.5t47 62q69 84 92 84 q25 0 25 -22q0 -10 -7 -21.5t-14.5 -18.5t-19 -17.5t-13.5 -12.5q-48 -48 -103 -126.5t-72 -125.5z"/>
<glyph glyph-name="afii10060" horiz-adv-x="710" unicode="Ћ" d="M269 260q0 3 -5 2.5t-7 -2.5q-41 -25 -79 -83q-1 -1 -11 -17.5t-17.5 -24.5t-15.5 -8q-15 0 -15 41q0 42 -21 42q-33 0 -61.5 -39t-28.5 -81q0 -20 10.5 -33.5t29.5 -13.5q33 0 92 48q66 57 119 149q10 17 10 20zM154 220q19 23 37.5 42t39.5 35t33 24.5t37.5 24 t32.5 19.5q10 12 18 28.5t22.5 51t15.5 36.5q2 4 11 24t15 36q19 53 19 60q0 15 -25 15q-10 0 -22.5 -1.5t-23.5 -3.5t-14 -2q-115 -15 -150 -27q-54 -20 -54 -54q0 -65 144 -73q2 0 8 -0.5t9 -0.5t8.5 -0.5t8.5 -1.5t6.5 -2.5t5 -4t1.5 -5.5q0 -23 -39 -23q-29 0 -60.5 5.5 t-63 17.5t-52 35.5t-20.5 53.5q0 42 36.5 69t88.5 37.5t104 16.5t88.5 12.5t36.5 17.5q0 8 -6 8q-3 0 -13 -3t-15 -3q-6 0 -11.5 5t-5.5 14q0 14 17 26.5t30 15.5q8 2 13 2q21 0 30 -12t9.5 -26t8 -26t26.5 -12q40 0 110 3.5t130 3.5q55 0 55 -22q0 -21 -58 -21h-12 q-101 0 -178 -6q-72 -5 -80 -10q-5 -3 -11.5 -13t-13 -25t-11.5 -27.5t-11 -28t-7 -17.5q-4 -8 -14.5 -33.5t-19.5 -43.5q-10 -17 -10 -30q0 -11 22 -11q12 0 35 2.5t27 2.5q79 0 121.5 -40.5t42.5 -110.5q0 -69 -33.5 -126t-82.5 -95q-53 -38 -84 -40q-6 0 -12.5 4t-4.5 11 q3 8 17 18t31 19.5t21 13.5q35 31 67.5 87.5t32.5 111.5q0 53 -33.5 79.5t-94.5 26.5q-68 0 -108 -29q-11 -8 -23 -26t-24.5 -41.5t-18.5 -32.5q-41 -60 -74 -98t-82 -78q-58 -49 -111 -49q-39 0 -58 29.5t-19 73.5q0 61 45 105t97 44q7 0 13 -1.5t11.5 -5.5t8.5 -6.5 t9 -9.5t8 -9z"/>
<glyph glyph-name="afii10061" horiz-adv-x="629" unicode="Ќ" d="M646 870q0 -12 -9 -24q-46 -60 -109 -118q-11 -10 -20 -10q-13 0 -13 16q0 6 2.5 11t8 11.5t7.5 8.5q48 55 81 113q9 17 27 17q11 0 18 -7t7 -18zM216 436q8 15 22.5 45t27 53.5t23.5 39.5q-8 -1 -23 -1q-35 0 -65 12t-45.5 26t-31 26t-26.5 12q-26 0 -42.5 -49.5 t-16.5 -118.5q0 -52 21.5 -85.5t49.5 -33.5q26 0 57 39.5t38 43.5l1 1h3q2 0 2.5 -1t1 -3.5t3.5 -5.5zM520 554q-12 0 -24.5 -12t-28.5 -34.5t-18 -24.5q-19 -24 -48 -64q-5 -7 -51.5 -67.5t-65.5 -93.5q62 38 102 38q44 0 44 -53q0 -37 -26.5 -119.5t-26.5 -100.5t13 -18 q21 0 56.5 24t59.5 45.5t68 63.5q3 2 23 26t34 24q4 0 10.5 -5t6.5 -12q0 -5 -3 -11.5t-9.5 -13.5t-11.5 -12.5t-13.5 -13.5t-10.5 -10q-4 -4 -31.5 -32t-38 -38t-36.5 -32.5t-42.5 -31.5t-40 -18t-43.5 -9q-45 0 -45 57q0 39 25.5 125.5t25.5 103.5q0 15 -9 15 q-17 0 -34.5 -8t-28 -15.5t-28.5 -23.5t-23 -20q-4 -3 -19 -3q-11 0 -31 -28.5t-44.5 -72t-29.5 -50.5q-1 -1 -5.5 -8.5t-7 -11t-6.5 -8.5t-8.5 -7t-9.5 -2q-18 0 -18 23q0 26 20.5 87.5t49.5 135.5t37 100q-55 -25 -74 -25q-56 0 -84.5 51t-28.5 126q0 25 5.5 56.5t16.5 66 t33 58t50 23.5q23 0 48 -12t44.5 -27t52 -27t69.5 -12q15 0 28 16.5t28 33t37 16.5q33 0 33 -26q0 -13 -3.5 -23.5t-7.5 -16.5t-14 -13t-15 -9.5t-18.5 -8.5t-17.5 -8q-8 -4 -16.5 -15t-13.5 -20.5t-13 -26.5t-11 -22q-4 -8 -34 -67t-41.5 -83t-30.5 -70t-29 -82 q5 0 9.5 2.5t6 4t6.5 8.5t6 9q31 41 97.5 134t120 162t103.5 119q41 41 61 42q17 0 17 -20q0 -7 -3 -17t-6 -17.5t-7.5 -17t-5.5 -11.5q-8 -19 -22.5 -51t-23 -56t-16.5 -56q-17 -69 -39 -69q-21 0 -21 25q0 14 18 68q5 13 24.5 51t22.5 53z"/>
<glyph glyph-name="afii10062" horiz-adv-x="537" unicode="Ў" d="M149 106q-13 18 -49 35t-61 17q-8 0 -11 -1q-14 -4 -23.5 -21.5t-9.5 -37.5q0 -18 10 -31.5t29 -13.5q47 0 115 53zM383 318q-41 -17 -79 -17q-86 1 -111 155q-10 66 -11 99q-3 83 -25 83q-25 0 -48.5 -63.5t-23.5 -123.5q0 -20 -1.5 -32t-7.5 -21t-17 -9q-23 0 -23 57 q0 26 5 58q9 56 41 111q16 27 40.5 50t50.5 23q17 0 29 -13t18.5 -37t9.5 -42.5t5 -46.5t3 -32q0 -4 2 -24.5t4 -31.5t6 -31t9.5 -31.5t14 -24.5t21.5 -19t29 -6q41 0 78 21.5t65.5 58t48 73t36.5 79.5q2 4 10 36.5t20 51.5t30 19q22 0 22 -26q0 -32 -22 -73 q-83 -177 -246 -354q-37 -41 -65 -67q-2 -1 -12 -9.5t-18 -15.5t-15.5 -15.5t-7.5 -12.5q0 -16 35.5 -30t59.5 -14q40 0 83 29t97 80q6 6 14 6t14 -5.5t6 -12.5q0 -6 -6 -14q-60 -61 -108.5 -93.5t-104.5 -32.5q-42 0 -82 21q-6 3 -19 10.5t-22.5 12.5t-16.5 5t-16.5 -5 t-22 -13t-15.5 -10q-69 -44 -123 -44q-32 0 -52.5 21.5t-20.5 55.5q0 43 28 88t71 45q14 0 29 -4.5t25 -9.5t25.5 -14t20.5 -12t15.5 -11.5t19 -13.5t14.5 -5q13 0 50 32q73 60 137 141zM424 881q30 -42 30 -102q0 -37 -14.5 -79.5t-36.5 -42.5q-18 0 -18 16q0 14 13.5 48.5 t13.5 55.5q0 63 -41.5 97t-106.5 34q-82 0 -184 -63q-2 -1 -12.5 -9t-18.5 -12t-13 -4q-11 0 -11 14q0 5 2.5 10t8 10t9 7.5t11 7.5t8.5 6q117 72 202 72q52 0 94.5 -18.5t63.5 -47.5z"/>
<glyph glyph-name="afii10145" horiz-adv-x="674" unicode="Џ" d="M607 445q16 0 16 -17q0 -9 -5 -21.5t-10.5 -21.5t-13.5 -20.5t-8 -12.5q-61 -102 -92 -184q-25 -67 -25 -89q0 -29 16 -29q4 0 10.5 1.5t9.5 1.5q12 0 12 -13q0 -14 -20 -27.5t-41 -13.5q-44 0 -44 55q0 32 16 78.5t32 81t16 37.5q0 4 -3 4q-11 0 -52 -54 q-64 -74 -203 -199q-57 -54 -98 -54q-39 0 -39 49q0 47 41 143q62 145 162 302q1 1 14 21.5t26.5 42t25 45t11.5 33.5q0 8 -7 8t-14.5 -1t-15 -4t-12.5 -5.5t-12.5 -7.5l-10.5 -7t-11.5 -8t-9.5 -7q-60 -46 -113 -114t-53 -113q0 -17 7.5 -33t7.5 -23q0 -10 -10 -17.5 t-19 -7.5q-15 0 -25.5 17t-10.5 41q0 70 60.5 149t131.5 135q25 19 58 36.5t54 17.5q55 0 55 -48q0 -30 -41.5 -109.5t-92 -160.5t-92 -166.5t-41.5 -125.5q0 -13 8 -13q7 0 18.5 7t26 19t26.5 23t27.5 25.5t21.5 20.5q52 47 114 112q5 5 67.5 68t98.5 106q1 1 8 10t11.5 13 t11 11t13 10t11.5 3zM320 -42q0 -7 -7 -14q-27 -32 -39 -48q-18 -27 -18 -49q0 -9 4 -33t4 -34q0 -65 -39.5 -112.5t-92.5 -47.5q-26 0 -43 14.5t-17 44.5q0 29 26.5 58.5t57.5 29.5q20 0 20 -12q0 -7 -9 -13.5t-20 -12t-20 -18t-9 -29.5q0 -22 23 -22q37 0 57 35.5t20 79.5 q0 11 -5 32.5t-5 33.5q0 27 26.5 62.5t57.5 57.5q9 6 16 6q12 0 12 -9z"/>
<glyph glyph-name="afii10017" d="M600 531q7 0 14 -6t7 -16q0 -8 -4 -18t-10 -20t-11.5 -18t-12 -16.5t-7.5 -9.5q-34 -46 -64 -92q-37 -55 -59.5 -91t-46.5 -89t-24 -86q0 -31 18 -31q4 0 12 2.5t14 2.5q9 0 9 -12q0 -18 -17 -29q-15 -9 -30 -9q-22 0 -37 17.5t-15 45.5q0 31 7 56q4 13 4 21q0 9 -6 9 q-7 0 -14 -7q-167 -167 -267 -167q-40 0 -62 33.5t-22 84.5q0 75 44.5 176t125.5 196.5t172 140.5q48 24 92 24q80 0 80 -87q0 -48 -28.5 -98.5t-67.5 -89.5q-38 -38 -53 -38t-15 11q0 10 28 40.5t56.5 76t28.5 90.5q0 48 -28 48q-71 0 -138 -57t-119 -132 q-122 -176 -122 -306q0 -56 41 -56q35 0 86 29t91 65q182 163 287 354q13 24 30.5 41t32.5 17z" unicode="А"/>
<glyph glyph-name="afii10018" horiz-adv-x="347" unicode="Б" d="M235 524q1 -1 6 -1q18 0 43 10.5t30 10.5q11 0 11 -13q0 -18 -27.5 -29.5t-61 -17.5t-35.5 -7q-71 -82 -120.5 -189.5t-49.5 -181.5q0 -63 38 -63q46 0 106 88.5t60 152.5q0 23 -13 23q-27 0 -42 -18t-25.5 -57t-11.5 -42q-6 -17 -20 -17q-10 0 -16.5 6.5t-6.5 16.5 q0 57 43.5 105.5t90.5 48.5q50 0 50 -74q0 -51 -35.5 -117t-91 -115t-104.5 -49q-37 0 -58 31t-21 71q0 54 18 112.5t35.5 92t55 94.5t47.5 79q-9 -1 -29 -1q-41 0 -76.5 7.5t-64.5 32t-29 62.5q0 29 16 51t47.5 35t66.5 21.5t83.5 12t88 4.5t90.5 2h14q9 0 48 0.5t50.5 0.5 t42 1t47 2.5t39.5 5t43 7.5q13 3 45.5 17.5t46.5 14.5q24 0 24 -19q0 -22 -39.5 -38.5t-72.5 -19.5q-63 -6 -181 -8.5t-167 -5.5q-12 -1 -58.5 -1t-77.5 -2.5t-69 -9t-58 -22.5t-20 -41q0 -36 42.5 -55t90.5 -19q53 0 60 6t19 23t23 27q81 76 136 76q23 0 23 -26 q0 -21 -12 -43t-27 -22q-12 0 -12 16l1 5q2 4 4 10.5t2 11.5q0 4 -3 4q-18 -2 -46.5 -26t-45.5 -48z"/>
<glyph glyph-name="afii10019" horiz-adv-x="584" unicode="В" d="M452 345q53 -8 68.5 -21.5t15.5 -52.5q0 -59 -29 -118.5t-69.5 -100.5t-81 -67t-64.5 -26q-77 0 -77 62q0 20 12.5 41t31.5 21q23 0 23 -24q0 -6 -2 -17.5t-2 -16.5t1 -7q9 -3 18 -3q27 0 67 35q71 60 108 145q21 48 21 76q0 34 -35 34q-19 0 -59 -10q-1 0 -8.5 -3.5 t-15 -6t-17.5 -5t-17 -2.5q-21 0 -21 16q0 10 12 21t31 22t20 12q68 52 113 129q30 54 30 75q0 13 -11 13q-20 0 -42 -13t-45 -40.5t-37.5 -47.5t-37.5 -55q-5 -8 -8 -12q-3 -5 -12.5 -23.5t-18.5 -29.5t-18 -11q-17 0 -17 21q0 39 80 137q101 124 163 124q24 0 39 -18 t15 -44q0 -21 -3.5 -38t-18 -40t-22.5 -34t-37.5 -46t-42.5 -51zM404 727q23 0 23 -30t-30 -90q-25 -51 -51 -96t-67 -110t-51 -81q-124 -201 -182 -348q-16 -42 -37 -42q-12 0 -20 6.5t-8 15.5q0 20 22 64q18 36 39 75.5t37.5 68t42.5 72.5t38.5 65t43.5 71t41 66 q8 12 32 47.5t39 62t26 57.5q1 2 1 4q0 1 -1 1q-9 0 -43 -44q-100 -125 -211 -313q-1 -2 -6 -10.5t-7.5 -12t-7.5 -9.5t-9.5 -8.5t-9.5 -2.5q-18 0 -18 18q0 7 3.5 17t7 16.5t7.5 14.5l5 9q98 164 285 385q3 3 12 15.5t16.5 21t18 16.5t19.5 8z"/>
<glyph glyph-name="afii10020" horiz-adv-x="511" unicode="Г" d="M115 78q0 14 -46.5 34t-59.5 20q-25 0 -39 -14t-14 -35q0 -42 54 -42q21 0 63 12.5t42 24.5zM502 588q-5 -5 -9 -13t-9 -20.5t-8 -19.5q-8 -17 -37.5 -80.5t-43 -90.5t-40 -76t-53.5 -87.5t-58 -75.5q-29 -34 -29 -41q0 -3 12 -11t34.5 -15t44.5 -7q19 0 38 7t42 24.5 t37 29t41.5 37.5t36.5 34q7 5 12 5q7 0 12.5 -7t5.5 -15t-5 -13q-73 -73 -131 -111.5t-110 -38.5q-39 0 -78 19q-7 3 -16 9.5t-15 10.5t-9 4q-11 0 -36 -13t-30 -15q-55 -21 -106 -21q-39 0 -62 18.5t-23 48.5q0 43 32.5 81.5t78.5 38.5q27 0 79 -26q5 -3 17.5 -14t25 -18.5 t23.5 -7.5q41 0 138 175.5t139 283.5q0 8 -28 8h-16q-28 0 -45.5 -0.5t-51 -2t-55.5 -6.5t-45.5 -12.5t-35.5 -21t-12 -30.5q0 -48 50 -48q34 0 69 33q5 5 13 5q15 0 15 -15q0 -31 -36 -52t-72 -21q-33 0 -58.5 22t-25.5 64q0 34 18.5 58t47.5 37.5t76.5 21t92 9.5t108.5 2 q7 0 14.5 16t7.5 38q0 4 -4 4q-5 0 -17.5 -7t-18.5 -7q-11 0 -11 14q0 17 24.5 29.5t40.5 12.5q38 0 38 -44q0 -8 -2.5 -20.5t-2.5 -15.5q0 -7 6 -8.5t25 -1.5q61 0 108.5 9.5t69.5 20.5t42 20.5t33 9.5q7 0 14 -5.5t7 -14.5q0 -35 -70.5 -53.5t-163.5 -24.5q-6 0 -22.5 -1 t-26.5 -1.5t-22.5 -3t-18.5 -6.5z"/>
<glyph glyph-name="afii10021" horiz-adv-x="687" unicode="Д" d="M218 141q-4 8 -14.5 31.5t-16.5 35t-16.5 27t-21.5 22.5t-23 7q-18 0 -38 -17q-35 -29 -68.5 -82t-33.5 -96q0 -54 42 -54q25 0 50.5 10t39.5 19.5t38 28.5q41 31 62 68zM647 599q-3 0 -42 -58q-17 -24 -57 -83.5t-63.5 -93t-63 -84.5t-78.5 -95q-46 -51 -46 -68 t27 -42.5t53 -25.5q54 0 112 63.5t99 140.5q82 158 82 276q0 70 -23 70zM560 656q-10 5 -28 5q-12 0 -25.5 -2.5t-29.5 -6.5t-21 -5q-65 -13 -124.5 -37t-119 -62.5t-96 -65t-98.5 -76.5q-2 -2 -10 -9t-13 -11t-12 -8t-13 -4q-7 0 -16 9t-9 20q0 7 3 13.5t10 12.5t12 10.5 t14 11t12 8.5q64 49 116 83.5t125 74t153 61t162 23.5q4 0 13 -0.5t14 -0.5q26 0 59 39t64 77.5t52 38.5q20 0 20 -22q0 -34 -28 -72q-3 -4 -21.5 -26.5t-31.5 -42t-13 -31.5q0 -10 8 -25l8 -15q17 -48 17 -104q0 -116 -86 -290q-48 -100 -118 -164q-21 -19 -34 -30 t-38.5 -22t-51.5 -11t-47.5 10t-33 21t-28.5 32q-22 26 -31 26q-6 -5 -24.5 -23.5t-27.5 -24.5q-90 -69 -165 -69q-88 0 -88 76q0 41 23 93t49 87q20 28 35.5 46.5t42 37.5t50.5 19q34 0 59 -36.5t39.5 -74t22.5 -39.5h2q7 0 15 7t19.5 22t12.5 17q168 198 298 409 q-3 3 -7 3q-16 0 -50 -45.5t-68 -91.5t-50 -46q-8 0 -12.5 5t-4.5 11q0 14 10 29t29 34.5t21 21.5q9 11 26 29.5t31 35t27 34.5z"/>
<glyph glyph-name="afii10022" horiz-adv-x="423" unicode="Е" d="M203 458q25 61 57 110q1 1 5.5 8t8 12t10 13.5t12 14.5t12 12t12.5 9t12 3q17 0 17 -16q0 -12 -10.5 -40t-10.5 -43q0 -24 15 -38t36 -14q35 0 57.5 35.5t22.5 74.5q0 38 -24 59t-65 21q-73 0 -128 -51t-55 -124q0 -31 16 -46zM215 339q-9 -20 -9.5 -60t-4 -66t-21.5 -26 q-14 2 -14 42q0 28 10 101q-53 -10 -103 -64t-50 -124q0 -48 32.5 -79.5t84.5 -31.5q60 0 132.5 42t137.5 107q7 7 15 7q7 0 12.5 -6.5t5.5 -14.5t-5 -13q-173 -173 -304 -173q-80 0 -121 43t-41 109q0 64 36.5 124.5t96.5 89.5q7 3 31.5 12.5t39.5 17.5t15 13 q0 6 -14.5 25.5t-19.5 30.5q-16 36 -16 74q0 83 70 142t162 59q58 0 96 -33t38 -88q0 -61 -39 -106.5t-90 -45.5q-88 0 -88 98l-1 2q-7 0 -30.5 -48t-23.5 -71q0 -15 30.5 -31t30.5 -30q0 -13 -17 -17.5t-38 -5.5t-26 -5z"/>
<glyph glyph-name="afii10024" horiz-adv-x="841" unicode="Ж" d="M174 210q-59 0 -93.5 -10t-50.5 -36q-25 -41 -25 -83q0 -34 24 -34q17 0 35 11q24 15 64 68q45 56 46 84zM770 448q19 5 63 29.5t67 24.5q7 0 18.5 -8t19.5 -8q24 0 50 26q37 37 37 63q0 30 -30 30q-20 0 -53 -13q-31 -12 -68.5 -39t-59.5 -53q-2 -3 -14 -14.5t-21 -22 t-9 -15.5zM857 156q-3 -3 -25 -24.5t-35.5 -34.5t-39.5 -34t-46.5 -33.5t-45.5 -22t-47 -9.5q-35 0 -55.5 21t-20.5 57q0 78 55 195q-12 -4 -24.5 -11.5t-19 -13.5t-19.5 -19t-18 -17q-18 -17 -36 -35.5t-37.5 -41.5t-32 -38t-36 -44.5t-32.5 -40.5q-22 -29 -39 -29 q-14 0 -14 22q0 10 5 21t14.5 25.5t11.5 18.5q7 12 44 84q42 76 89 187l1 2q0 1 -2 1q-4 0 -34.5 -20t-76 -47t-79.5 -39q-9 -3 -15.5 -12.5t-15 -25.5t-11.5 -22q-74 -123 -146 -166q-22 -13 -44 -13q-31 0 -51.5 24t-20.5 62q0 47 29.5 96.5t74.5 62.5q9 2 70 9t82 23 q6 5 12 14.5t9.5 18t9.5 23t9 20.5q40 92 58 174q14 65 14 91q0 15 -1.5 24t-9.5 17t-23 8q-21 0 -48 -8q-58 -21 -110 -87.5t-61 -134.5q-1 -5 -1.5 -18.5t-1.5 -22t-3.5 -19t-9.5 -15.5t-17 -5q-26 0 -26 35q0 40 28 105q35 75 76 116q93 93 168 104q14 2 20 2 q75 0 75 -98q0 -68 -29 -152q-18 -55 -65 -172q35 12 69 34q109 64 150 144q19 36 38 100q2 6 7.5 35t12.5 45t20 16q28 0 28 -32q0 -27 -17 -78q-1 -5 -44 -114q-25 -67 -46 -114l-27 -53q-26 -53 -31 -78q12 8 23.5 18.5t23 23t16.5 17.5q39 36 129 102q12 9 28 28 t34 43.5t24 32.5q90 109 171 152q61 33 112 33q28 0 46 -17t18 -46q0 -35 -23 -72.5t-47 -51.5q-37 -24 -64 -24q-10 0 -26 8t-24 8q-11 0 -26 -5.5t-23 -9t-28 -15t-21 -12.5q-4 -2 -21.5 -12t-25 -14t-19 -13t-18.5 -17q-19 -21 -64 -114q-48 -110 -48 -161q0 -38 33 -38 q18 0 40 10t48 30.5t42 34.5t42.5 39t27.5 26q7 4 14 4q19 0 19 -19q0 -6 -3 -12z"/>
<glyph glyph-name="afii10025" horiz-adv-x="416" unicode="З" d="M348 696q43 0 43 -59q0 -49 -23.5 -108.5t-66.5 -100.5q-1 -1 -1 -2q0 -2 21 -6t42 -22t21 -53q0 -87 -53 -170.5t-134 -134.5t-162 -51q-51 0 -80.5 23.5t-29.5 65.5q0 48 31.5 82.5t66.5 34.5q34 0 34 -44q0 -19 -7 -33t-20 -14q-16 0 -16 12q0 3 1 9.5t1 8.5q0 7 -8 7 q-16 0 -27 -16t-11 -36q0 -24 16.5 -40.5t49.5 -16.5q98 0 192 96q98 100 98 200q0 30 -14 45t-30 16t-30 5.5t-14 15.5q0 7 6.5 14t15.5 13.5t12 10.5q26 31 47 80t21 91q0 20 -10 20q-48 0 -124 -109q-19 -28 -37.5 -68.5t-18.5 -70.5q0 -21 18 -30t18 -22q0 -28 -25 -28 q-28 0 -40.5 20.5t-12.5 47.5q0 36 18 80.5t40 76.5q110 160 182 160z"/>
<glyph glyph-name="afii10026" horiz-adv-x="546" unicode="И" d="M559 153q-8 -8 -37 -36t-48.5 -45.5t-47.5 -39.5t-53.5 -33.5t-47.5 -11.5q-51 0 -51 91q0 25 6 70q-16 -14 -50 -46.5t-52.5 -49t-44.5 -31.5t-46 -15q-42 0 -42 60q0 38 21.5 99.5t64 162.5t65.5 164q50 136 50 146q0 7 -5 7q-12 0 -39.5 -26.5t-44.5 -48.5 q-113 -144 -148 -280q-15 -54 -43 -54q-20 0 -20 22q0 28 34.5 97t73.5 133q64 104 126 162l30 27t31 19t41 10q28 0 28 -33q0 -19 -15 -70q-11 -38 -31 -90.5t-37 -93t-44 -104.5t-39 -93q-2 -4 -12.5 -31.5t-22 -66t-11.5 -55.5q0 -13 7 -13q23 0 105.5 79.5t98.5 108.5 q13 24 53 113t72 139t60 50q21 0 21 -25q0 -10 -4 -20t-11 -22.5t-10 -18.5q-20 -42 -68 -114.5t-73 -132t-25 -132.5q0 -45 18 -45q46 0 191 145q6 6 14 6q7 0 12.5 -5.5t5.5 -13.5q0 -9 -6 -15z"/>
<glyph glyph-name="afii10027" horiz-adv-x="674" unicode="Й" d="M607 445q16 0 16 -17q0 -9 -5 -21.5t-10.5 -21.5t-13.5 -20.5t-8 -12.5q-61 -102 -92 -184q-25 -67 -25 -89q0 -29 16 -29q4 0 10.5 1.5t9.5 1.5q12 0 12 -13q0 -14 -20 -27.5t-41 -13.5q-44 0 -44 55q0 32 16 78.5t32 81t16 37.5q0 4 -3 4q-11 0 -52 -54 q-64 -74 -203 -199q-57 -54 -98 -54q-39 0 -39 49q0 47 41 143q62 145 162 302q1 1 14 21.5t26.5 42t25 45t11.5 33.5q0 8 -7 8t-14.5 -1t-15 -4t-12.5 -5.5t-12.5 -7.5l-10.5 -7t-11.5 -8t-9.5 -7q-60 -46 -113 -114t-53 -113q0 -17 7.5 -33t7.5 -23q0 -10 -10 -17.5 t-19 -7.5q-15 0 -25.5 17t-10.5 41q0 70 60.5 149t131.5 135q25 19 58 36.5t54 17.5q55 0 55 -48q0 -30 -41.5 -109.5t-92 -160.5t-92 -166.5t-41.5 -125.5q0 -13 8 -13q7 0 18.5 7t26 19t26.5 23t27.5 25.5t21.5 20.5q52 47 114 112q5 5 67.5 68t98.5 106q1 1 8 10t11.5 13 t11 11t13 10t11.5 3zM611 774q0 -37 -14.5 -79.5t-36.5 -42.5q-18 0 -18 16q0 14 13.5 48.5t13.5 55.5q0 63 -41.5 97t-106.5 34q-82 0 -184 -63q-2 -1 -12.5 -9t-18.5 -12t-13 -4q-11 0 -11 14q0 5 2.5 10t8 10t9 7.5t11 7.5t8.5 6q37 23 62 36t64 24.5t76 11.5 q79 0 133.5 -44.5t54.5 -123.5z"/>
<glyph glyph-name="afii10028" horiz-adv-x="629" unicode="К" d="M216 436q8 15 22.5 45t27 53.5t23.5 39.5q-8 -1 -23 -1q-35 0 -65 12t-45.5 26t-31 26t-26.5 12q-26 0 -42.5 -49.5t-16.5 -118.5q0 -52 21.5 -85.5t49.5 -33.5q26 0 57 39.5t38 43.5l1 1h3q2 0 2.5 -1t1 -3.5t3.5 -5.5zM520 554q-12 0 -24.5 -12t-28.5 -34.5t-18 -24.5 q-19 -24 -48 -64q-5 -7 -51.5 -67.5t-65.5 -93.5q62 38 102 38q44 0 44 -53q0 -37 -26.5 -119.5t-26.5 -100.5t13 -18q21 0 56.5 24t59.5 45.5t68 63.5q3 2 23 26t34 24q4 0 10.5 -5t6.5 -12q0 -5 -3 -11.5t-9.5 -13.5t-11.5 -12.5t-13.5 -13.5t-10.5 -10q-4 -4 -31.5 -32 t-38 -38t-36.5 -32.5t-42.5 -31.5t-40 -18t-43.5 -9q-45 0 -45 57q0 39 25.5 125.5t25.5 103.5q0 15 -9 15q-17 0 -34.5 -8t-28 -15.5t-28.5 -23.5t-23 -20q-4 -3 -19 -3q-11 0 -31 -28.5t-44.5 -72t-29.5 -50.5q-1 -1 -5.5 -8.5t-7 -11t-6.5 -8.5t-8.5 -7t-9.5 -2 q-18 0 -18 23q0 26 20.5 87.5t49.5 135.5t37 100q-55 -25 -74 -25q-56 0 -84.5 51t-28.5 126q0 25 5.5 56.5t16.5 66t33 58t50 23.5q23 0 48 -12t44.5 -27t52 -27t69.5 -12q15 0 28 16.5t28 33t37 16.5q33 0 33 -26q0 -13 -3.5 -23.5t-7.5 -16.5t-14 -13t-15 -9.5 t-18.5 -8.5t-17.5 -8q-8 -4 -16.5 -15t-13.5 -20.5t-13 -26.5t-11 -22q-4 -8 -34 -67t-41.5 -83t-30.5 -70t-29 -82q5 0 9.5 2.5t6 4t6.5 8.5t6 9q31 41 97.5 134t120 162t103.5 119q41 41 61 42q17 0 17 -20q0 -7 -3 -17t-6 -17.5t-7.5 -17t-5.5 -11.5q-8 -19 -22.5 -51 t-23 -56t-16.5 -56q-17 -69 -39 -69q-21 0 -21 25q0 14 18 68q5 13 24.5 51t22.5 53z"/>
<glyph glyph-name="afii10029" horiz-adv-x="656" unicode="Л" d="M588 615q45 0 45 -56q0 -47 -34 -132q-12 -29 -63 -132.5t-72 -167.5q-16 -48 -16 -80q0 -34 21 -34q12 0 30.5 14.5t26.5 14.5q14 0 14 -18t-31 -40t-58 -22q-60 0 -60 76q0 66 37 147q14 30 51.5 112t58.5 128l8 17q9 16 16 31.5t13.5 35t6.5 31.5q0 18 -13 18 q-16 0 -31.5 -9.5t-23 -17.5t-20.5 -24q-57 -69 -156 -205t-144 -193q-98 -125 -178 -125q-59 0 -59 84q0 78 54 172q30 52 60 52q18 0 18 -18q0 -21 -21.5 -56.5t-42.5 -75.5t-21 -74q0 -33 29 -33q45 0 139 122q23 29 242 322q100 136 174 136z"/>
<glyph glyph-name="afii10030" horiz-adv-x="945" unicode="М" d="M954 620q17 0 17 -24q0 -14 -12 -54q-8 -29 -17.5 -56.5t-22.5 -56.5t-22 -48.5t-26.5 -50.5t-25.5 -44.5t-29 -49t-27 -45.5l-13 -19q-12 -18 -23.5 -36.5t-24.5 -42.5t-21 -46.5t-8 -39.5q0 -22 16 -32q4 -3 4 -7q0 -6 -6 -10.5t-15 -4.5q-19 0 -33 15t-14 38t6 47 t21 53.5t25 46.5t35 55.5t33 52.5q7 11 22.5 36t23.5 38t20 35t22 44.5t20 49.5q2 6 0 6q-8 0 -47 -45q-44 -47 -91 -102.5t-76 -91t-87.5 -109.5t-84.5 -106q-2 -2 -14 -19.5t-23 -28t-21 -10.5q-19 0 -19 22q0 25 10 62q33 108 111.5 297.5t110.5 291.5q4 13 -2 13 q-5 0 -39 -30q-90 -84 -233.5 -274t-232.5 -279q-23 -23 -58 -43.5t-60 -20.5q-36 0 -53.5 24.5t-17.5 62.5q0 47 23.5 87t57.5 40q11 0 17.5 -6t6.5 -14q0 -18 -26.5 -55.5t-26.5 -57.5q0 -40 28 -40q30 0 90 67q4 3 5 5q76 81 201.5 241t188.5 229q114 123 184 160 q6 3 13 3q24 0 24 -25q0 -9 -4 -20.5t-10.5 -23.5t-8.5 -18q-20 -52 -63.5 -174t-70.5 -190q-48 -118 -59 -160q-1 -4 -1 -8q0 -3 1 -3q4 0 16.5 15.5t33 43.5t27.5 37q100 126 233 267q44 47 71 82q2 2 14 19.5t21 26t16 8.5z"/>
<glyph glyph-name="afii10031" horiz-adv-x="634" unicode="Н" d="M283 411q30 11 48 11t30.5 -9t12.5 -26q0 -13 -8 -48.5t-8 -50.5q0 -29 26 -29q23 0 48.5 18.5t40.5 36.5q14 15 48 86q30 64 77.5 137.5t71.5 73.5q22 0 22 -20q0 -8 -3.5 -20t-7.5 -21t-9.5 -19t-5.5 -11q-33 -75 -90 -149q-3 -4 -27.5 -35.5t-32.5 -43.5 q-9 -14 -18 -33.5t-21 -48t-17 -40.5q-2 -4 -10 -21.5t-12 -27.5t-8.5 -27.5t-4.5 -32.5q0 -22 16 -22q38 0 183 145q5 4 13 4q9 0 15.5 -5.5t6.5 -13.5t-42.5 -51t-100 -85t-88.5 -42q-24 0 -40 14t-16 41q0 29 10.5 61.5t26 69.5t21.5 56q-39 -18 -59 -18q-23 0 -42 16 t-19 41q0 14 6 42.5t6 41.5q0 20 -9 20q-4 0 -17 -6.5t-21 -6.5t-11 7q-10 -21 -21 -55t-17 -49q-16 -40 -22.5 -55.5t-24 -55.5t-30 -60t-31 -45.5t-37.5 -37t-38 -11.5q-44 0 -65 25.5t-21 64.5q0 37 18.5 72t44.5 35q9 0 15.5 -6t6.5 -15q0 -11 -16.5 -40t-16.5 -50 t9.5 -31t20.5 -10q36 0 79 94q24 51 55.5 132.5t44.5 111.5q3 7 16 37t22.5 53t9.5 29q0 5 -6 12t-15.5 15t-12.5 11q-9 10 -36 43.5t-45 46.5t-42 13q-20 0 -33.5 -11t-13.5 -32q0 -52 47 -52q6 0 18.5 3t19.5 3q28 0 28 -26q0 -15 -13 -27t-37 -12q-44 0 -76 26.5 t-32 81.5q0 43 31.5 73.5t70.5 30.5q34 0 56.5 -19.5t54.5 -65.5q1 -1 9 -13.5t13.5 -20t14.5 -15.5t17 -8q7 0 31 47t60.5 93.5t73.5 46.5q36 0 36 -46q0 -26 -29 -81q-33 -65 -82 -90q-7 -4 -21.5 -8.5t-20.5 -7.5q-5 -2 -13 -18.5t-21 -48t-15 -36.5zM359 572 q26 10 50 46.5t28 62.5q-18 -10 -42.5 -43.5t-35.5 -65.5z"/>
<glyph glyph-name="afii10032" horiz-adv-x="447" unicode="О" d="M259 416q8 7 16 17.5t12.5 17t13.5 23t11 20.5q38 71 38 95q0 5 -9 5q-33 0 -58 -59.5t-25 -104.5q0 -10 1 -14zM355 692q-17 0 -61 -30q-39 -27 -85 -80q-81 -93 -126 -205t-45 -225q0 -114 48 -114q68 0 152 81.5t141 195t57 201.5q0 26 -8 49.5t-25 23.5 q-7 0 -14.5 -15t-15.5 -40t-9 -28q-45 -105 -86 -161q-1 -2 -9.5 -15t-14.5 -20.5t-15.5 -15t-18.5 -7.5q-21 0 -21 42q0 105 33 190t89 115q3 2 19.5 8t25 13t8.5 17q0 20 -19 20zM424 706q0 -7 -4 -22t-4 -26q0 -10 20.5 -27t25.5 -26q24 -45 24 -100q0 -78 -43 -173 t-105 -171.5t-136.5 -128.5t-133.5 -52q-32 0 -53 33t-27.5 69.5t-6.5 71.5q0 132 55.5 251.5t142.5 215.5q45 50 98.5 85.5t98.5 35.5q24 0 36 -7.5t12 -28.5z"/>
<glyph glyph-name="afii10033" horiz-adv-x="709" unicode="П" d="M99 153q-7 16 -20 28.5t-22 12.5q-22 0 -38.5 -31t-16.5 -60q0 -23 10.5 -40t33.5 -17q27 0 55 19.5t28 32.5q0 6 -5.5 15.5t-13.5 21t-11 18.5zM437 459h1q15 0 37.5 15t22.5 30q0 7 -6.5 14t-13.5 7q-24 0 -41 -66zM598 369q-16 -17 -52 -76q-97 -168 -166 -230 q-56 -52 -117 -52q-25 0 -45 8q-8 3 -30.5 20.5t-26.5 17.5q-6 0 -29 -20t-32 -24q-28 -13 -54 -13q-35 0 -59 21t-24 62q0 56 29 110t76 54q25 0 46 -26.5t35 -53.5t23 -27q4 0 44 53q32 42 82 124q1 2 11 17t17.5 29t7.5 22q0 3 -12.5 5t-32.5 3t-27 2q-57 6 -106 37.5 t-49 84.5q0 44 43 76q49 36 176 61q12 2 62 12t67.5 13t64.5 12t70.5 12.5t66 10.5t71.5 10.5t66.5 8t71 7t66.5 3.5q15 1 43 1q51 0 78 -15t27 -60q0 -21 -23 -48t-46 -27q-18 0 -18 14q0 15 17.5 28.5t17.5 27.5q0 30 -74 30q-33 0 -134 -11q-275 -31 -426 -62 q-15 -3 -49 -9.5t-54 -11t-46.5 -12.5t-44.5 -17q-50 -25 -50 -54q0 -13 15 -26.5t27 -19.5q19 -11 61.5 -21.5t74.5 -10.5q25 0 38 8q4 3 25 49q1 3 8 21t14 29t17 15q9 4 27 4q32 0 59.5 -14t27.5 -40q0 -28 -22.5 -51t-49.5 -35q-8 -4 -31 -10t-33 -12q-5 -3 -9.5 -9.5 t-7.5 -12.5l-7.5 -15l-7.5 -15q-58 -112 -131 -204q-1 -1 -13 -15t-20 -24.5t-8 -15.5q0 -4 7.5 -12.5t23.5 -16t34 -7.5q28 0 57 18.5t46.5 38t40.5 49.5q31 41 63.5 92t71.5 119.5t47 81.5q2 4 8 14.5t10 17t11 12.5t14 6q33 -1 33 -51q0 -33 -16 -87q-62 -212 -144 -326 q-23 -34 -44 -34q-9 0 -16.5 5t-7.5 13q0 9 7.5 21.5t19.5 27.5t16 21q19 27 44 84q51 112 68 190z"/>
<glyph glyph-name="afii10034" horiz-adv-x="434" unicode="Р" d="M277 698q4 2 30 25t41 23q12 0 19 -7.5t9.5 -17t4.5 -10.5q8 -5 30.5 -10t23.5 -5q112 -40 112 -146q0 -93 -78 -184.5t-160 -91.5q-33 0 -52.5 19.5t-19.5 49.5q0 32 23.5 58.5t53.5 26.5q31 0 31 -18q0 -11 -10.5 -17.5t-22.5 -9.5t-22.5 -14t-10.5 -31q0 -23 29 -23 q43 0 114.5 72.5t71.5 155.5q0 53 -31.5 84.5t-77.5 31.5q-4 0 -9.5 -6t-11.5 -16t-11 -19.5t-10.5 -21.5t-7.5 -16q-20 -37 -76 -135.5t-83.5 -150t-59.5 -125t-44 -127.5q-1 -4 -3 -13.5t-3.5 -15t-4 -14t-5.5 -14t-6.5 -11t-9 -8t-11.5 -2.5q-22 0 -22 37q0 33 9 57 q22 67 58 143.5t59.5 119.5t78.5 135.5t68 115.5q39 65 39 86q0 5 -4 5q-11 0 -45.5 -51.5t-51.5 -51.5q-15 0 -15 12q0 8 17 30t17 29q0 1 -1 1q-8 0 -27 -19q-19 -17 -38 -41.5t-26 -41.5q-2 -5 -6.5 -18t-7.5 -20.5t-7.5 -17t-10 -14t-11.5 -4.5q-19 0 -19 22t16 54 q67 134 178 166z"/>
<glyph glyph-name="afii10035" horiz-adv-x="354" unicode="С" d="M278 485q-25 -16 -49.5 -61t-32.5 -94q-1 -3 -1.5 -9t-1.5 -9t-2 -7.5t-2.5 -6.5t-3.5 -4.5t-5 -3.5t-7 -1q-13 0 -13 22q0 23 12 61.5t19 52.5q26 50 48 80t58 55q26 18 43 18q14 0 14 -13q0 -9 -18 -45.5t-18 -59.5q0 -12 5 -12q31 0 63 62.5t32 115.5q0 48 -48 48 q-49 0 -121 -61q-94 -78 -156 -200.5t-62 -233.5q0 -56 19.5 -92t58.5 -36q76 0 205 104q3 2 11.5 11t16 15t14.5 6q6 0 12 -7.5t6 -13.5q0 -17 -75 -75t-122 -77q-36 -15 -80 -15q-58 0 -88.5 48t-30.5 122q0 71 23 152t54 129q34 54 64 93t72.5 81.5t91.5 65t102 22.5 q79 0 79 -90q0 -71 -46 -143t-100 -72q-42 0 -42 56q0 8 2 22z"/>
<glyph glyph-name="afii10036" horiz-adv-x="708" unicode="Т" d="M-19 50q9 2 18.5 9.5t13 12t14.5 18.5q27 35 27 47q0 6 -4.5 11t-11.5 5q-18 0 -31 -17q-28 -37 -28 -73q0 -5 2 -13zM262 466h-2q-8 0 -16.5 -10.5t-8.5 -18.5q0 -7 6 -7q14 0 19 21q2 10 2 15zM365 111q50 41 82 79q25 28 67 82.5t65 81.5q47 56 78 56q20 0 20 -21 q0 -9 -3.5 -20.5t-9.5 -24t-11 -21.5t-10.5 -19t-6.5 -11q-9 -16 -126 -222q-6 -10 -16.5 -36t-20.5 -39t-24 -13q-9 0 -15 6t-6 15q0 22 15 46q3 4 51.5 81.5t64.5 118.5q-13 -3 -34 -26q-15 -17 -47 -55t-59 -67t-54 -52q-12 -9 -34.5 -21t-38.5 -12q-18 0 -18 17 q0 12 8.5 31.5t21 40t13.5 23.5q4 7 21.5 38.5t29 55t16.5 40.5q-14 -7 -32 -25.5t-37 -42.5t-28 -33q-4 -4 -18.5 -19.5t-23 -23t-22.5 -18t-29 -15.5t-32 -5q-9 0 -13 1q-8 1 -23.5 11.5t-23.5 10.5q-6 0 -16 -8.5t-18 -17t-18.5 -22t-12.5 -15.5q-45 -52 -76 -52 q-28 0 -28 46q0 39 30.5 107t66.5 68q15 0 36.5 -14t25.5 -15h1q14 0 70 91q24 36 30 48q27 39 27 54q0 6 -8 7t-27 1t-32 2q-46 6 -88 25t-66 45q-39 39 -39 102q0 30 13 56q23 46 78 78t120 32q52 0 170.5 -30t137.5 -34q60 -11 121 -11q119 0 207 35q11 4 34.5 18.5 t41.5 21.5q6 2 10 2q21 0 24 -18v-5q0 -26 -60 -51q-104 -47 -257 -47q-121 0 -241 37q-121 37 -188 37q-59 0 -102 -25q-27 -15 -45.5 -42t-18.5 -57q0 -64 84 -101q49 -22 84 -22q11 0 22 3q4 1 10.5 12t16 28.5t19.5 28.5q35 39 62 39q22 0 22 -25q0 -9 -3 -21 t-7.5 -25.5t-5.5 -18.5q-3 -10 8 -10q9 0 34 8t34 9q14 3 35 10.5t27 7.5q3 0 6.5 -5.5t3.5 -7.5q0 -13 -25.5 -26.5t-48.5 -20.5q-44 -18 -92 -28q-4 -1 -11 -12t-16 -28t-11 -20q-26 -49 -79 -123q-2 -3 -13.5 -16.5t-18.5 -24.5t-7 -19q0 -17 26 -17q9 0 19 4t18 8.5 t19.5 14t16.5 13.5t15 14l10 10q50 47 194 212q0 1 8.5 12t15.5 16t16 5q22 0 22 -23q0 -19 -20 -59q-9 -18 -28 -52.5t-20 -35.5q-9 -16 -28.5 -49t-32 -57.5t-21.5 -49.5z"/>
<glyph glyph-name="afii10037" horiz-adv-x="537" unicode="У" d="M149 106q-13 18 -49 35t-61 17q-8 0 -11 -1q-14 -4 -23.5 -21.5t-9.5 -37.5q0 -18 10 -31.5t29 -13.5q47 0 115 53zM383 318q-41 -17 -79 -17q-86 1 -111 155q-10 66 -11 99q-3 83 -25 83q-25 0 -48.5 -63.5t-23.5 -123.5q0 -20 -1.5 -32t-7.5 -21t-17 -9q-23 0 -23 57 q0 26 5 58q9 56 41 111q16 27 40.5 50t50.5 23q17 0 29 -13t18.5 -37t9.5 -42.5t5 -46.5t3 -32q0 -4 2 -24.5t4 -31.5t6 -31t9.5 -31.5t14 -24.5t21.5 -19t29 -6q41 0 78 21.5t65.5 58t48 73t36.5 79.5q2 4 10 36.5t20 51.5t30 19q22 0 22 -26q0 -32 -22 -73 q-83 -177 -246 -354q-37 -41 -65 -67q-2 -1 -12 -9.5t-18 -15.5t-15.5 -15.5t-7.5 -12.5q0 -16 35.5 -30t59.5 -14q40 0 83 29t97 80q6 6 14 6t14 -5.5t6 -12.5q0 -6 -6 -14q-60 -61 -108.5 -93.5t-104.5 -32.5q-42 0 -82 21q-6 3 -19 10.5t-22.5 12.5t-16.5 5t-16.5 -5 t-22 -13t-15.5 -10q-69 -44 -123 -44q-32 0 -52.5 21.5t-20.5 55.5q0 43 28 88t71 45q14 0 29 -4.5t25 -9.5t25.5 -14t20.5 -12t15.5 -11.5t19 -13.5t14.5 -5q13 0 50 32q73 60 137 141z"/>
<glyph glyph-name="afii10038" horiz-adv-x="586" unicode="Ф" d="M111 62q-27 17 -62 17h-5q-31 0 -31 -20q0 -23 35 -27q48 0 63 30zM386 441q4 4 23 20t31.5 25.5t31 22.5t36.5 19.5t34 6.5q67 0 67 -75q0 -50 -31.5 -113t-81.5 -109t-98 -46q-20 0 -33.5 15.5t-13.5 36.5q0 22 14.5 45.5t35.5 23.5q14 0 14 -14q0 -8 -13 -27.5 t-14 -29.5q0 -11 9 -11q49 0 104.5 86t55.5 144q0 34 -25 34q-36 0 -104.5 -69t-99.5 -118q-19 -29 -53 -93.5t-45 -83.5q-26 -42 -26 -52q0 -14 43.5 -27.5t69.5 -13.5q123 0 254 142q8 8 17 8q8 0 14 -5.5t6 -13.5t-9 -17q-148 -158 -281 -158q-46 0 -93 16q-5 2 -29.5 13 t-36.5 12q-12 0 -42 -22.5t-60 -22.5h-4q-36 2 -60 22t-24 54q0 31 21.5 47t53.5 16h8q17 -1 47 -12.5t42 -12.5h1q13 0 40.5 44.5t48.5 90.5q-5 -2 -19.5 -9.5t-24.5 -12t-25.5 -8.5t-29.5 -4h-5q-58 3 -58 79q0 54 22 92q-14 5 -14 19q8 45 93 81q11 5 37 19t47.5 23 t37.5 9q22 0 22 -23q0 -17 -17.5 -26t-43.5 -13.5t-33 -7.5q-37 -17 -71.5 -60.5t-36.5 -100.5v-6q0 -38 32 -40h2q36 0 80 36q41 33 58.5 57t44.5 80q53 111 131 240q-33 5 -59 5q-56 0 -92.5 -17t-37.5 -47q0 -6 12 -8q3 0 8 0.5t8 0.5q18 -2 18 -13q-1 -22 -45 -22 q-43 0 -43 42q0 30 18.5 52t49 33t62.5 16t67 5q102 0 102 -28q0 -7 -4 -12t-11 -10.5t-10 -8.5q-7 -10 -18.5 -32t-14.5 -26q-64 -105 -84 -152z"/>
<glyph glyph-name="afii10039" horiz-adv-x="628" unicode="Х" d="M851 897q0 -8 -2.5 -16t-5 -14t-8 -15t-8.5 -13t-10 -13t-9 -11q-181 -237 -330 -399q-2 -3 -10.5 -12t-13 -14t-10.5 -12.5t-8.5 -13.5t-2.5 -11q0 -12 12 -62q3 -13 11 -50.5t11.5 -51.5t11.5 -44t14.5 -47.5t16.5 -41t21 -43.5q19 -33 34 -51q5 -7 5 -13 q0 -12 -10 -19.5t-23 -7.5q-6 0 -11.5 2.5t-10.5 7.5t-9 9.5t-8.5 12.5t-7 13l-7 14t-6.5 12q-37 73 -70 208q-2 10 -7 42t-10 51t-12 19q-4 0 -17 -12.5t-29 -30t-21 -22.5q-205 -190 -390 -310q-32 -24 -56 -24q-9 0 -15.5 6.5t-6.5 16.5q0 24 58 52q44 21 95.5 56.5 t78.5 57.5t93.5 79l80.5 69q44 37 110 106q12 12 12 21q0 18 -13.5 86t-15.5 86q-2 15 -4 15q-4 0 -10 -29t-10.5 -70t-4.5 -70q0 -5 1 -16t1 -17q0 -31 -18 -31q-26 0 -26 52q0 44 14.5 114.5t29.5 116.5q1 2 3.5 12.5t5.5 16t10 11.5t17 6q18 0 22.5 -10.5t16.5 -76.5 q1 -4 2.5 -13.5t2.5 -13.5q1 -2 4 -35t8.5 -59.5t12.5 -26.5q8 0 53 51q57 63 116 131q28 33 80.5 96t59.5 71q28 33 82 101q19 27 28 27q12 0 12 -6z"/>
<glyph glyph-name="afii10040" horiz-adv-x="603" unicode="Ц" d="M432 -32q-8 0 -36 -28q-103 -96 -103 -176q0 -25 14 -25q24 0 72 57q27 33 49 77t22 71q0 24 -18 24zM324 636q-12 -3 -23 -8.5t-22 -16t-17 -16.5t-18 -20.5t-15 -18.5q-117 -137 -180 -262q-21 -40 -39 -40q-3 0 -9 2q-12 3 -12 19q0 9 2 15q2 8 6 16t7 12l4 4 q102 167 207 281l9 11q10 10 13 12.5t13 13t15 15l15 13.5t16.5 13t16.5 10.5t17.5 9.5t16 5.5t16.5 2.5q12 0 24.5 -8.5t12.5 -22.5t-22 -63q-23 -51 -74.5 -155.5t-76.5 -161.5q-4 -10 -15 -34.5t-18.5 -41.5t-16 -38t-13 -36.5t-4.5 -24.5q0 -17 10 -17q23 0 64 25t74 57 q105 91 130 130q5 8 45.5 80t71.5 105q19 21 41 21q8 0 15 -6.5t7 -16.5q0 -11 -3.5 -22.5t-11.5 -24.5t-13.5 -21t-17 -23t-14.5 -19q-11 -15 -40 -46t-41 -50q-16 -29 -45 -123q-1 -4 -7.5 -22.5t-9.5 -31t-3 -23.5q0 -28 21 -43q13 2 28.5 11t33.5 25t31 28.5t34 34.5 t29 30q7 7 14 7q8 0 13.5 -6.5t5.5 -15.5q0 -8 -7 -14q-15 -12 -54.5 -50t-52.5 -49q-28 -28 -28 -45q0 -9 7 -29t7 -33q0 -66 -69 -157t-121 -91q-26 0 -39 18t-13 47q0 18 4 33q16 72 106 164q2 2 11 10.5t12 12t7 10.5t4 14q0 9 -11 24.5t-13 24.5q-2 12 -2 20q0 20 8 66 t9 53q-8 -2 -18 -8.5t-16 -11.5t-16.5 -15t-13.5 -13q-1 -1 -18 -15t-23.5 -19t-23 -17.5t-27 -18.5t-25 -14t-27 -11t-24.5 -3q-48 0 -48 60q0 18 5.5 40t10 34t17 40.5t15.5 35.5q32 73 118 249q45 90 51 128z"/>
<glyph glyph-name="afii10041" horiz-adv-x="309" unicode="Ч" d="M221 733q17 0 27.5 -10t15 -31t5.5 -38.5t1 -46.5q0 -76 23 -84q2 -1 5 -1q9 0 34 13.5t36 13.5q13 0 21 -14q1 -2 1 -5q0 -8 -8 -18t-20 -21t-13 -12q-101 -110 -214 -282q-20 -31 -37 -69.5t-17 -61.5q0 -25 21 -25q13 0 33 10q10 5 23.5 14t24.5 17.5t29 24t27 23 t30 26.5t27 24q8 6 14 6q8 0 13.5 -6t5.5 -13q0 -8 -8 -16q-106 -106 -162 -138q-36 -20 -62 -20q-34 0 -52 19t-18 52q0 24 6 47t21 50t24 41.5t32 46.5t29 40q56 81 102 136q34 37 34 49q0 3 -6 7.5t-14 10t-12 9.5q-4 5 -6.5 10.5t-5 14.5t-3.5 15t-2.5 19.5t-1.5 20 t-1.5 24.5t-1.5 26q0 1 -0.5 8t-1 11t-2 10t-5 9t-8.5 3q-9 0 -18.5 -14t-14.5 -31q-20 -71 -20 -125q0 -14 6.5 -42t6.5 -43q0 -24 -21 -24q-35 0 -35 96q0 6 0.5 16t0.5 14q4 69 25 119q36 85 71 93q12 2 16 2z"/>
<glyph glyph-name="afii10042" horiz-adv-x="676" unicode="Ш" d="M346 359q-2 5 -5 2q-20 -27 -50 -73.5t-64.5 -101.5t-47.5 -75q-36 -55 -64 -81q7 1 62 10t80 16q-1 5 -1 15q0 51 42.5 155.5t47.5 132.5zM567 371q-2 9 -8 0q-18 -18 -40.5 -46.5t-50 -65.5t-37.5 -50q-102 -134 -127 -146h10q16 0 48 1.5t63.5 4t38.5 2.5 q7 59 36.5 146.5t66.5 153.5zM511 73q5 -3 19 -6t23.5 -8.5t9.5 -17.5t-10 -14.5t-24.5 -2.5t-21.5 -6q-1 -4 0 -16.5t1 -17.5q0 -33 -21 -33q-20 0 -24 34t-9 37q-6 3 -20 3q-11 0 -35.5 -2t-27.5 -2q-212 -11 -395 -84q-20 -10 -40 -10q-24 0 -24 23q0 9 6.5 16t12 9.5 t19 6.5t15.5 5q4 1 44 15t56 18q-11 10 -11 41q0 22 5 40q14 52 31.5 103.5t44.5 115.5t40.5 94.5t51.5 110t44 92.5q7 13 7 18q0 2 -2 2q-7 0 -33.5 -31t-39.5 -49q-53 -77 -74 -162q-1 -5 -2.5 -21t-3 -27t-9 -21t-20.5 -10q-18 0 -18 34q0 40 25 107q38 102 135 199 q70 70 101 70q27 0 27 -31q0 -21 -12 -42q-42 -75 -82 -162q-8 -16 -39.5 -82t-45.5 -97.5t-34 -89t-32 -109.5q-3 -11 1 -11t14.5 15t26 38.5t16.5 25.5q49 67 131 204t121 194q35 51 58 51q18 0 18 -19q0 -15 -10 -35q-14 -32 -42.5 -96t-44.5 -101.5t-38.5 -97.5 t-39.5 -118q-1 -4 -2 -7t-0.5 -4.5t1.5 -1.5q3 0 12.5 12.5t21.5 29t16 21.5q47 53 132.5 168t131.5 168q1 1 6.5 7.5t8.5 10t8.5 9.5t10 9t9.5 5.5t10 2.5q18 0 18 -19q0 -13 -15 -43q-8 -16 -66.5 -132.5t-83.5 -181.5q-35 -93 -38 -144z"/>
<glyph glyph-name="afii10043" horiz-adv-x="817" unicode="Щ" d="M419 54q14 0 25 1.5t20.5 4t16.5 5t14 7t11 7.5t9.5 9.5t8 10t8 11.5t7.5 11q3 4 32 44t40 55.5t29.5 45.5t28.5 52q3 7 0 7q-8 0 -57 -49q-28 -28 -79.5 -86.5t-53.5 -60.5q-3 -4 -20 -20.5t-27 -29t-13 -25.5zM477 362q-9 0 -28.5 -19t-44.5 -48.5t-27 -31.5l-132 -144 q-54 -61 -62 -89q79 4 168 25q8 5 34 68q7 18 58 146q14 37 34 93zM306 529q-7 -2 -14.5 -7.5t-13 -10t-13.5 -13.5t-11.5 -13.5t-11.5 -14t-9 -11.5q-72 -88 -98 -134q0 -1 -9 -22t-17.5 -32t-20.5 -11q-18 0 -18 20q0 24 13 43q24 46 61 96t59.5 74.5t73.5 79.5 q7 7 21 23.5t23 26.5t22.5 21t25.5 17q3 2 10 2q25 0 25 -27q0 -23 -15 -51q-45 -86 -148 -322q-39 -88 -57 -148v-3l-1 -1q0 -1 1 -1q3 0 14 12t24.5 29t18.5 22q115 125 306 346q2 3 10 12.5t14 15.5t14 12t15 6t12 -5.5t5 -13.5t-4.5 -20.5t-9 -22t-11 -21t-7.5 -13.5 q-43 -91 -84 -184q-22 -50 -36 -98q-1 -3 -1 -7q0 -2 2 -2q4 0 12 8t22 24l13 15q36 36 76 80t88.5 99t75.5 85q2 2 8.5 9.5t11 11.5t10.5 8t12 4q17 0 17 -20q0 -10 -13 -43q-41 -92 -156 -274q-5 -8 -36.5 -49.5t-40.5 -64.5q10 -2 19 -2q14 0 49.5 4t49.5 4q30 0 30 -24 q0 -29 -15 -68q-65 -179 -238 -382q-32 -39 -55 -39q-3 0 -7 2q-6 3 -6 9t5.5 14.5t15 18.5t11.5 13q9 9 24.5 25.5t55 65.5t69.5 95.5t55 107.5t25 110q0 10 -36 10q-40 0 -83 -8q-5 -1 -17 -5.5t-17 -4.5h-3q-5 0 -15.5 2t-15.5 2q-22 0 -49 -3t-62 -8t-55 -7 q-15 -2 -53 -5.5t-62.5 -7.5t-44.5 -9q-5 -2 -16.5 -7.5t-17.5 -6.5q-5 -1 -12 -0.5t-10 0.5t-27.5 -8t-36.5 -8q-22 0 -22 18q0 17 17.5 24.5t41 11.5t32.5 12q8 8 17.5 33t18 56t11.5 39q21 56 50 126q20 47 62 135t57 123z"/>
<glyph glyph-name="afii10044" horiz-adv-x="354" unicode="Ъ" d="M258 277q0 55 -58 55q-62 0 -104 -30q-16 -11 -32.5 -54t-22.5 -74q-9 -40 -9 -76q0 -31 9 -46.5t32 -15.5q31 0 76 46.5t77 104.5t32 90zM296 569q-11 -6 -25.5 -20t-22.5 -23.5t-25 -30t-18 -21.5q-66 -80 -78 -114q78 18 96 18q43 0 66 -27t23 -67q0 -51 -43 -121.5 t-104.5 -122.5t-108.5 -52q-37 0 -56 31.5t-19 80.5q0 57 34 157q-37 -13 -39 -13q-10 0 -10 12q0 13 13.5 25t33.5 23.5t26 17.5q7 7 14 17.5t16.5 27t13.5 23.5q43 67 96 128q2 3 13.5 16t22 26t16.5 21q-24 12 -75 55.5t-71 43.5q-39 0 -64 -46t-25 -99q0 -20 9 -57 t9 -49q0 -10 -6 -18.5t-18 -8.5q-20 0 -29 33.5t-9 73.5q0 78 39.5 148t106.5 70q28 0 53 -16.5t41 -36t37 -36t40 -16.5q10 0 21 7t24.5 19.5t20.5 17.5q40 29 65 29q22 0 22 -22q0 -40 -43 -70t-83 -34z"/>
<glyph glyph-name="afii10045" horiz-adv-x="586" unicode="Ы" d="M256 343q-9 26 -40 26q-25 0 -45.5 -8t-20.5 -20q0 -15 36 -15q47 0 70 17zM319 317q-5 -7 -9.5 -26.5t-5.5 -22.5q-10 -32 -32 -73t-52.5 -84t-71.5 -72t-80 -29q-42 0 -62.5 40t-20.5 101q0 84 29 168.5t62 137t86 123.5q83 111 115 111q23 0 23 -23q0 -21 -37 -55 q-68 -64 -115.5 -134.5t-80.5 -166.5q-29 -84 -29 -158q0 -19 1 -30.5t5 -29.5t15 -27.5t29 -9.5q37 0 98 81.5t74 151.5q-4 2 -8 2q-10 0 -41 -6.5t-40 -6.5q-31 0 -50.5 13.5t-19.5 39.5q0 34 36.5 56.5t82.5 22.5q23 0 39 -7t23 -16t15.5 -16t18.5 -7q31 0 114.5 40 t113.5 65q10 8 30 33.5t40 42.5t40 17q23 0 23 -26q0 -18 -16.5 -34t-42 -32t-33.5 -24q-9 -9 -18.5 -23.5t-21.5 -36t-16 -28.5q-52 -82 -96 -190q-1 -2 -9 -21t-11 -27.5t-7 -24t-4 -27.5q0 -13 5 -18t10.5 -4.5t10.5 -3t5 -13.5q0 -11 -11.5 -17t-27.5 -6q-20 0 -33 15.5 t-13 35.5q0 40 30.5 113t50.5 110t61 109q-32 -17 -171 -73z"/>
<glyph glyph-name="afii10046" horiz-adv-x="341" unicode="Ь" d="M246 280q0 46 -49 46q-32 0 -72 -17t-53 -34q-17 -23 -33 -77t-16 -109q0 -65 38 -65q57 0 121 97t64 159zM110 344q70 28 112 28q78 0 78 -81q0 -66 -42 -141.5t-97.5 -124t-96.5 -48.5q-50 0 -68.5 33t-18.5 89q0 20 4 54q1 10 8.5 32.5t7.5 33.5q0 8 -9.5 17t-9.5 18 q0 14 27 32.5t31 24.5q7 9 16.5 28.5t13.5 25.5q73 122 179 232q3 3 27 30.5t39.5 40.5t25.5 13q29 0 29 -22q0 -10 -7 -21.5t-14.5 -18.5t-19 -17.5t-13.5 -12.5q-179 -181 -202 -245z"/>
<glyph glyph-name="afii10047" horiz-adv-x="432" unicode="Э" d="M388 370v-1q-1 -1 -1 -2q0 -6 13 -14t13 -17q0 -13 -20.5 -20t-21.5 -12q-13 -38 -30.5 -76.5t-47.5 -83.5t-64 -78.5t-82 -56.5t-101 -23q-45 0 -77 28.5t-32 73.5q0 42 26.5 77t68.5 35q18 0 18 -19q0 -15 -9 -22.5t-20.5 -10t-20.5 -16t-9 -40.5t16 -44t44 -17 q40 0 74 16.5t62 48t47.5 61t41.5 72.5q1 3 10.5 19.5t14 27.5t4.5 17q0 18 -60 18q-8 0 -24.5 -0.5t-23.5 -0.5q-35 0 -48 -3q-4 -1 -21 -9t-27 -8h-2q-8 0 -13.5 6.5t-5.5 16.5q0 39 99 39q18 0 63.5 1.5t71.5 1.5q14 0 27 57t13 120q0 149 -84 149q-47 0 -83 -38t-41 -92 q0 -3 -1 -11t-1.5 -11l-1.5 -9t-2.5 -8.5t-4.5 -5.5t-7 -4t-10 -1q-24 0 -24 30q2 76 57.5 134t127.5 58q71 0 102 -52t31 -134q0 -78 -24 -167z"/>
<glyph glyph-name="afii10048" horiz-adv-x="831" unicode="Ю" d="M198 160q-21 0 -76 -65q-42 -54 -42 -86q0 -22 26 -22q24 0 60.5 67.5t36.5 96.5q0 9 -5 9zM350 577q-59 -28 -105 -28q-24 0 -71.5 14t-74.5 14q-41 0 -67.5 -26.5t-26.5 -70.5q0 -46 28.5 -81.5t76.5 -35.5q20 0 52.5 15t47.5 15q9 0 15 -6.5t6 -16.5q0 -24 -41 -42 t-74 -18q-68 0 -110 46t-42 113q0 64 39.5 114.5t104.5 50.5q26 0 79 -16t82 -16q68 0 125 75q1 1 5 7t9 11.5t11 12t12.5 10.5t12.5 4q9 0 15 -9t6 -20q0 -13 -7.5 -29.5t-18.5 -34t-13 -20.5q-11 -21 -44 -98q-53 -128 -70 -216q2 -1 8 -1q28 0 74 27q11 6 39 29.5 t46 32.5q43 20 78 20q31 0 31 -22q0 -17 -21 -33.5t-44 -22.5q-74 -21 -93 -42q-25 -26 -25 -100q0 -23 3 -44t11.5 -43.5t26 -36t42.5 -13.5q51 0 104 45q62 52 122 178q66 134 66 240q0 48 -26 78t-74 30q-43 0 -82.5 -31t-53.5 -75q-1 -4 -5 -26t-10.5 -34t-18.5 -12 q-22 0 -22 32t13 61q32 77 101 111q38 19 87 19q85 0 117 -55q26 -44 26 -105q0 -99 -74 -247q-59 -117 -138 -200q-67 -71 -147 -71q-58 0 -88 49.5t-30 115.5q0 16 2.5 32.5t6 37.5t5.5 34q-25 -2 -54 -16.5t-39 -31.5q-5 -9 -13 -34t-11 -32q-17 -47 -25 -68t-28 -57 t-40 -51q-25 -19 -55 -19q-29 0 -49.5 18.5t-20.5 52.5q0 38 36 88q24 32 82 80q7 5 27.5 19.5t33 25.5t19.5 23q8 13 28 80q29 91 56 160q3 8 8.5 24t11.5 31.5t14 30.5z"/>
<glyph glyph-name="afii10049" horiz-adv-x="671" unicode="Я" d="M9 135q-19 0 -33.5 -17.5t-14.5 -38.5q0 -30 54 -30q11 0 20.5 8t9.5 19q0 17 -13.5 38t-22.5 21zM641 590q0 -54 -36 -95.5t-96 -41.5q-33 0 -56 19.5t-23 38.5q0 8 6.5 14t14.5 6q10 0 30 -18.5t38 -18.5q38 0 60 26t22 61q0 38 -25.5 65.5t-74.5 27.5 q-64 0 -112.5 -48t-48.5 -118q0 -33 28.5 -88.5t28.5 -87.5q0 -40 -33.5 -86t-70 -76.5t-87.5 -69t-61 -47.5q-4 -4 -4 -7q0 -6 10.5 -10.5t23.5 -4.5q40 0 82.5 27t69 55.5t62.5 74.5q22 27 39.5 51.5t40 57.5t36.5 54q13 18 35.5 46t56.5 60t51 32q4 0 9 -3q9 -8 9 -23 q0 -26 -35 -101q-21 -45 -57.5 -117t-52.5 -105q-44 -91 -44 -131q0 -13 13 -17.5t13 -9.5q0 -10 -15 -19.5t-31 -9.5q-25 0 -25 61q0 42 19.5 88.5t65 127.5t70.5 132q9 17 4 17q-7 0 -36 -31.5t-38 -44.5q-12 -17 -37.5 -54t-39.5 -56t-36.5 -47t-45.5 -51.5t-50 -45.5 q-78 -65 -143 -65q-31 0 -56 18q-2 1 -7.5 5.5t-9 7t-10 4.5t-13.5 2q-13 0 -39.5 -7.5t-38.5 -7.5q-34 0 -51 20.5t-17 50.5q0 35 32 72.5t55 37.5q21 0 36.5 -15t23 -32.5t17.5 -32.5t22 -15q19 0 60 32q70 56 105 89q69 64 69 115q0 11 -26 72t-26 109q0 73 63.5 138.5 t156.5 65.5q63 0 96.5 -36t33.5 -87z"/>
<glyph glyph-name="afii10065" horiz-adv-x="515" unicode="а" d="M11 147q-2 -1 -7 -1q-9 0 -16 5.5t-7 13.5q0 9 10 18q33 31 84 71q7 6 27 22t28.5 22.5t26 19.5t29 19t27.5 13.5t30 10.5t29 3q9 0 15 -6.5t6 -14.5q0 -17 -36 -43q-24 -18 -81.5 -47.5t-68.5 -39.5q-21 -19 -40.5 -60t-19.5 -72q0 -42 39 -42q46 0 109.5 62t83.5 110 q19 46 54 97t65 51q21 0 21 -23q0 -20 -45 -73t-62 -88q-28 -59 -28 -95q0 -38 32 -38q20 0 49 16q17 10 52.5 42.5t64.5 60t34 27.5q7 0 13 -6t6 -13q0 -15 -78 -85t-118 -84q-24 -8 -39 -8q-32 0 -45.5 19t-16.5 46t-4 30l-4 -3q-30 -35 -77 -66t-83 -31q-39 0 -58 23.5 t-19 60.5q0 34 17 73z"/>
<glyph glyph-name="afii10066" horiz-adv-x="371" unicode="б" d="M925 817q0 -37 -85 -37q-99 0 -235 -30q-98 -22 -164 -51t-96 -80t-30 -178q0 -16 -1.5 -47t-1.5 -45q0 -94 -53 -180.5t-116 -133.5q-73 -53 -120 -53q-32 0 -48.5 18.5t-16.5 50.5q0 60 22.5 115.5t56 92.5t70.5 59t68 22q25 0 25 -28q0 -15 -13.5 -22t-52.5 -17 q-47 -13 -85.5 -86t-38.5 -124q0 -32 23 -32q43 0 96.5 41t95.5 112.5t48 146.5q1 15 1 43q0 22 -2 61t-2 57q0 58 17 104t43 76.5t68.5 55t83 39t95.5 28.5q142 37 284 48q5 1 20 1q44 0 44 -27z"/>
<glyph glyph-name="afii10067" horiz-adv-x="479" unicode="в" d="M539 690q0 5 -7 5q-19 0 -68.5 -29t-85.5 -56q-68 -52 -127.5 -117.5t-88.5 -120.5q-7 -14 -7 -21q0 -6 5 -6q7 0 19 8q163 97 262 196q28 28 63 73t35 68zM340 230q-2 -22 -2 -40v-10t0.5 -11.5t0.5 -11t1 -10.5t2 -9.5t3 -9t4 -6.5t5.5 -4.5t7.5 -1.5q36 0 104 66 q5 5 13 5q7 0 12.5 -4.5t5.5 -12.5q0 -12 -9 -20q-85 -76 -138 -76q-15 0 -25 7.5t-15.5 23.5t-7.5 26.5t-4 28.5q-2 6 -4 6q-4 0 -11.5 -10t-16.5 -24t-13 -19q-96 -118 -169 -118q-53 0 -53 91q0 29 6 71q1 11 -1 11q-1 0 -20 -17q-7 -5 -13 -5q-8 0 -14.5 6.5t-6.5 14.5 q0 7 7 13q21 16 41.5 38t24.5 33q63 185 226 335q60 56 140.5 106.5t133.5 50.5q34 0 34 -33q0 -32 -29 -85q-25 -44 -65.5 -86.5t-99.5 -85.5t-102 -70.5t-115 -70.5q-49 -29 -70 -83q-24 -62 -24 -134q0 -21 3 -39q1 -10 16 -10q68 0 183 187q16 81 56 81q18 0 18 -22 q0 -28 -20 -62z"/>
<glyph glyph-name="afii10068" horiz-adv-x="438" unicode="г" d="M378 546q19 0 35 -13t16 -47q0 -27 -26 -74t-49.5 -78t-69.5 -90q-25 -32 -55 -82t-30 -73q0 -31 28 -31q69 0 199 124q5 5 13 5t13.5 -5.5t5.5 -13.5q0 -9 -7 -16q-58 -58 -131.5 -101.5t-114.5 -43.5q-29 0 -43.5 16t-14.5 42q0 72 91 194q2 3 19 25.5t28 37t28.5 39.5 t28 42.5t18.5 35.5t8 28q0 30 -22 30q-14 0 -41 -21.5t-51 -48.5q-17 -19 -99.5 -120.5t-141.5 -155.5q-4 -4 -10 -4q-8 0 -15 7.5t-7 15.5q0 7 5 11q48 42 137.5 148.5t109.5 128.5q81 88 145 88z"/>
<glyph glyph-name="afii10069" horiz-adv-x="391" unicode="д" d="M294 629q-19 37 -58 60.5t-86 23.5q-126 0 -224 -126q-21 -33 -42 -33q-8 0 -14 5.5t-6 14.5q0 18 18 44t31 39q105 101 233 101q116 0 174 -78.5t58 -196.5q0 -102 -43.5 -215.5t-120 -194.5t-157.5 -81q-55 0 -55 66q0 47 22 89q2 4 2 5q0 2 -2 2q-1 0 -9 -3t-14 -3 q-7 0 -13.5 5t-6.5 13q0 13 17 25q121 95 156 118q1 1 12.5 7.5t18.5 10t18 7.5t18 4q18 0 18 -22q0 -13 -12.5 -25.5t-25 -19.5t-33.5 -16t-23 -10q-23 -12 -57.5 -79t-34.5 -105q0 -24 18 -24q37 0 81 38.5t70.5 78t42.5 71.5q62 129 62 254q0 88 -33 150z"/>
<glyph glyph-name="afii10070" horiz-adv-x="330" unicode="е" d="M192 340q-31 0 -76 -46t-57 -77q-2 -6 -2 -7q0 -7 9 -7q27 0 83.5 43t56.5 73q0 21 -14 21zM264 327q0 -23 -9.5 -42t-32 -36.5t-37.5 -27t-49.5 -27.5t-45.5 -24q-8 -4 -24 -10.5t-26 -11.5t-11 -9q-2 -16 -2 -22q0 -40 23 -58.5t54 -18.5q72 0 212 140q6 6 14 6 t13.5 -5.5t5.5 -13.5q0 -9 -7 -16q-51 -52 -82.5 -80t-79 -52t-95.5 -24q-54 0 -83 37t-29 88q0 77 76 171t154 94q25 0 43 -15.5t18 -42.5z"/>
<glyph glyph-name="afii10072" horiz-adv-x="792" unicode="ж" d="M175 147q-3 13 -14 13q-14 0 -34 -31q-27 -42 -27 -68q0 -6 4 -6q3 0 8.5 4t11 9.5t10.5 11t9 10.5l4 4q28 36 28 53zM588 156q1 7 -2 7q-5 0 -29.5 -33.5t-57.5 -73.5t-57 -53t-43 -13q-20 0 -31 16t-11 41q0 26 8.5 56t27 76t22.5 57q-12 -2 -22 -12t-20.5 -26.5 t-13.5 -19.5q-27 -35 -48 -54q-26 -24 -59 -24q-9 0 -21 3l-16 4h-1q-5 0 -18 -14.5t-27.5 -32.5t-19.5 -22q-37 -37 -65 -37q-35 0 -35 44q0 23 10 55q13 40 41.5 75.5t66.5 35.5q9 0 18 -7.5t16 -7.5q16 0 46 72q15 35 15 60q0 28 -21 28q-23 0 -67 -40t-93 -94t-63 -66 q-5 -5 -15 -5q-9 0 -15.5 5t-6.5 12q0 11 15 22q11 9 101.5 102t121.5 105q18 7 37 7q28 0 44.5 -18t16.5 -48q0 -18 -6 -37q-12 -43 -78 -151q6 -9 17 -9q25 0 55 33q21 23 55.5 66t46.5 57q41 48 67 48q23 0 23 -33q0 -15 -6 -36q-7 -25 -44.5 -99.5t-37.5 -110.5 q0 -26 11 -26q15 0 45 34q87 98 155 204q29 48 55 48q25 0 25 -29q0 -20 -10 -35q-72 -109 -72 -180q0 -18 10 -18q28 0 147 112q10 10 22 10q17 0 17 -15q0 -9 -10 -19q-4 -4 -28 -27.5t-40.5 -38t-41 -33.5t-46 -29t-39.5 -10q-40 0 -40 50q0 33 19 92z"/>
<glyph glyph-name="afii10073" horiz-adv-x="361" unicode="з" d="M189 354q36 0 36 -37q0 -27 -27.5 -68.5t-55.5 -85.5t-28 -77q0 -8 8 -8t53 20t70 20q27 0 40 -20q10 -16 10 -42q0 -39 -19.5 -89.5t-40.5 -84.5q-46 -74 -115.5 -134t-137.5 -78q-24 -7 -49 -7q-41 0 -65 22t-24 65q0 50 55 116q17 20 40.5 38.5t40.5 18.5q8 0 14 -6.5 t6 -15.5q0 -16 -37 -42t-45 -37q-36 -46 -36 -81q0 -40 45 -40q38 0 89 25.5t96 73.5q48 52 90.5 123t42.5 119q0 30 -16 30q-11 0 -52.5 -21.5t-62.5 -21.5q-20 0 -31.5 15t-11.5 37q0 40 22 91q10 25 37.5 64.5t27.5 51.5q0 8 -5 8q-8 0 -30.5 -24t-54 -60.5t-50.5 -53.5 q-9 -8 -19 -8q-18 0 -18 19q0 9 7 15q19 17 54 58.5t67.5 70.5t65.5 39q8 2 14 2z"/>
<glyph glyph-name="afii10074" horiz-adv-x="557" unicode="и" d="M543 182q5 4 14 4q8 0 14.5 -5.5t6.5 -12.5q0 -9 -8 -17q-110 -107 -150 -127q-22 -11 -44 -11q-42 0 -42 38q0 19 3.5 38.5t8 32.5t13 35.5t12.5 35.5q2 4 -1 4t-15 -12t-28.5 -29.5t-19.5 -20.5q-2 -3 -19.5 -21.5t-27 -28.5t-29 -28t-33.5 -27.5t-31.5 -17.5t-32.5 -8 q-37 0 -37 50q0 53 32 129q6 15 27.5 59.5t28.5 67.5h-1q-19 0 -57 -35q-16 -15 -59.5 -63t-56.5 -61q-4 -2 -11 -2q-19 0 -19 19q0 9 5 15q5 5 31.5 33t44.5 46.5t45 44t48 41.5q41 34 70 34q28 0 28 -33q0 -19 -8 -39t-23.5 -47.5t-22.5 -43.5q-34 -74 -37 -81 q-13 -33 -13 -61q0 -16 9 -16q5 0 13.5 5t19.5 14t18.5 16.5t19 18.5t14.5 14q71 68 188 192q24 27 38 27q8 0 13.5 -6t5.5 -14q0 -14 -21 -53q-11 -21 -34 -64q-45 -88 -45 -128q0 -22 8 -22q16 0 59 36.5t88 84.5z"/>
<glyph glyph-name="afii10075" horiz-adv-x="571" unicode="й" d="M104 208l5 10q16 32 16 37q0 2 -2 2q-12 0 -93 -90q-3 -5 -13 -12.5t-18 -7.5q-7 0 -12 6.5t-5 14.5q0 12 26 34q70 65 141 149q1 1 10.5 13t15.5 19t16 14t18 7q22 0 22 -29q0 -25 -18 -65q-9 -19 -37.5 -73t-42.5 -89q-23 -58 -23 -87q0 -11 10 -11q28 0 93 62 q69 63 166 176q2 2 10.5 12.5t15 17.5t15.5 15.5t18.5 13t18.5 4.5q25 0 25 -28q0 -19 -13 -47q-33 -67 -56 -120q-33 -77 -33 -100q0 -10 10 -10q21 0 51 24q19 15 63.5 59t49.5 49q10 10 18 10q7 0 12.5 -6t5.5 -13q0 -11 -9 -20q-11 -10 -42 -40t-54.5 -51.5t-43.5 -35.5 q-43 -32 -66 -32q-50 0 -50 48q0 30 24 90q4 11 14 32t17 38.5t9 31.5q-11 -5 -23 -16t-27 -29t-20 -23q-46 -50 -120 -114q-2 -2 -10.5 -9.5t-12 -10.5t-11 -9t-13 -9t-13.5 -6.5t-15.5 -5t-15.5 -1.5q-24 0 -37.5 18t-13.5 50q0 47 47 143zM300 790q57 0 93 -40t36 -101 q0 -23 -4 -44q-6 -33 -20 -49t-30 -16q-18 0 -18 17q0 8 11 41q11 31 11 59q0 41 -23.5 66.5t-72.5 25.5q-40 0 -86 -27.5t-84 -64.5q-8 -8 -16.5 -18t-13.5 -15.5t-10 -9.5t-9 -4q-5 0 -9 4t-4 9q0 21 30 53q112 114 219 114z"/>
<glyph glyph-name="afii10076" horiz-adv-x="613" unicode="к" d="M466 436q-7 -2 -13.5 -5.5t-14 -10t-10.5 -9.5t-12 -12.5t-10 -10.5q-8 -9 -31 -32.5t-35.5 -37t-30.5 -34.5t-32 -40.5t-25 -39.5q6 2 22 7.5t25.5 8.5t23 6t23.5 3q15 0 26.5 -9t11.5 -28q0 -12 -10 -54.5t-10 -62.5q0 -36 28 -36q15 0 35 8.5t37 19t41 30t36 30t34 31 t24 21.5q9 9 19 9q8 0 13 -6t5 -14q0 -9 -7 -15q-1 -1 -60 -52.5t-84 -69.5q-60 -44 -110 -44q-68 0 -68 92q0 14 10.5 47.5t10.5 42.5t-8 9t-26 -11.5t-26 -11.5q-25 0 -33 31q-17 -22 -63.5 -83t-70.5 -92q-2 -3 -13.5 -18t-16.5 -21t-15.5 -12.5t-20.5 -6.5 q-11 0 -20.5 13.5t-9.5 32.5q0 44 49 131q7 13 28 45.5t36 57t15 31.5q0 2 -2 2q-1 0 -3 -1t-3 -1q-8 -4 -24.5 -20t-30 -30.5t-31.5 -34t-20 -21.5q-10 -10 -20 -10q-17 0 -17 17q0 12 12 24q11 10 59 64.5t71 72.5q42 34 66 34t24 -31q0 -22 -13 -48q-10 -19 -54.5 -93 t-63.5 -119q-4 -9 -4 -14q0 -1 1 -1q4 0 20.5 21.5t41 56t32.5 44.5q102 136 196 238q88 97 129 97q15 0 25 -11.5t10 -28.5q0 -30 -31 -77q-4 -8 -28 -31t-41 -23q-7 0 -12 5.5t-5 12.5q0 11 25.5 36t23.5 42z"/>
<glyph glyph-name="afii10077" horiz-adv-x="458" unicode="л" d="M323 364q22 0 22 -31q0 -12 -5 -32t-10 -34.5t-17 -46.5t-16 -44q-32 -91 -32 -115q0 -11 10 -11q7 0 19 6t21.5 13t20.5 15l10 8q8 6 35 31t50 45.5t26 20.5q8 0 14.5 -6.5t6.5 -15.5q0 -8 -5 -13q-54 -62 -121 -110.5t-97 -48.5q-40 0 -40 58q0 77 61 214q1 1 3 9t-1 9 q-17 0 -64 -63q-12 -16 -47.5 -68t-56.5 -79.5t-53 -54t-59 -26.5q-59 0 -59 74q0 42 19.5 79.5t42.5 37.5q8 0 13.5 -6t5.5 -15q0 -7 -3 -13q-28 -50 -28 -88q0 -23 16 -23q6 0 16 6.5t23 20.5t24 27t27.5 34t25 32.5t24 33t17.5 24.5q108 146 161 146z"/>
<glyph glyph-name="afii10078" horiz-adv-x="670" unicode="м" d="M655 181q6 5 14 5t14 -5.5t6 -13.5q0 -7 -6 -14q-51 -50 -115.5 -101.5t-93.5 -51.5q-33 0 -46 13.5t-13 55.5q0 40 52 160q2 4 2 8q0 2 -1 2q-6 0 -34 -35q-3 -3 -36 -44t-56.5 -67.5t-56 -53t-52.5 -26.5q-31 0 -31 45q0 16 4.5 37.5t14 48t16.5 46t19 48.5t16 39 q3 7 3 11l-1 2q-25 -26 -64 -81t-69 -99.5t-69 -80t-72 -35.5q-58 0 -58 74q0 42 19 79.5t42 37.5q8 0 14 -6t6 -15q0 -5 -4 -13q-28 -50 -28 -86q0 -24 16 -25h2q23 0 62.5 45.5t94 126t62.5 90.5q10 13 23.5 33.5t20.5 29t19.5 16t28.5 7.5q29 0 29 -31q0 -19 -9.5 -45.5 t-23 -56t-17.5 -41.5q-25 -66 -35 -116q0 -2 -0.5 -3.5t-0.5 -2.5q0 -7 5 -7q10 0 33 22t41 45q12 15 34.5 43.5t40 49t39.5 43.5q40 40 68 40q22 0 22 -26q0 -6 -38.5 -99.5t-38.5 -127.5q0 -23 17 -23q25 0 80.5 47t88.5 82z"/>
<glyph glyph-name="afii10079" horiz-adv-x="620" unicode="н" d="M608 182q5 4 13 4t13.5 -5t5.5 -12q0 -10 -10 -19q-105 -101 -156 -132q-40 -25 -68 -25q-22 0 -33.5 15.5t-11.5 40.5q0 32 16 82q-34 -17 -62 -17q-20 0 -38 9q-9 5 -34 33t-44 28q-5 0 -10 -1.5t-10 -4.5t-8.5 -5.5t-8.5 -7.5l-7 -7t-7 -8t-6 -7q-57 -66 -86 -121 q-8 -15 -22.5 -26t-27.5 -11q-7 0 -13.5 5.5t-6.5 13.5t7.5 19.5t18 23t12.5 14.5q63 91 112 203q0 1 1 3t1 3q0 2 -1 2q-5 0 -28.5 -23t-53 -53.5t-39.5 -39.5q-7 -7 -16 -7q-8 0 -13 5.5t-5 12.5t6 15q105 105 140 146q3 4 16 19.5t20.5 24t18.5 16.5t20 8q10 0 16 -7.5 t6 -18.5q0 -16 -11.5 -42.5t-31 -62.5t-26.5 -53q38 21 61 21t50 -36.5t54 -36.5q45 0 96 65q34 42 48 73q18 41 37 41q10 0 18.5 -7t8.5 -18q0 -20 -17 -44q-23 -34 -31.5 -47.5t-22.5 -40t-24 -53.5q-16 -47 -16 -67q0 -17 11 -17q18 0 102 69q45 36 77 68z"/>
<glyph glyph-name="afii10080" horiz-adv-x="374" unicode="о" d="M251 364q31 0 47 -24t16 -58q0 -62 -36.5 -130.5t-98.5 -116.5t-126 -48q-39 0 -56 29.5t-17 69.5q0 10 3 27t3 23t-5 14t-5 16t6 15t18 15.5t18 15.5q12 13 30 36t36.5 41.5t46.5 36.5q31 17 40 17q15 0 15 -20q0 -40 -79 -97q-76 -55 -76 -143q0 -20 11.5 -33.5 t29.5 -13.5q63 0 129 83.5t66 152.5q0 26 -22 33q-26 9 -26 29q0 13 9 21.5t23 8.5z"/>
<glyph glyph-name="afii10081" horiz-adv-x="618" unicode="п" d="M635 156q-118 -112 -164 -138q-45 -26 -82 -26q-22 0 -37 14.5t-15 37.5q0 27 16 66q4 9 26 50.5t39.5 80t17.5 54.5t-14 16q-31 0 -137 -81q-76 -58 -195 -182q-2 -2 -12 -14t-16.5 -18.5t-16.5 -13t-19 -6.5q-16 0 -16 16q0 7 5 16.5t10.5 17t13.5 17t10 11.5 q95 125 124 236q-7 -1 -14 -6.5t-11 -9t-12.5 -13t-10.5 -11.5q-70 -82 -113 -118q-7 -5 -12 -5q-7 0 -13 6.5t-6 14.5q0 9 7 15q45 37 143 157q46 59 77 59q14 0 22 -10.5t8 -26.5q0 -36 -29 -98l-13 -24q-13 -24 -13 -36q0 -1 0.5 -2.5t0.5 -2.5q13 5 30.5 19.5t42 37.5 t34.5 32q79 67 135 67q30 0 51 -14.5t21 -44.5q0 -36 -25 -84t-50 -89t-25 -59q0 -21 18 -21q17 0 45 17q57 35 144 121q6 6 14 6t13.5 -6t5.5 -14q0 -5 -3 -11z"/>
<glyph glyph-name="afii10082" horiz-adv-x="588" unicode="р" d="M106 111q10 6 86 88q43 46 73 75t78 62.5t89 44.5q12 3 23 3q19 0 32 -10.5t13 -30.5q0 -25 -17 -64q-13 -30 -40 -81t-36 -71q-16 -38 -16 -45q0 -9 13 -9q19 0 50 14q41 19 120 96q5 5 13 5t15 -6.5t7 -14.5q0 -4 -5 -11q-91 -95 -169 -122q-28 -10 -50 -10 q-45 0 -45 49q0 42 49 136q46 88 46 99q0 8 -11 8q-28 0 -72 -29q-93 -65 -220 -204q-74 -82 -193 -252q-1 -1 -5.5 -8t-6.5 -9.5t-6.5 -9t-8 -9t-8 -6.5t-10 -5.5t-10.5 -1.5q-6 0 -10.5 6t-4.5 13q0 13 19 40q156 244 237 419q-7 0 -29 -22t-47 -49t-33 -33q-7 -7 -15 -7 q-7 0 -12.5 5.5t-5.5 13.5t6 16q43 33 108 110q32 37 53 57t49 36q14 7 21 7q11 0 18 -9.5t7 -22.5q0 -27 -32 -67q-79 -99 -107 -184z"/>
<glyph glyph-name="afii10083" horiz-adv-x="324" unicode="с" d="M283 315q0 -34 -22.5 -66.5t-49.5 -32.5q-8 0 -15.5 5.5t-7.5 12.5q0 20 20 42.5t20 32.5q0 15 -14 15q-67 0 -126 -68.5t-59 -139.5q0 -64 65 -64q84 0 217 130q4 4 11 4q8 0 14 -5t6 -13t-6 -15q-37 -45 -107 -91q-92 -62 -153 -62q-49 0 -76 34.5t-27 87.5 q0 52 36 109.5t93.5 96.5t114.5 39q66 0 66 -52z"/>
<glyph glyph-name="afii10084" horiz-adv-x="824" unicode="т" d="M642 279q-17 -1 -35.5 -11.5t-26 -17t-27.5 -24.5q-41 -38 -137 -147q-1 -1 -15.5 -23t-27.5 -34t-25 -12q-19 0 -19 21q0 18 12 42q1 3 18.5 36t23.5 46t18 40t16.5 46t4.5 34q0 32 -21 32q-31 0 -80 -43q-110 -97 -154 -214q-15 -39 -34 -39q-24 0 -24 24q0 11 13 45 q12 27 41 75.5t43 87.5q11 35 11 61q0 29 -15 29t-41.5 -26t-69 -74t-74.5 -77q-8 -8 -17 -8q-8 0 -14 6t-6 14q0 10 8 15q23 18 83.5 84t91.5 89q32 23 57 23q47 0 47 -77q0 -21 -5 -46q5 4 37 35.5t64 51t64 19.5q50 0 50 -57q0 -43 -25 -116v-1l-1 -2q0 -2 2 -2 q6 0 61 51q8 7 28.5 27t36.5 33.5t35 25.5q33 18 53 18q15 0 24.5 -11t9.5 -29q0 -36 -35 -108q-43 -94 -43 -130q0 -14 9 -14q21 0 81 48t98 86q6 6 14 6t14 -6t6 -14t-7 -15q-96 -91 -144 -122q-55 -38 -89 -38q-19 0 -30.5 13.5t-11.5 34.5q0 14 4.5 33t9 31t13.5 33 t10 24q4 10 17 36.5t19 44.5t6 37zM771 454q0 -20 -42 -20q-23 0 -76.5 7.5t-89.5 7.5q-83 0 -195 -15q-18 -3 -35.5 -6t-26 -4.5t-12.5 -1.5q-12 0 -12 12q0 4 2.5 7.5t8 7t11 5.5t14.5 4.5t14.5 4t15 3.5t13.5 3q105 25 271 25q25 0 75 -2q64 -3 64 -38z"/>
<glyph glyph-name="afii10085" horiz-adv-x="439" unicode="у" d="M376 292l-50 -74q-164 -243 -258 -355q-274 -327 -526 -335h-13q-65 0 -125.5 30.5t-61.5 76.5q0 6 5.5 9.5t10.5 -1.5q78 -72 206 -72q257 0 621 513q2 2 10 14.5t8 17.5q0 4 -3 4q-1 0 -58 -33q-66 -37 -102 -37q-33 0 -48 20t-15 69q0 28 27 83.5t62 101t56 45.5 q12 0 18.5 -6t6.5 -15q0 -12 -31.5 -56t-62.5 -93.5t-31 -74.5q0 -29 29 -29q39 0 128 66t127 117q3 4 19 34t33.5 51t33.5 21q9 0 16 -7t7 -15q0 -15 -39 -70z"/>
</font>
</defs>
</svg>
